G04 ================== begin FILE IDENTIFICATION RECORD ==================*
G04 Layout Name:  Istanbul_Omnichip_LGA_DEVKIT_Rev_1P.brd*
G04 Film Name:    L3-PWR*
G04 File Format:  Gerber RS274X*
G04 File Origin:  Cadence Allegro 17.2-P019*
G04 Origin Date:  Mon Dec 09 23:50:35 2019*
G04 *
G04 Layer:  BOARD GEOMETRY/DESIGN_OUTLINE*
G04 Layer:  MANUFACTURING/L5*
G04 Layer:  BOARD GEOMETRY/TEXT-L5*
G04 Layer:  VIA CLASS/L3-PWR*
G04 Layer:  PIN/L3-PWR*
G04 Layer:  ETCH/L3-PWR*
G04 Layer:  DRAWING FORMAT/TITLE_BLOCK*
G04 Layer:  DRAWING FORMAT/TITLE_DATA*
G04 Layer:  BOARD GEOMETRY/TEXT-GLOBAL*
G04 *
G04 Offset:    (0.00 0.00)*
G04 Mirror:    No*
G04 Mode:      Positive*
G04 Rotation:  0*
G04 FullContactRelief:  No*
G04 UndefLineWidth:     5.00*
G04 ================== end FILE IDENTIFICATION RECORD ====================*
%FSLAX25Y25*MOIN*%
%IR0*IPPOS*OFA0.00000B0.00000*MIA0B0*SFA1.00000B1.00000*%
%ADD15C,.02*%
%ADD13C,.022*%
%ADD10C,.06*%
%ADD11C,.018*%
%ADD12O,.06693X.04331*%
%ADD14O,.03937X.0748*%
%ADD16C,.01*%
%ADD17C,.015*%
%ADD18C,.005*%
%ADD19C,.008*%
%ADD20C,.009*%
%ADD22C,.04204*%
%ADD21C,.03804*%
%ADD23C,.08404*%
G75*
%LPD*%
G75*
G36*
G01X23500Y86199D02*
G02X23876Y86282I197J0D01*
G03Y89828I3809J1773D01*
G02X23500Y89911I-179J83D01*
G01Y96199D01*
G02X23876Y96282I197J0D01*
G03Y99828I3809J1773D01*
G02X23500Y99911I-179J83D01*
G01Y106199D01*
G02X23876Y106282I197J0D01*
G03Y109828I3809J1773D01*
G02X23500Y109911I-179J83D01*
G01Y116199D01*
G02X23876Y116282I197J0D01*
G03Y119828I3809J1773D01*
G02X23500Y119911I-179J83D01*
G01Y126199D01*
G02X23876Y126282I197J0D01*
G03Y129828I3809J1773D01*
G02X23500Y129911I-179J83D01*
G01Y136199D01*
G02X23876Y136282I197J0D01*
G03Y139828I3809J1773D01*
G02X23500Y139911I-179J83D01*
G01Y146741D01*
G02X23884Y146803I197J0D01*
G03X30535Y150865I3801J1252D01*
G02X30675Y151200I140J138D01*
G01X47595D01*
X47616Y151197D01*
X47629Y151194D01*
X47630D01*
X47640Y151192D01*
G03X48489Y151197I414J1858D01*
G01X48500Y151200D01*
X91169D01*
X94398Y147971D01*
Y129398D01*
X93200Y128200D01*
X67471D01*
X67421Y128079D01*
X67464Y128036D01*
G02X67325Y127700I-140J-139D01*
G01X67069D01*
G03X66931I-69J-1900D01*
G01X63569D01*
G03X63431I-69J-1900D01*
G01X40500D01*
X38800Y126000D01*
Y51100D01*
X41100Y48800D01*
X42069D01*
X42171Y48698D01*
X76120D01*
X76136Y48619D01*
G03X79864I1864J381D01*
G01X79880Y48698D01*
X84001D01*
X85900Y46800D01*
Y4500D01*
X84300Y2900D01*
X25400D01*
X23500Y4800D01*
Y6199D01*
G02X23876Y6282I197J0D01*
G03Y9828I3809J1773D01*
G02X23500Y9911I-179J83D01*
G01Y16199D01*
G02X23876Y16282I197J0D01*
G03Y19828I3809J1773D01*
G02X23500Y19911I-179J83D01*
G01Y26199D01*
G02X23876Y26282I197J0D01*
G03Y29828I3809J1773D01*
G02X23500Y29911I-179J83D01*
G01Y36199D01*
G02X23876Y36282I197J0D01*
G03Y39828I3809J1773D01*
G02X23500Y39911I-179J83D01*
G01Y46199D01*
G02X23876Y46282I197J0D01*
G03Y49828I3809J1773D01*
G02X23500Y49911I-179J83D01*
G01Y56199D01*
G02X23876Y56282I197J0D01*
G03Y59828I3809J1773D01*
G02X23500Y59911I-179J83D01*
G01Y66199D01*
G02X23876Y66282I197J0D01*
G03Y69828I3809J1773D01*
G02X23500Y69911I-179J83D01*
G01Y76199D01*
G02X23876Y76282I197J0D01*
G03Y79828I3809J1773D01*
G02X23500Y79911I-179J83D01*
G01Y86199D01*
G37*
G36*
G01X43000Y50700D02*
X41200Y52500D01*
Y77122D01*
G02X41463Y77308I197J0D01*
G03Y80892I637J1792D01*
G02X41200Y81078I-66J186D01*
G01Y104958D01*
G02X41557Y105073I197J0D01*
G03Y107297I1543J1112D01*
G02X41200Y107412I-160J115D01*
G01Y108735D01*
G02X41539Y108871I197J0D01*
G03Y111499I1376J1314D01*
G02X41200Y111635I-142J136D01*
G01Y116580D01*
G02X41510Y116741I197J0D01*
G03Y119859I1090J1559D01*
G02X41200Y120020I-113J161D01*
G01Y124000D01*
X42300Y125100D01*
X50598D01*
Y125001D01*
G03X54402I1902J-1D01*
G01Y125100D01*
X61731D01*
G03X65086Y124750I1769J700D01*
G02X65414I164J-109D01*
G03X68769Y125100I1586J1050D01*
G01X83231D01*
G03X86769I1769J700D01*
G01X124415D01*
G03X124585I85J1900D01*
G01X127686D01*
G03X128914I614J1800D01*
G01X131104D01*
G02X131300Y124893I-1J-197D01*
G03X132348Y123099I1900J-93D01*
G02X132358Y122752I-88J-176D01*
G03X134152Y122801I943J-1652D01*
G02X134142Y123148I88J176D01*
G03X135100Y124893I-942J1652D01*
G02X135296Y125100I197J10D01*
G01X153500D01*
X154600Y124000D01*
Y121465D01*
G02X154262Y121328I-197J0D01*
G03Y118672I-1362J-1328D01*
G02X154600Y118535I141J-137D01*
G01Y108210D01*
G02X154346Y108022I-197J1D01*
G03Y104378I-546J-1822D01*
G02X154600Y104190I57J-189D01*
G01Y101788D01*
G02X154251Y101663I-197J0D01*
G03Y96337I-3251J-2663D01*
G02X154600Y96212I152J-125D01*
G01Y91788D01*
G02X154251Y91663I-197J0D01*
G03Y86337I-3251J-2663D01*
G02X154600Y86212I152J-125D01*
G01Y81788D01*
G02X154251Y81663I-197J0D01*
G03Y76337I-3251J-2663D01*
G02X154600Y76212I152J-125D01*
G01Y71788D01*
G02X154251Y71663I-197J0D01*
G03Y66337I-3251J-2663D01*
G02X154600Y66212I152J-125D01*
G01Y61460D01*
G02X154243Y61344I-197J-1D01*
G03Y56656I-3243J-2344D01*
G02X154600Y56540I160J-115D01*
G01Y53200D01*
X152100Y50700D01*
X81846D01*
G02X81691Y51019I0J197D01*
G03X78776Y53461I-1490J1182D01*
G02X78466Y53479I-148J130D01*
G03X75572Y51038I-1566J-1079D01*
G02X75435Y50700I-137J-141D01*
G01X43000D01*
G37*
G36*
G01X93712Y162243D02*
X92624Y161155D01*
X92573Y161165D01*
G03X90335Y158927I-373J-1865D01*
G01X90345Y158876D01*
X90298Y158829D01*
Y156129D01*
X90198Y156029D01*
Y154199D01*
X89300Y153300D01*
X49937D01*
X49923Y153381D01*
G03X46177I-1873J-331D01*
G01X46163Y153300D01*
X24200D01*
X23100Y154400D01*
Y212200D01*
X24100Y213200D01*
X154588D01*
Y192088D01*
X175700D01*
Y171300D01*
X174782Y170382D01*
G02X174480Y170411I-139J139D01*
G03X166832Y168588I-3480J-2356D01*
G01X166821Y168502D01*
X136447D01*
G02X136292Y168821I0J197D01*
G03X133308I-1492J1179D01*
G02X133153Y168502I-155J-122D01*
G01X126671D01*
X126480Y168310D01*
X126411Y168367D01*
G03X123812Y168200I-1211J-1467D01*
G01X110462D01*
G02X110330Y168543I0J197D01*
G03X107216Y169446I-1280J1407D01*
G02X106981Y169202I-190J-52D01*
G03X105036Y168502I-432J-1852D01*
G01X99971D01*
X96307Y164838D01*
G02X95979Y164923I-139J139D01*
G03X92825Y165765I-1829J-523D01*
G03Y163035I-1325J-1365D01*
G03X93627Y162571I1325J1365D01*
G02X93712Y162243I-54J-189D01*
G37*
G36*
G01X156400Y125031D02*
Y125300D01*
X154600Y127100D01*
X154331D01*
X154329Y127102D01*
X152229D01*
G02X152114Y127458I0J197D01*
G03X149886I-1114J1542D01*
G02X149771Y127102I-115J-159D01*
G01X130193D01*
X130180Y127186D01*
G03X129640Y128250I-1880J-285D01*
G03X126960I-1340J1350D01*
G03X126600Y127752I1341J-1349D01*
G02X126243Y127761I-176J88D01*
G03X122608Y127191I-1743J-761D01*
G01X122599Y127102D01*
X109577D01*
G02X109476Y127468I0J197D01*
G03X107524I-976J1632D01*
G02X107423Y127102I-101J-169D01*
G01X104377D01*
G02X104276Y127468I0J197D01*
G03X102324I-976J1632D01*
G02X102223Y127102I-101J-169D01*
G01X97598D01*
X96400Y128300D01*
Y148800D01*
X92200Y153000D01*
Y155200D01*
X92300Y155300D01*
Y157401D01*
G03X94060Y159697I-100J1899D01*
G01X94049Y159749D01*
X96691Y162391D01*
X96738Y162387D01*
G03X98813Y164462I182J1893D01*
G01X98809Y164509D01*
X100800Y166500D01*
X104848D01*
G03X105080Y166143I1701J851D01*
G03X105166Y163750I1520J-1143D01*
G03X105291Y161120I1434J-1250D01*
G02X105296Y160983I-68J-71D01*
G03X106908Y157809I1404J-1283D01*
G03X110456Y157064I1892J191D01*
G02X110822Y156999I172J-97D01*
G03X114503Y156694I1878J301D01*
G02X114869Y156712I187J-63D01*
G03X118156Y156406I1731J788D01*
G02X118484Y156397I161J-113D01*
G03X121954Y156975I1616J1003D01*
G02X122235Y157106I192J-45D01*
G03X124300Y157324I865J1694D01*
G03X126204Y160567I1200J1476D01*
G02Y160933I73J183D01*
G03X125965Y164544I-704J1767D01*
G02X125874Y164874I49J191D01*
G01X127500Y166500D01*
X133545D01*
G02X133672Y166153I0J-197D01*
G03X136128I1228J-1453D01*
G02X136255Y166500I127J150D01*
G01X137224D01*
G03X140176I1476J1200D01*
G01X153073D01*
G02X153188Y166143I0J-197D01*
G03X155412I1112J-1543D01*
G02X155527Y166500I115J160D01*
G01X159831D01*
G03X162169I1169J1500D01*
G01X167096D01*
G03X173150Y164445I3904J1555D01*
G01X173216Y164484D01*
X174600Y163100D01*
Y160843D01*
G02X174251Y160718I-197J0D01*
G03Y155392I-3251J-2663D01*
G02X174600Y155267I152J-125D01*
G01Y150843D01*
G02X174251Y150718I-197J0D01*
G03Y145392I-3251J-2663D01*
G02X174600Y145267I152J-125D01*
G01Y140843D01*
G02X174251Y140718I-197J0D01*
G03Y135392I-3251J-2663D01*
G02X174600Y135267I152J-125D01*
G01Y130843D01*
G02X174251Y130718I-197J0D01*
G03Y125392I-3251J-2663D01*
G02X174600Y125267I152J-125D01*
G01Y120843D01*
G02X174251Y120718I-197J0D01*
G03Y115392I-3251J-2663D01*
G02X174600Y115267I152J-125D01*
G01Y110843D01*
G02X174251Y110718I-197J0D01*
G03Y105392I-3251J-2663D01*
G02X174600Y105267I152J-125D01*
G01Y100843D01*
G02X174251Y100718I-197J0D01*
G03Y95392I-3251J-2663D01*
G02X174600Y95267I152J-125D01*
G01Y90843D01*
G02X174251Y90718I-197J0D01*
G03Y85392I-3251J-2663D01*
G02X174600Y85267I152J-125D01*
G01Y80843D01*
G02X174251Y80718I-197J0D01*
G03Y75392I-3251J-2663D01*
G02X174600Y75267I152J-125D01*
G01Y70843D01*
G02X174251Y70718I-197J0D01*
G03Y65392I-3251J-2663D01*
G02X174600Y65267I152J-125D01*
G01Y60843D01*
G02X174251Y60718I-197J0D01*
G03Y55392I-3251J-2663D01*
G02X174600Y55267I152J-125D01*
G01Y50843D01*
G02X174251Y50718I-197J0D01*
G03Y45392I-3251J-2663D01*
G02X174600Y45267I152J-125D01*
G01Y40843D01*
G02X174251Y40718I-197J0D01*
G03Y35392I-3251J-2663D01*
G02X174600Y35267I152J-125D01*
G01Y30514D01*
G02X174243Y30399I-197J0D01*
G03Y25711I-3243J-2344D01*
G02X174600Y25596I160J-115D01*
G01Y20843D01*
G02X174251Y20718I-197J0D01*
G03Y15392I-3251J-2663D01*
G02X174600Y15267I152J-125D01*
G01Y10843D01*
G02X174251Y10718I-197J0D01*
G03X168177Y4943I-3251J-2663D01*
G02X168045Y4600I-132J-146D01*
G01X135028D01*
G03X132972I-1028J-1600D01*
G01X130162D01*
Y6630D01*
G03X123822I-3170J-1D01*
G01Y4600D01*
X104178D01*
Y6630D01*
G03X97838I-3170J-1D01*
G01Y4600D01*
X92089D01*
G02X91893Y4816I0J197D01*
G03X90577Y6812I-1893J184D01*
G02Y7188I60J188D01*
G03X88729Y10415I-577J1812D01*
G02X88400Y10561I-132J146D01*
G01Y46500D01*
X90598Y48698D01*
X121511D01*
G02X121595Y48323I0J-197D01*
G03X123205I805J-1723D01*
G02X123289Y48698I84J178D01*
G01X152929D01*
X153431Y49200D01*
X153700D01*
X156400Y51900D01*
Y52169D01*
X156602Y52371D01*
Y54279D01*
G02X156911Y54440I197J0D01*
G03Y57560I1089J1560D01*
G02X156602Y57721I-112J161D01*
G01Y64279D01*
G02X156911Y64440I197J0D01*
G03Y67560I1089J1560D01*
G02X156602Y67721I-112J161D01*
G01Y110679D01*
G02X156911Y110840I197J0D01*
G03X159487Y111214I1089J1560D01*
G02X159778Y111233I154J-123D01*
G03X159613Y113786I1322J1367D01*
G02X159322Y113767I-154J123D01*
G03X156911Y113960I-1323J-1367D01*
G02X156602Y114121I-112J161D01*
G01Y119111D01*
G02X156977Y119195I197J0D01*
G03Y120805I1723J805D01*
G02X156602Y120889I-178J84D01*
G01Y124829D01*
X156400Y125031D01*
G37*
%LPC*%
G75*
G36*
G01X80231Y6850D02*
G03Y6550I128J-150D01*
G02X77769I-1231J-1450D01*
G03Y6850I-128J150D01*
G02X80231I1231J1450D01*
G37*
G36*
G01X81186Y38925D02*
G03X80914I-136J-143D01*
G02Y41675I-1314J1375D01*
G03X81186I136J143D01*
G02Y38925I1314J-1375D01*
G37*
G36*
G01X63176Y21881D02*
G03X62824I-176J-87D01*
G02Y25631I-3761J1875D01*
G03X63176I176J87D01*
G02Y21881I3761J-1875D01*
G37*
G36*
G01X60867Y116893D02*
G02X63333Y115607I1833J507D01*
G02X60867Y116893I-1833J-507D01*
G37*
G36*
G01X108891Y116100D02*
G03X109060Y115884I196J-21D01*
G02X106909Y114200I-260J-1884D01*
G03X106740Y114416I-196J21D01*
G02X108891Y116100I260J1884D01*
G37*
G36*
G01X66227Y99290D02*
G03X66015Y99077I-16J-196D01*
G02X64093Y100995I-2095J-177D01*
G03X64305Y101208I16J196D01*
G02X64308Y101590I2095J175D01*
G03X64096Y101805I-196J19D01*
G02X66012Y103695I-176J2095D01*
G03X66224Y103480I196J-19D01*
G02X66611Y103476I172J-2095D01*
G03X66827Y103691I20J196D01*
G02X68709Y101794I2093J194D01*
G03X68493Y101579I-20J-196D01*
G02X68494Y101204I-2093J-193D01*
G03X68710Y100991I196J-17D01*
G02X66826Y99081I210J-2091D01*
G03X66610Y99294I-196J17D01*
G02X66227Y99290I-213J2091D01*
G37*
G36*
G01X59954Y86932D02*
G03X60231Y86917I146J132D01*
G02X60090Y84223I1269J-1417D01*
G03X59813Y84238I-146J-132D01*
G02X59954Y86932I-1269J1417D01*
G37*
G36*
G01X65913Y79910D02*
G03X65744Y79666I22J-196D01*
G02X63687Y81090I-1844J-466D01*
G03X63856Y81334I-22J196D01*
G02X65898Y83692I1844J466D01*
G03X66007Y83780I11J98D01*
G02X66984Y85267I1893J-180D01*
G03X67059Y85539I-95J173D01*
G02X69616Y84833I1641J961D01*
G03X69541Y84561I95J-173D01*
G02X67702Y81708I-1641J-961D01*
G03X67593Y81620I-11J-98D01*
G02X65913Y79910I-1893J180D01*
G37*
G36*
G01X86799Y64824D02*
G03Y64476I93J-174D01*
G02X85001I-899J-1676D01*
G03Y64824I-93J174D01*
G02X86799I899J1676D01*
G37*
G36*
G01X46577Y99812D02*
G02X45423I-577J-1812D01*
G03Y100188I-60J188D01*
G02X46577I577J1812D01*
G03Y99812I60J-188D01*
G37*
G36*
G01X85947Y92312D02*
G02X84793I-577J-1812D01*
G03Y92688I-60J188D01*
G02X85947I577J1812D01*
G03Y92312I60J-188D01*
G37*
G36*
G01X80112Y57423D02*
G02Y58577I-1812J577D01*
G03X80488I188J60D01*
G02Y57423I1812J-577D01*
G03X80112I-188J-60D01*
G37*
G36*
G01X102000Y191319D02*
G03X101784Y191507I-197J-8D01*
G02X103500Y193481I-184J1893D01*
G03X103716Y193293I197J8D01*
G02X105250Y192740I184J-1893D01*
G02Y190060I1350J-1340D01*
G02X102000Y191319I-1350J1340D01*
G37*
G36*
G01X110763Y184978D02*
G03X110961Y184687I172J-96D01*
G02X109537Y183722I240J-1887D01*
G03X109339Y184013I-172J96D01*
G02X107853Y184464I-239J1887D01*
G02X107747Y187236I-1353J1336D01*
G02X110763Y184978I1352J-1337D01*
G37*
G36*
G01X50493Y189263D02*
G03X50777Y189256I145J133D01*
G02X53000Y190167I2223J-2257D01*
G01X55362D01*
G02X57481Y184646I0J-3167D01*
G03Y184354I132J-146D01*
G02Y179646I-2119J-2354D01*
G03Y179354I132J-146D01*
G02Y174646I-2119J-2354D01*
G03Y174354I132J-146D01*
G02X57618Y169777I-2119J-2354D01*
G03X57625Y169493I140J-139D01*
G02X55362Y163633I-2263J-2493D01*
G01X53000D01*
G02X50638Y164600I0J3368D01*
G03X50362I-138J-140D01*
G02X48000Y163633I-2362J2401D01*
G01X45638D01*
G02X43238Y169362I0J3367D01*
G03Y169638I-140J138D01*
G02Y174362I2400J2362D01*
G03Y174638I-140J138D01*
G02Y179362I2400J2362D01*
G03Y179638I-140J138D01*
G02Y184362I2400J2362D01*
G03Y184638I-140J138D01*
G02X45638Y190367I2400J2362D01*
G01X48000D01*
G02X50493Y189263I0J-3367D01*
G37*
G36*
G01X65648Y162134D02*
G03X65929Y162115I150J128D01*
G02X65752Y159466I1271J-1415D01*
G03X65471Y159485I-150J-128D01*
G02X65648Y162134I-1271J1415D01*
G37*
G36*
G01X105821Y40452D02*
G02X103423Y42812I-1821J548D01*
G03Y43188I-60J188D01*
G02X105488Y46185I577J1812D01*
G03X105820Y46223I154J122D01*
G02X108850Y43781I1811J-854D01*
G03Y43469I120J-156D01*
G02X106155Y40528I-1219J-1588D01*
G03X105821Y40452I-145J-133D01*
G37*
G36*
G01X112876Y22781D02*
G03X112564I-156J-120D01*
G02Y25219I-1588J1219D01*
G03X112876I156J120D01*
G02X114109Y25970I1588J-1219D01*
G03X114255Y26243I-34J194D01*
G02X116406Y25142I1745J757D01*
G03X116270Y24864I42J-193D01*
G02X112876Y22781I-1806J-864D01*
G37*
G36*
G01X121955Y141525D02*
G03X122227Y141497I151J127D01*
G02X121945Y138775I1173J-1497D01*
G03X121673Y138803I-151J-127D01*
G02X121955Y141525I-1173J1497D01*
G37*
G36*
G01X145400Y145788D02*
G02X145500Y143112I1400J-1288D01*
G02X145400Y145788I-1400J1288D01*
G37*
G54D22*
X108220Y61000D03*
Y66000D03*
X103220D03*
Y61000D03*
Y56000D03*
X108220D03*
X113220D03*
Y61000D03*
Y66000D03*
X58920Y103900D03*
Y98900D03*
X63920Y93900D03*
X58920D03*
X68920D03*
X74300D03*
X74400Y103785D03*
X74300Y98785D03*
X63920Y108900D03*
X58920D03*
X68920Y108800D03*
X74500Y108600D03*
G54D21*
X65000Y31800D03*
X74850Y147400D03*
X71600Y139400D03*
X80400Y141000D03*
X80300Y146000D03*
X69150Y147650D03*
X54000Y45000D03*
X59000D03*
X49000Y33000D03*
X70000Y5000D03*
X59000D03*
X49000D03*
Y14000D03*
X59000D03*
X70000D03*
X49000Y23000D03*
X44015Y138015D03*
X42600Y131500D03*
X34000Y109000D03*
X37400Y142500D03*
X34000Y99000D03*
X35000Y79000D03*
Y88000D03*
X37000Y32000D03*
X44000Y39000D03*
X38000Y43000D03*
X37000Y22000D03*
Y5000D03*
X54400Y141700D03*
X57985Y138015D03*
X70100Y31800D03*
X43300Y88785D03*
X72000Y53000D03*
X65000D03*
X59000D03*
X54000D03*
X59000Y60000D03*
X54000D03*
X59000Y67000D03*
X54000D03*
X122700Y78600D03*
X86800Y105500D03*
X101850Y104500D03*
X54600Y78200D03*
X85370Y86230D03*
X78400Y78400D03*
X49150Y68000D03*
X72150Y68100D03*
X82200Y71000D03*
X114600Y87700D03*
X94900Y61984D03*
X121540Y53610D03*
Y60516D03*
Y67890D03*
X51900Y93600D03*
X99700Y76000D03*
X126720Y74800D03*
X81300Y99535D03*
X90070Y90500D03*
X73600Y74300D03*
X47000Y116000D03*
X105000Y120300D03*
X99200Y120000D03*
X86400Y114200D03*
X56900Y118400D03*
X125800Y121000D03*
X110600Y120500D03*
X130800Y84000D03*
X128420Y53610D03*
X134000Y106200D03*
X133500Y65200D03*
Y70300D03*
X133400Y74800D03*
X151100Y114200D03*
X141000Y121100D03*
X130100Y115100D03*
X84700Y187200D03*
X77600D03*
X106000Y177700D03*
X80183Y180400D03*
X73100Y177400D03*
X127800Y180700D03*
X96000Y171100D03*
X96400Y194400D03*
X75100Y200200D03*
X82600D03*
X163000Y177900D03*
X138200Y189300D03*
X132600Y185500D03*
X137800Y172900D03*
X147500Y172800D03*
X136000Y140500D03*
X139000Y131250D03*
X134500Y152700D03*
X154900Y147600D03*
X140900Y156000D03*
X163000Y145000D03*
Y138000D03*
Y131000D03*
Y124000D03*
X155000Y138000D03*
X161000Y156000D03*
Y162000D03*
X128300Y148500D03*
X164100Y117700D03*
X135000Y36000D03*
Y45000D03*
X162500Y94100D03*
X162700Y103600D03*
X134000Y12000D03*
Y20000D03*
X104350Y141650D03*
X103900Y148600D03*
X104500Y36100D03*
X116000Y36000D03*
X123000D03*
Y27000D03*
X119118Y19500D03*
X100550Y23150D03*
X95500Y21600D03*
X95000Y17000D03*
Y11000D03*
X162700Y81100D03*
G54D23*
X141000Y99000D03*
Y89000D03*
Y79000D03*
Y69000D03*
Y59000D03*
X27685Y158055D03*
Y168055D03*
Y178055D03*
X171000D03*
%LPD*%
G75*
G54D10*
X59063Y23756D03*
X66937D03*
X27685Y8055D03*
Y18055D03*
Y28055D03*
Y38055D03*
Y48055D03*
Y58055D03*
Y68055D03*
Y78055D03*
Y88055D03*
Y98055D03*
Y108055D03*
Y118055D03*
Y128055D03*
Y138055D03*
Y148055D03*
Y158055D03*
Y168055D03*
Y178055D03*
X171000Y8055D03*
Y18055D03*
Y28055D03*
Y38055D03*
Y48055D03*
Y58055D03*
Y68055D03*
X141000Y69000D03*
X151000D03*
X141000Y59000D03*
X151000D03*
X171000Y78055D03*
Y88055D03*
Y98055D03*
Y108055D03*
Y118055D03*
Y128055D03*
Y138055D03*
Y148055D03*
Y158055D03*
Y168055D03*
Y178055D03*
X141000Y99000D03*
X151000D03*
X141000Y89000D03*
X151000D03*
X141000Y79000D03*
X151000D03*
G54D20*
G01X8225Y469766D02*
X11675D01*
X8225Y463500D01*
X11675D01*
G01X19840Y468200D02*
X22140D01*
Y465380D01*
X21450Y464440D01*
X20645Y463813D01*
X19495Y463500D01*
X18345Y463813D01*
X17540Y464440D01*
X16850Y465380D01*
X16390Y466477D01*
X16160Y467730D01*
Y468827D01*
X16390Y469766D01*
X16850Y470863D01*
X17540Y471803D01*
X18230Y472430D01*
X19150Y472900D01*
X19955D01*
X20875Y472587D01*
X21565Y471960D01*
G01X28350Y463500D02*
Y472900D01*
G01X35595Y469766D02*
Y465380D01*
X36055Y464283D01*
X36745Y463657D01*
X37550Y463500D01*
X38355Y463657D01*
X39045Y464283D01*
X39505Y465380D01*
G01Y463500D02*
Y469766D01*
G01X45025Y467730D02*
X48705D01*
X48360Y468827D01*
X47785Y469453D01*
X46980Y469766D01*
X46175Y469610D01*
X45485Y469140D01*
X45025Y468043D01*
X44795Y467103D01*
Y466163D01*
X45025Y465223D01*
X45600Y464283D01*
X46290Y463657D01*
X47095Y463500D01*
X47900Y463813D01*
X48705Y464753D01*
G54D11*
X49150Y68000D03*
X72150Y68100D03*
X82200Y71000D03*
X79000Y5100D03*
Y8300D03*
X54000Y67000D03*
X59000D03*
X54000Y60000D03*
X59000D03*
X54000Y53000D03*
X59000D03*
X65000D03*
X72000D03*
X54000Y45000D03*
X59000D03*
X78000Y49000D03*
X70000Y5000D03*
X59000D03*
X49000D03*
Y14000D03*
X59000D03*
X70000D03*
X49000Y23000D03*
Y33000D03*
X37000Y22000D03*
Y32000D03*
Y5000D03*
X44000Y39000D03*
X38000Y43000D03*
X65000Y31800D03*
X70100D03*
X79600Y22900D03*
X79400Y18400D03*
X79800Y27600D03*
X79900Y32300D03*
X82500Y40300D03*
X79600D03*
X78300Y58000D03*
X80200Y52200D03*
X76900Y52400D03*
X82300Y58000D03*
X76850Y157150D03*
X75200Y170200D03*
X64100Y172400D03*
X69150Y147650D03*
X80300Y146000D03*
X80400Y141000D03*
X71600Y139400D03*
X52500Y125000D03*
X42600Y131500D03*
Y118300D03*
X56900Y118400D03*
X63500Y125800D03*
X67000D03*
X78400Y78400D03*
X54600Y78200D03*
X42100Y79100D03*
X43300Y88785D03*
X42915Y110185D03*
X43100Y106185D03*
X44015Y138015D03*
X57985D03*
X61500Y115100D03*
X36700Y191300D03*
X32000Y186000D03*
X24000D03*
X34000Y109000D03*
Y99000D03*
X46000Y102000D03*
Y98000D03*
X47000Y116000D03*
X35000Y79000D03*
Y88000D03*
X38100Y160200D03*
X43800Y153300D03*
X57000Y159900D03*
X48600Y160000D03*
X51900Y93600D03*
X62700Y117400D03*
X61500Y85500D03*
X58544Y85655D03*
X73100Y177400D03*
X67200Y160700D03*
X64200Y160900D03*
X81300Y99535D03*
X54400Y141700D03*
X85000Y125800D03*
X37400Y142500D03*
X48050Y153050D03*
X77600Y187200D03*
X84700D03*
X73600Y74300D03*
X65700Y81800D03*
X63900Y79200D03*
X67900Y83600D03*
X68700Y86500D03*
X77500Y123385D03*
X58100Y78200D03*
X73600Y78400D03*
X46900Y79100D03*
X48200Y112500D03*
X72500Y90400D03*
X74850Y147400D03*
X80183Y180400D03*
X76000Y212000D03*
X67000D03*
X58000D03*
X49000D03*
X39000D03*
X29000D03*
X70000Y196800D03*
X61000D03*
X52000D03*
X42700D03*
X24000Y195000D03*
X39000Y204100D03*
X49000D03*
X58000D03*
X67000Y204000D03*
X82600Y200200D03*
X75100D03*
X122400Y46600D03*
X104500Y36100D03*
X95500Y21600D03*
X100550Y23150D03*
X119118Y19500D03*
X94900Y61984D03*
X121540Y53610D03*
Y60516D03*
Y67890D03*
X128420Y53610D03*
X104000Y45000D03*
Y41000D03*
X116000Y27000D03*
Y36000D03*
X123000D03*
Y27000D03*
X134000Y3000D03*
Y12000D03*
Y20000D03*
X135000Y36000D03*
Y45000D03*
X158000Y56000D03*
Y66000D03*
X90000Y5000D03*
Y9000D03*
X95000Y17000D03*
Y11000D03*
X85900Y66500D03*
X92800Y34700D03*
Y37900D03*
X92700Y41400D03*
X85900Y62800D03*
X133500Y65200D03*
Y70300D03*
X121647Y58047D03*
X126720Y70300D03*
X94900Y67890D03*
X96920Y164280D03*
X143300Y173800D03*
X138150Y176550D03*
X143300Y186200D03*
X156153Y185953D03*
X134500Y179600D03*
X156700Y177700D03*
X138700Y167700D03*
X140900Y156000D03*
X154900Y147600D03*
X134500Y152700D03*
X154700Y169900D03*
X128700Y187300D03*
X154300Y164600D03*
X128300Y148500D03*
X123400Y140000D03*
X103900Y148600D03*
X128300Y129600D03*
X130100Y115100D03*
X87300Y187200D03*
X144100Y144400D03*
X86400Y114200D03*
X85370Y86230D03*
X114600Y87700D03*
X139000Y131250D03*
X103300Y129100D03*
X108500D03*
X86800Y105500D03*
X112700Y157300D03*
X116600Y157500D03*
X120100Y157400D03*
Y160600D03*
X116600Y160700D03*
X112700Y160500D03*
X120100Y163900D03*
X116600Y164000D03*
X112700Y163800D03*
X120200Y167000D03*
X116700Y167100D03*
X112800Y166900D03*
X116400Y190300D03*
X117700Y188000D03*
X125500Y183100D03*
X132200Y190600D03*
X175100Y186200D03*
X175000Y191000D03*
X167500D03*
X151000Y129000D03*
X163000Y145000D03*
Y138000D03*
Y131000D03*
Y124000D03*
X155000Y138000D03*
X161000Y156000D03*
Y162000D03*
Y168000D03*
Y181000D03*
X162700Y81100D03*
X162500Y94100D03*
X162700Y103600D03*
X159700Y191000D03*
X134000Y106200D03*
X134900Y164700D03*
X136000Y140500D03*
X141000Y121100D03*
X133300D03*
X89100Y133100D03*
X91400Y136000D03*
X106550Y167350D03*
X85370Y90500D03*
X123100Y158800D03*
X125800Y121000D03*
X125500Y162700D03*
X128300Y126900D03*
X123000Y162700D03*
X133200Y124800D03*
X92200Y159300D03*
X85370Y94500D03*
X91500Y164400D03*
X106700Y159700D03*
X107000Y116300D03*
X99700Y76000D03*
X108800Y158000D03*
Y114000D03*
X106000Y177700D03*
X111200Y182800D03*
X158700Y120000D03*
X164100Y117700D03*
X161100Y112600D03*
X158000Y112400D03*
X132600Y185500D03*
X163000Y177900D03*
X134800Y170000D03*
X123000Y165500D03*
X125200Y166900D03*
X101850Y104500D03*
X105000Y120300D03*
X121800Y147000D03*
X127100Y140600D03*
X99100Y133400D03*
X134700Y155200D03*
X94700Y154800D03*
X120500Y128000D03*
X106600Y162500D03*
X137800Y172900D03*
X126720Y74800D03*
X104350Y141650D03*
X106500Y185800D03*
X109100Y185900D03*
X109050Y169950D03*
X152900Y120000D03*
X151100Y114200D03*
X153800Y106200D03*
X146800Y144500D03*
X138200Y189300D03*
X133400Y74800D03*
X94150Y164400D03*
X127800Y180700D03*
X147500Y172800D03*
X106600Y165000D03*
X90070Y90500D03*
X96000Y171100D03*
X99200Y120000D03*
X92200Y124200D03*
X86500Y111700D03*
Y102385D03*
X90070Y86230D03*
X94900Y76000D03*
Y72000D03*
X89600Y124200D03*
X125500Y158800D03*
X124500Y127000D03*
X110600Y120500D03*
X122700Y78600D03*
X130800Y84000D03*
X120500Y140300D03*
X90774Y199500D03*
X144100Y211400D03*
X148600Y212300D03*
X139000Y209200D03*
X123700Y195400D03*
X126400Y198200D03*
X127100Y206000D03*
X119700Y196300D03*
X135100Y193400D03*
X138800Y197100D03*
X143000Y200200D03*
X153400Y202800D03*
X153300Y212800D03*
X135600Y206700D03*
X125000Y212000D03*
X114000D03*
X104000D03*
X95000D03*
X86000D03*
X106900Y194200D03*
X109400Y195300D03*
X96200Y199900D03*
X104000Y202000D03*
X114000D03*
X153300Y193000D03*
Y197900D03*
X146700Y192900D03*
X148400Y202300D03*
X129400Y201300D03*
X130300Y209000D03*
X106600Y191400D03*
X103900D03*
X101600Y193400D03*
X96400Y194400D03*
G54D12*
X46819Y187000D03*
Y182000D03*
Y177000D03*
Y172000D03*
Y167000D03*
X54181Y187000D03*
Y182000D03*
Y177000D03*
Y172000D03*
Y167000D03*
G54D13*
X63920Y103900D03*
Y108900D03*
X58920D03*
Y103900D03*
Y98900D03*
X63920D03*
X68920D03*
Y108800D03*
X74500Y108600D03*
X63920Y93900D03*
X58920D03*
X68920D03*
X74300D03*
X68920Y103885D03*
X66400Y101385D03*
X74400Y103785D03*
X74300Y98785D03*
X108220Y61000D03*
Y66000D03*
X103220D03*
Y61000D03*
Y56000D03*
X108220D03*
X113220D03*
Y61000D03*
Y66000D03*
G54D14*
X126992Y4858D03*
X101008D03*
G54D15*
X107631Y45369D03*
X114464Y24000D03*
X107631Y41881D03*
X110976Y24000D03*
X144000Y181000D03*
X116900Y177900D03*
X116500Y193900D03*
G54D16*
G01X-46000Y421000D02*
G02X-38500Y428500I8750J-1250D01*
G01Y406000D02*
G02X-46000Y413500I1250J8750D01*
G01X-51000Y411000D02*
G03X-41000Y401000I13750J3750D01*
G01X-51000Y411000D02*
Y473500D01*
G01X-41000Y401000D02*
X269000D01*
G01X-46000Y413500D02*
Y421000D01*
G01X79000Y406000D02*
X-38500D01*
G01X79000Y428500D02*
X-38500D01*
G01X-46000Y446000D02*
G02X-38500Y453500I8750J-1250D01*
G01Y431000D02*
G02X-46000Y438500I1250J8750D01*
G01Y446000D02*
Y438500D01*
G01X-51000Y473500D02*
G02X-41000Y483500I13750J-3750D01*
G01D02*
X269000D01*
G01X266500Y453500D02*
X-38500D01*
G01X266500Y431000D02*
X-38500D01*
G01X86500Y413500D02*
G02X79000Y406000I-8750J1250D01*
G01X86500Y421000D02*
G03X79000Y428500I-8750J-1250D01*
G01X99000D02*
X266500D01*
G01X91500Y413500D02*
G03X99000Y406000I8750J1250D01*
G01X91500Y421000D02*
G02X99000Y428500I8750J-1250D01*
G01Y406000D02*
X266500D01*
G01X91500Y421000D02*
Y413500D01*
G01X86500Y421000D02*
Y413500D01*
G01X126500Y456000D02*
G02X119000Y463500I1250J8750D01*
G01Y471000D01*
G02X126500Y478500I8750J-1250D01*
G01Y456000D02*
X266500D01*
G01X126500Y478500D02*
X266500D01*
G01X274000Y421000D02*
G03X266500Y428500I-8750J-1250D01*
G01X274000Y413500D02*
G02X266500Y406000I-8750J1250D01*
G01X274000Y421000D02*
Y413500D01*
G01X269000Y401000D02*
G03X279000Y411000I-3750J13750D01*
G01D02*
Y473500D01*
G01X274000Y446000D02*
Y438500D01*
G01D02*
G02X266500Y431000I-8750J1250D01*
G01X274000Y446000D02*
G03X266500Y453500I-8750J-1250D01*
G01Y456000D02*
G03X274000Y463500I-1250J8750D01*
G01Y471000D01*
G03X266500Y478500I-8750J-1250D01*
G01X279000Y473500D02*
G03X269000Y483500I-13750J-3750D01*
G54D17*
G01X53000Y172000D02*
X58628D01*
G01X53000D02*
X58628Y174224D01*
G01X53000Y177000D02*
X58628D01*
G01X53000D02*
X58628Y179224D01*
G01X53000Y182000D02*
X58628D01*
G01X53000D02*
X58628Y184224D01*
G01X53000Y187000D02*
X58628Y190266D01*
G01X53000Y187000D02*
Y190266D01*
G01X24688Y145058D02*
X27685Y148055D01*
G01D02*
X30682Y145058D01*
G01X168003Y25058D02*
X171000Y28055D01*
G01D02*
X173997Y31052D01*
G01X168003D02*
X171000Y28055D01*
G01D02*
X173997Y25058D01*
G01X148003Y56003D02*
X151000Y59000D01*
G01D02*
X153997Y61997D01*
G01X148003D02*
X151000Y59000D01*
G01D02*
X153997Y56003D01*
G54D18*
G01X20685Y215685D02*
Y-850D01*
X178165D01*
Y215685D01*
X20685D01*
G01X137300Y463500D02*
Y461000D01*
G01X136927Y462667D02*
X137673D01*
G01X139500Y461000D02*
X139340Y461042D01*
X139180Y461208D01*
X139073Y461500D01*
X139020Y461833D01*
X139073Y462167D01*
X139180Y462458D01*
X139340Y462625D01*
X139500Y462667D01*
X139660Y462625D01*
X139820Y462458D01*
X139927Y462167D01*
X139953Y461833D01*
X139927Y461500D01*
X139820Y461208D01*
X139660Y461042D01*
X139500Y461000D01*
G01X143900D02*
X143740Y461042D01*
X143580Y461208D01*
X143473Y461500D01*
X143420Y461833D01*
X143473Y462167D01*
X143580Y462458D01*
X143740Y462625D01*
X143900Y462667D01*
X144060Y462625D01*
X144220Y462458D01*
X144327Y462167D01*
X144353Y461833D01*
X144327Y461500D01*
X144220Y461208D01*
X144060Y461042D01*
X143900Y461000D01*
G01X146100Y463500D02*
Y461000D01*
G01X145727Y462667D02*
X146473D01*
G01X147847Y461000D02*
Y463500D01*
G01Y462292D02*
X147980Y462500D01*
X148113Y462625D01*
X148327Y462667D01*
X148487Y462625D01*
X148673Y462458D01*
X148753Y462208D01*
Y461000D01*
G01X150100Y462125D02*
X150953D01*
X150873Y462417D01*
X150740Y462583D01*
X150553Y462667D01*
X150367Y462625D01*
X150207Y462500D01*
X150100Y462208D01*
X150047Y461958D01*
Y461708D01*
X150100Y461458D01*
X150233Y461208D01*
X150393Y461042D01*
X150580Y461000D01*
X150767Y461083D01*
X150953Y461333D01*
G01X152327Y461000D02*
Y462667D01*
G01Y462333D02*
X152460Y462500D01*
X152593Y462625D01*
X152780Y462667D01*
X152913Y462625D01*
X153073Y462500D01*
G01X154500Y461292D02*
X154633Y461125D01*
X154820Y461000D01*
X154980D01*
X155140Y461083D01*
X155247Y461208D01*
X155300Y461375D01*
X155273Y461625D01*
X155167Y461750D01*
X154687Y462000D01*
X154580Y462292D01*
X154633Y462500D01*
X154740Y462625D01*
X154900Y462667D01*
X155060Y462625D01*
X155220Y462500D01*
G01X158633Y462667D02*
X158953Y461000D01*
X159300Y462667D01*
X159647Y461000D01*
X159967Y462667D01*
G01X161500D02*
Y461000D01*
G01Y463333D02*
X161447Y463375D01*
Y463458D01*
X161500Y463500D01*
X161553Y463458D01*
Y463375D01*
X161500Y463333D01*
G01X163700Y463500D02*
Y461000D01*
G01X163327Y462667D02*
X164073D01*
G01X165447Y461000D02*
Y463500D01*
G01Y462292D02*
X165580Y462500D01*
X165713Y462625D01*
X165927Y462667D01*
X166087Y462625D01*
X166273Y462458D01*
X166353Y462208D01*
Y461000D01*
G01X168100D02*
X167940Y461042D01*
X167780Y461208D01*
X167673Y461500D01*
X167620Y461833D01*
X167673Y462167D01*
X167780Y462458D01*
X167940Y462625D01*
X168100Y462667D01*
X168260Y462625D01*
X168420Y462458D01*
X168527Y462167D01*
X168553Y461833D01*
X168527Y461500D01*
X168420Y461208D01*
X168260Y461042D01*
X168100Y461000D01*
G01X169847Y462667D02*
Y461500D01*
X169953Y461208D01*
X170113Y461042D01*
X170300Y461000D01*
X170487Y461042D01*
X170647Y461208D01*
X170753Y461500D01*
G01Y461000D02*
Y462667D01*
G01X172500Y463500D02*
Y461000D01*
G01X172127Y462667D02*
X172873D01*
G01X176500Y461292D02*
X176633Y461125D01*
X176820Y461000D01*
X176980D01*
X177140Y461083D01*
X177247Y461208D01*
X177300Y461375D01*
X177273Y461625D01*
X177167Y461750D01*
X176687Y462000D01*
X176580Y462292D01*
X176633Y462500D01*
X176740Y462625D01*
X176900Y462667D01*
X177060Y462625D01*
X177220Y462500D01*
G01X178620Y460167D02*
Y462667D01*
G01Y462292D02*
X178753Y462500D01*
X178887Y462625D01*
X179100Y462667D01*
X179287Y462625D01*
X179473Y462417D01*
X179553Y462125D01*
X179580Y461833D01*
X179553Y461542D01*
X179473Y461250D01*
X179313Y461083D01*
X179100Y461000D01*
X178913Y461042D01*
X178727Y461167D01*
X178620Y461333D01*
G01X180900Y462125D02*
X181753D01*
X181673Y462417D01*
X181540Y462583D01*
X181353Y462667D01*
X181167Y462625D01*
X181007Y462500D01*
X180900Y462208D01*
X180847Y461958D01*
Y461708D01*
X180900Y461458D01*
X181033Y461208D01*
X181193Y461042D01*
X181380Y461000D01*
X181567Y461083D01*
X181753Y461333D01*
G01X183927Y462458D02*
X183740Y462625D01*
X183580Y462667D01*
X183367Y462583D01*
X183207Y462417D01*
X183100Y462125D01*
X183073Y461833D01*
X183100Y461542D01*
X183207Y461292D01*
X183367Y461083D01*
X183580Y461000D01*
X183767Y461083D01*
X183927Y461250D01*
G01X185700Y462667D02*
Y461000D01*
G01Y463333D02*
X185647Y463375D01*
Y463458D01*
X185700Y463500D01*
X185753Y463458D01*
Y463375D01*
X185700Y463333D01*
G01X187740Y461000D02*
Y463125D01*
X187793Y463333D01*
X187900Y463458D01*
X188060Y463500D01*
X188220Y463417D01*
X188300Y463208D01*
G01X187980Y462500D02*
X187447D01*
G01X190100Y462667D02*
Y461000D01*
G01Y463333D02*
X190047Y463375D01*
Y463458D01*
X190100Y463500D01*
X190153Y463458D01*
Y463375D01*
X190100Y463333D01*
G01X192727Y462458D02*
X192540Y462625D01*
X192380Y462667D01*
X192167Y462583D01*
X192007Y462417D01*
X191900Y462125D01*
X191873Y461833D01*
X191900Y461542D01*
X192007Y461292D01*
X192167Y461083D01*
X192380Y461000D01*
X192567Y461083D01*
X192727Y461250D01*
G01X196033Y462667D02*
X196353Y461000D01*
X196700Y462667D01*
X197047Y461000D01*
X197367Y462667D01*
G01X198527Y461000D02*
Y462667D01*
G01Y462333D02*
X198660Y462500D01*
X198793Y462625D01*
X198980Y462667D01*
X199113Y462625D01*
X199273Y462500D01*
G01X201100Y462667D02*
Y461000D01*
G01Y463333D02*
X201047Y463375D01*
Y463458D01*
X201100Y463500D01*
X201153Y463458D01*
Y463375D01*
X201100Y463333D01*
G01X203300Y463500D02*
Y461000D01*
G01X202927Y462667D02*
X203673D01*
G01X205500Y463500D02*
Y461000D01*
G01X205127Y462667D02*
X205873D01*
G01X207300Y462125D02*
X208153D01*
X208073Y462417D01*
X207940Y462583D01*
X207753Y462667D01*
X207567Y462625D01*
X207407Y462500D01*
X207300Y462208D01*
X207247Y461958D01*
Y461708D01*
X207300Y461458D01*
X207433Y461208D01*
X207593Y461042D01*
X207780Y461000D01*
X207967Y461083D01*
X208153Y461333D01*
G01X209447Y461000D02*
Y462667D01*
G01Y462250D02*
X209553Y462458D01*
X209713Y462625D01*
X209927Y462667D01*
X210113Y462625D01*
X210273Y462458D01*
X210353Y462167D01*
Y461000D01*
G01X213820Y460167D02*
Y462667D01*
G01Y462292D02*
X213953Y462500D01*
X214087Y462625D01*
X214300Y462667D01*
X214487Y462625D01*
X214673Y462417D01*
X214753Y462125D01*
X214780Y461833D01*
X214753Y461542D01*
X214673Y461250D01*
X214513Y461083D01*
X214300Y461000D01*
X214113Y461042D01*
X213927Y461167D01*
X213820Y461333D01*
G01X216100Y462125D02*
X216953D01*
X216873Y462417D01*
X216740Y462583D01*
X216553Y462667D01*
X216367Y462625D01*
X216207Y462500D01*
X216100Y462208D01*
X216047Y461958D01*
Y461708D01*
X216100Y461458D01*
X216233Y461208D01*
X216393Y461042D01*
X216580Y461000D01*
X216767Y461083D01*
X216953Y461333D01*
G01X218327Y461000D02*
Y462667D01*
G01Y462333D02*
X218460Y462500D01*
X218593Y462625D01*
X218780Y462667D01*
X218913Y462625D01*
X219073Y462500D01*
G01X220100Y461000D02*
Y462667D01*
G01Y462208D02*
X220180Y462417D01*
X220313Y462583D01*
X220500Y462667D01*
X220687Y462583D01*
X220820Y462417D01*
X220900Y462208D01*
Y461000D01*
G01Y462208D02*
X220980Y462417D01*
X221113Y462583D01*
X221300Y462667D01*
X221487Y462583D01*
X221620Y462417D01*
X221700Y462167D01*
Y461000D01*
G01X223100Y462667D02*
Y461000D01*
G01Y463333D02*
X223047Y463375D01*
Y463458D01*
X223100Y463500D01*
X223153Y463458D01*
Y463375D01*
X223100Y463333D01*
G01X224900Y461292D02*
X225033Y461125D01*
X225220Y461000D01*
X225380D01*
X225540Y461083D01*
X225647Y461208D01*
X225700Y461375D01*
X225673Y461625D01*
X225567Y461750D01*
X225087Y462000D01*
X224980Y462292D01*
X225033Y462500D01*
X225140Y462625D01*
X225300Y462667D01*
X225460Y462625D01*
X225620Y462500D01*
G01X227100Y461292D02*
X227233Y461125D01*
X227420Y461000D01*
X227580D01*
X227740Y461083D01*
X227847Y461208D01*
X227900Y461375D01*
X227873Y461625D01*
X227767Y461750D01*
X227287Y462000D01*
X227180Y462292D01*
X227233Y462500D01*
X227340Y462625D01*
X227500Y462667D01*
X227660Y462625D01*
X227820Y462500D01*
G01X229700Y462667D02*
Y461000D01*
G01Y463333D02*
X229647Y463375D01*
Y463458D01*
X229700Y463500D01*
X229753Y463458D01*
Y463375D01*
X229700Y463333D01*
G01X231900Y461000D02*
X231740Y461042D01*
X231580Y461208D01*
X231473Y461500D01*
X231420Y461833D01*
X231473Y462167D01*
X231580Y462458D01*
X231740Y462625D01*
X231900Y462667D01*
X232060Y462625D01*
X232220Y462458D01*
X232327Y462167D01*
X232353Y461833D01*
X232327Y461500D01*
X232220Y461208D01*
X232060Y461042D01*
X231900Y461000D01*
G01X233647D02*
Y462667D01*
G01Y462250D02*
X233753Y462458D01*
X233913Y462625D01*
X234127Y462667D01*
X234313Y462625D01*
X234473Y462458D01*
X234553Y462167D01*
Y461000D01*
G01X238340D02*
Y463125D01*
X238393Y463333D01*
X238500Y463458D01*
X238660Y463500D01*
X238820Y463417D01*
X238900Y463208D01*
G01X238580Y462500D02*
X238047D01*
G01X240327Y461000D02*
Y462667D01*
G01Y462333D02*
X240460Y462500D01*
X240593Y462625D01*
X240780Y462667D01*
X240913Y462625D01*
X241073Y462500D01*
G01X242900Y461000D02*
X242740Y461042D01*
X242580Y461208D01*
X242473Y461500D01*
X242420Y461833D01*
X242473Y462167D01*
X242580Y462458D01*
X242740Y462625D01*
X242900Y462667D01*
X243060Y462625D01*
X243220Y462458D01*
X243327Y462167D01*
X243353Y461833D01*
X243327Y461500D01*
X243220Y461208D01*
X243060Y461042D01*
X242900Y461000D01*
G01X244300D02*
Y462667D01*
G01Y462208D02*
X244380Y462417D01*
X244513Y462583D01*
X244700Y462667D01*
X244887Y462583D01*
X245020Y462417D01*
X245100Y462208D01*
Y461000D01*
G01Y462208D02*
X245180Y462417D01*
X245313Y462583D01*
X245500Y462667D01*
X245687Y462583D01*
X245820Y462417D01*
X245900Y462167D01*
Y461000D01*
G01X249100Y462667D02*
X249900D01*
X249100Y461000D01*
X249900D01*
G01X251860Y462250D02*
X252393D01*
Y461500D01*
X252233Y461250D01*
X252047Y461083D01*
X251780Y461000D01*
X251513Y461083D01*
X251327Y461250D01*
X251167Y461500D01*
X251060Y461792D01*
X251007Y462125D01*
Y462417D01*
X251060Y462667D01*
X251167Y462958D01*
X251327Y463208D01*
X251487Y463375D01*
X251700Y463500D01*
X251887D01*
X252100Y463417D01*
X252260Y463250D01*
G01X253900Y461000D02*
Y463500D01*
G01X255647Y462667D02*
Y461500D01*
X255753Y461208D01*
X255913Y461042D01*
X256100Y461000D01*
X256287Y461042D01*
X256447Y461208D01*
X256553Y461500D01*
G01Y461000D02*
Y462667D01*
G01X257900Y462125D02*
X258753D01*
X258673Y462417D01*
X258540Y462583D01*
X258353Y462667D01*
X258167Y462625D01*
X258007Y462500D01*
X257900Y462208D01*
X257847Y461958D01*
Y461708D01*
X257900Y461458D01*
X258033Y461208D01*
X258193Y461042D01*
X258380Y461000D01*
X258567Y461083D01*
X258753Y461333D01*
G01X260500Y460917D02*
X260447Y460958D01*
Y461042D01*
X260500Y461083D01*
X260553Y461042D01*
Y460958D01*
X260500Y460917D01*
G01X137780Y466000D02*
Y467667D01*
G01Y467375D02*
X137673Y467542D01*
X137513Y467625D01*
X137327Y467667D01*
X137140Y467583D01*
X136980Y467417D01*
X136873Y467167D01*
X136820Y466833D01*
X136873Y466500D01*
X136980Y466250D01*
X137140Y466083D01*
X137327Y466000D01*
X137513Y466042D01*
X137673Y466167D01*
X137780Y466333D01*
G01X139047Y466000D02*
Y467667D01*
G01Y467250D02*
X139153Y467458D01*
X139313Y467625D01*
X139527Y467667D01*
X139713Y467625D01*
X139873Y467458D01*
X139953Y467167D01*
Y466000D01*
G01X142180Y468500D02*
Y466000D01*
G01Y466375D02*
X142073Y466167D01*
X141913Y466042D01*
X141727Y466000D01*
X141513Y466083D01*
X141353Y466292D01*
X141247Y466542D01*
X141220Y466833D01*
X141247Y467125D01*
X141353Y467375D01*
X141513Y467583D01*
X141727Y467667D01*
X141913Y467625D01*
X142047Y467542D01*
X142180Y467375D01*
G01X145700Y466292D02*
X145833Y466125D01*
X146020Y466000D01*
X146180D01*
X146340Y466083D01*
X146447Y466208D01*
X146500Y466375D01*
X146473Y466625D01*
X146367Y466750D01*
X145887Y467000D01*
X145780Y467292D01*
X145833Y467500D01*
X145940Y467625D01*
X146100Y467667D01*
X146260Y467625D01*
X146420Y467500D01*
G01X147847Y466000D02*
Y468500D01*
G01Y467292D02*
X147980Y467500D01*
X148113Y467625D01*
X148327Y467667D01*
X148487Y467625D01*
X148673Y467458D01*
X148753Y467208D01*
Y466000D01*
G01X150980D02*
Y467667D01*
G01Y467375D02*
X150873Y467542D01*
X150713Y467625D01*
X150527Y467667D01*
X150340Y467583D01*
X150180Y467417D01*
X150073Y467167D01*
X150020Y466833D01*
X150073Y466500D01*
X150180Y466250D01*
X150340Y466083D01*
X150527Y466000D01*
X150713Y466042D01*
X150873Y466167D01*
X150980Y466333D01*
G01X152700Y466000D02*
Y468500D01*
G01X154900Y466000D02*
Y468500D01*
G01X158847Y466000D02*
Y467667D01*
G01Y467250D02*
X158953Y467458D01*
X159113Y467625D01*
X159327Y467667D01*
X159513Y467625D01*
X159673Y467458D01*
X159753Y467167D01*
Y466000D01*
G01X161500D02*
X161340Y466042D01*
X161180Y466208D01*
X161073Y466500D01*
X161020Y466833D01*
X161073Y467167D01*
X161180Y467458D01*
X161340Y467625D01*
X161500Y467667D01*
X161660Y467625D01*
X161820Y467458D01*
X161927Y467167D01*
X161953Y466833D01*
X161927Y466500D01*
X161820Y466208D01*
X161660Y466042D01*
X161500Y466000D01*
G01X163700Y468500D02*
Y466000D01*
G01X163327Y467667D02*
X164073D01*
G01X167620Y466000D02*
Y468500D01*
G01Y467250D02*
X167753Y467500D01*
X167913Y467625D01*
X168073Y467667D01*
X168313Y467583D01*
X168473Y467417D01*
X168580Y467125D01*
Y466792D01*
X168527Y466458D01*
X168420Y466208D01*
X168233Y466042D01*
X168073Y466000D01*
X167913Y466042D01*
X167753Y466167D01*
X167620Y466375D01*
G01X169900Y467125D02*
X170753D01*
X170673Y467417D01*
X170540Y467583D01*
X170353Y467667D01*
X170167Y467625D01*
X170007Y467500D01*
X169900Y467208D01*
X169847Y466958D01*
Y466708D01*
X169900Y466458D01*
X170033Y466208D01*
X170193Y466042D01*
X170380Y466000D01*
X170567Y466083D01*
X170753Y466333D01*
G01X174327Y466000D02*
Y467667D01*
G01Y467333D02*
X174460Y467500D01*
X174593Y467625D01*
X174780Y467667D01*
X174913Y467625D01*
X175073Y467500D01*
G01X176500Y467125D02*
X177353D01*
X177273Y467417D01*
X177140Y467583D01*
X176953Y467667D01*
X176767Y467625D01*
X176607Y467500D01*
X176500Y467208D01*
X176447Y466958D01*
Y466708D01*
X176500Y466458D01*
X176633Y466208D01*
X176793Y466042D01*
X176980Y466000D01*
X177167Y466083D01*
X177353Y466333D01*
G01X178620Y465167D02*
Y467667D01*
G01Y467292D02*
X178753Y467500D01*
X178887Y467625D01*
X179100Y467667D01*
X179287Y467625D01*
X179473Y467417D01*
X179553Y467125D01*
X179580Y466833D01*
X179553Y466542D01*
X179473Y466250D01*
X179313Y466083D01*
X179100Y466000D01*
X178913Y466042D01*
X178727Y466167D01*
X178620Y466333D01*
G01X180927Y466000D02*
Y467667D01*
G01Y467333D02*
X181060Y467500D01*
X181193Y467625D01*
X181380Y467667D01*
X181513Y467625D01*
X181673Y467500D01*
G01X183500Y466000D02*
X183340Y466042D01*
X183180Y466208D01*
X183073Y466500D01*
X183020Y466833D01*
X183073Y467167D01*
X183180Y467458D01*
X183340Y467625D01*
X183500Y467667D01*
X183660Y467625D01*
X183820Y467458D01*
X183927Y467167D01*
X183953Y466833D01*
X183927Y466500D01*
X183820Y466208D01*
X183660Y466042D01*
X183500Y466000D01*
G01X186180Y468500D02*
Y466000D01*
G01Y466375D02*
X186073Y466167D01*
X185913Y466042D01*
X185727Y466000D01*
X185513Y466083D01*
X185353Y466292D01*
X185247Y466542D01*
X185220Y466833D01*
X185247Y467125D01*
X185353Y467375D01*
X185513Y467583D01*
X185727Y467667D01*
X185913Y467625D01*
X186047Y467542D01*
X186180Y467375D01*
G01X187447Y467667D02*
Y466500D01*
X187553Y466208D01*
X187713Y466042D01*
X187900Y466000D01*
X188087Y466042D01*
X188247Y466208D01*
X188353Y466500D01*
G01Y466000D02*
Y467667D01*
G01X190527Y467458D02*
X190340Y467625D01*
X190180Y467667D01*
X189967Y467583D01*
X189807Y467417D01*
X189700Y467125D01*
X189673Y466833D01*
X189700Y466542D01*
X189807Y466292D01*
X189967Y466083D01*
X190180Y466000D01*
X190367Y466083D01*
X190527Y466250D01*
G01X191900Y467125D02*
X192753D01*
X192673Y467417D01*
X192540Y467583D01*
X192353Y467667D01*
X192167Y467625D01*
X192007Y467500D01*
X191900Y467208D01*
X191847Y466958D01*
Y466708D01*
X191900Y466458D01*
X192033Y466208D01*
X192193Y466042D01*
X192380Y466000D01*
X192567Y466083D01*
X192753Y466333D01*
G01X194980Y468500D02*
Y466000D01*
G01Y466375D02*
X194873Y466167D01*
X194713Y466042D01*
X194527Y466000D01*
X194313Y466083D01*
X194153Y466292D01*
X194047Y466542D01*
X194020Y466833D01*
X194047Y467125D01*
X194153Y467375D01*
X194313Y467583D01*
X194527Y467667D01*
X194713Y467625D01*
X194847Y467542D01*
X194980Y467375D01*
G01X198233Y467667D02*
X198553Y466000D01*
X198900Y467667D01*
X199247Y466000D01*
X199567Y467667D01*
G01X200647Y466000D02*
Y468500D01*
G01Y467292D02*
X200780Y467500D01*
X200913Y467625D01*
X201127Y467667D01*
X201287Y467625D01*
X201473Y467458D01*
X201553Y467208D01*
Y466000D01*
G01X203300D02*
X203140Y466042D01*
X202980Y466208D01*
X202873Y466500D01*
X202820Y466833D01*
X202873Y467167D01*
X202980Y467458D01*
X203140Y467625D01*
X203300Y467667D01*
X203460Y467625D01*
X203620Y467458D01*
X203727Y467167D01*
X203753Y466833D01*
X203727Y466500D01*
X203620Y466208D01*
X203460Y466042D01*
X203300Y466000D01*
G01X205500D02*
Y468500D01*
G01X207700Y466000D02*
Y468500D01*
G01X209340Y465250D02*
X209500Y465167D01*
X209713Y465250D01*
X209847Y465417D01*
X209953Y465625D01*
X210113Y466292D01*
X210460Y467667D01*
G01X209607D02*
X210113Y466292D01*
G01X214300Y466000D02*
X214140Y466042D01*
X213980Y466208D01*
X213873Y466500D01*
X213820Y466833D01*
X213873Y467167D01*
X213980Y467458D01*
X214140Y467625D01*
X214300Y467667D01*
X214460Y467625D01*
X214620Y467458D01*
X214727Y467167D01*
X214753Y466833D01*
X214727Y466500D01*
X214620Y466208D01*
X214460Y466042D01*
X214300Y466000D01*
G01X216127D02*
Y467667D01*
G01Y467333D02*
X216260Y467500D01*
X216393Y467625D01*
X216580Y467667D01*
X216713Y467625D01*
X216873Y467500D01*
G01X220900Y467667D02*
Y466000D01*
G01Y468333D02*
X220847Y468375D01*
Y468458D01*
X220900Y468500D01*
X220953Y468458D01*
Y468375D01*
X220900Y468333D01*
G01X222647Y466000D02*
Y467667D01*
G01Y467250D02*
X222753Y467458D01*
X222913Y467625D01*
X223127Y467667D01*
X223313Y467625D01*
X223473Y467458D01*
X223553Y467167D01*
Y466000D01*
G01X227020Y465167D02*
Y467667D01*
G01Y467292D02*
X227153Y467500D01*
X227287Y467625D01*
X227500Y467667D01*
X227687Y467625D01*
X227873Y467417D01*
X227953Y467125D01*
X227980Y466833D01*
X227953Y466542D01*
X227873Y466250D01*
X227713Y466083D01*
X227500Y466000D01*
X227313Y466042D01*
X227127Y466167D01*
X227020Y466333D01*
G01X230180Y466000D02*
Y467667D01*
G01Y467375D02*
X230073Y467542D01*
X229913Y467625D01*
X229727Y467667D01*
X229540Y467583D01*
X229380Y467417D01*
X229273Y467167D01*
X229220Y466833D01*
X229273Y466500D01*
X229380Y466250D01*
X229540Y466083D01*
X229727Y466000D01*
X229913Y466042D01*
X230073Y466167D01*
X230180Y466333D01*
G01X231527Y466000D02*
Y467667D01*
G01Y467333D02*
X231660Y467500D01*
X231793Y467625D01*
X231980Y467667D01*
X232113Y467625D01*
X232273Y467500D01*
G01X234100Y468500D02*
Y466000D01*
G01X233727Y467667D02*
X234473D01*
G01X236247Y465542D02*
X236353Y466083D01*
G01X240247Y466000D02*
Y467667D01*
G01Y467250D02*
X240353Y467458D01*
X240513Y467625D01*
X240727Y467667D01*
X240913Y467625D01*
X241073Y467458D01*
X241153Y467167D01*
Y466000D01*
G01X242900D02*
X242740Y466042D01*
X242580Y466208D01*
X242473Y466500D01*
X242420Y466833D01*
X242473Y467167D01*
X242580Y467458D01*
X242740Y467625D01*
X242900Y467667D01*
X243060Y467625D01*
X243220Y467458D01*
X243327Y467167D01*
X243353Y466833D01*
X243327Y466500D01*
X243220Y466208D01*
X243060Y466042D01*
X242900Y466000D01*
G01X244727D02*
Y467667D01*
G01Y467333D02*
X244860Y467500D01*
X244993Y467625D01*
X245180Y467667D01*
X245313Y467625D01*
X245473Y467500D01*
G01X249980Y468500D02*
Y466000D01*
G01Y466375D02*
X249873Y466167D01*
X249713Y466042D01*
X249527Y466000D01*
X249313Y466083D01*
X249153Y466292D01*
X249047Y466542D01*
X249020Y466833D01*
X249047Y467125D01*
X249153Y467375D01*
X249313Y467583D01*
X249527Y467667D01*
X249713Y467625D01*
X249847Y467542D01*
X249980Y467375D01*
G01X251700Y467667D02*
Y466000D01*
G01Y468333D02*
X251647Y468375D01*
Y468458D01*
X251700Y468500D01*
X251753Y468458D01*
Y468375D01*
X251700Y468333D01*
G01X253500Y466292D02*
X253633Y466125D01*
X253820Y466000D01*
X253980D01*
X254140Y466083D01*
X254247Y466208D01*
X254300Y466375D01*
X254273Y466625D01*
X254167Y466750D01*
X253687Y467000D01*
X253580Y467292D01*
X253633Y467500D01*
X253740Y467625D01*
X253900Y467667D01*
X254060Y467625D01*
X254220Y467500D01*
G01X256527Y467458D02*
X256340Y467625D01*
X256180Y467667D01*
X255967Y467583D01*
X255807Y467417D01*
X255700Y467125D01*
X255673Y466833D01*
X255700Y466542D01*
X255807Y466292D01*
X255967Y466083D01*
X256180Y466000D01*
X256367Y466083D01*
X256527Y466250D01*
G01X258300Y466000D02*
Y468500D01*
G01X260500Y466000D02*
X260340Y466042D01*
X260180Y466208D01*
X260073Y466500D01*
X260020Y466833D01*
X260073Y467167D01*
X260180Y467458D01*
X260340Y467625D01*
X260500Y467667D01*
X260660Y467625D01*
X260820Y467458D01*
X260927Y467167D01*
X260953Y466833D01*
X260927Y466500D01*
X260820Y466208D01*
X260660Y466042D01*
X260500Y466000D01*
G01X262300Y466292D02*
X262433Y466125D01*
X262620Y466000D01*
X262780D01*
X262940Y466083D01*
X263047Y466208D01*
X263100Y466375D01*
X263073Y466625D01*
X262967Y466750D01*
X262487Y467000D01*
X262380Y467292D01*
X262433Y467500D01*
X262540Y467625D01*
X262700Y467667D01*
X262860Y467625D01*
X263020Y467500D01*
G01X264500Y467125D02*
X265353D01*
X265273Y467417D01*
X265140Y467583D01*
X264953Y467667D01*
X264767Y467625D01*
X264607Y467500D01*
X264500Y467208D01*
X264447Y466958D01*
Y466708D01*
X264500Y466458D01*
X264633Y466208D01*
X264793Y466042D01*
X264980Y466000D01*
X265167Y466083D01*
X265353Y466333D01*
G01X267580Y468500D02*
Y466000D01*
G01Y466375D02*
X267473Y466167D01*
X267313Y466042D01*
X267127Y466000D01*
X266913Y466083D01*
X266753Y466292D01*
X266647Y466542D01*
X266620Y466833D01*
X266647Y467125D01*
X266753Y467375D01*
X266913Y467583D01*
X267127Y467667D01*
X267313Y467625D01*
X267447Y467542D01*
X267580Y467375D01*
G01X137300Y473500D02*
Y471000D01*
G01X136687Y473500D02*
X137913D01*
G01X139047Y471000D02*
Y473500D01*
G01Y472292D02*
X139180Y472500D01*
X139313Y472625D01*
X139527Y472667D01*
X139687Y472625D01*
X139873Y472458D01*
X139953Y472208D01*
Y471000D01*
G01X141700Y472667D02*
Y471000D01*
G01Y473333D02*
X141647Y473375D01*
Y473458D01*
X141700Y473500D01*
X141753Y473458D01*
Y473375D01*
X141700Y473333D01*
G01X143500Y471292D02*
X143633Y471125D01*
X143820Y471000D01*
X143980D01*
X144140Y471083D01*
X144247Y471208D01*
X144300Y471375D01*
X144273Y471625D01*
X144167Y471750D01*
X143687Y472000D01*
X143580Y472292D01*
X143633Y472500D01*
X143740Y472625D01*
X143900Y472667D01*
X144060Y472625D01*
X144220Y472500D01*
G01X148780Y473500D02*
Y471000D01*
G01Y471375D02*
X148673Y471167D01*
X148513Y471042D01*
X148327Y471000D01*
X148113Y471083D01*
X147953Y471292D01*
X147847Y471542D01*
X147820Y471833D01*
X147847Y472125D01*
X147953Y472375D01*
X148113Y472583D01*
X148327Y472667D01*
X148513Y472625D01*
X148647Y472542D01*
X148780Y472375D01*
G01X150500Y471000D02*
X150340Y471042D01*
X150180Y471208D01*
X150073Y471500D01*
X150020Y471833D01*
X150073Y472167D01*
X150180Y472458D01*
X150340Y472625D01*
X150500Y472667D01*
X150660Y472625D01*
X150820Y472458D01*
X150927Y472167D01*
X150953Y471833D01*
X150927Y471500D01*
X150820Y471208D01*
X150660Y471042D01*
X150500Y471000D01*
G01X153127Y472458D02*
X152940Y472625D01*
X152780Y472667D01*
X152567Y472583D01*
X152407Y472417D01*
X152300Y472125D01*
X152273Y471833D01*
X152300Y471542D01*
X152407Y471292D01*
X152567Y471083D01*
X152780Y471000D01*
X152967Y471083D01*
X153127Y471250D01*
G01X154447Y472667D02*
Y471500D01*
X154553Y471208D01*
X154713Y471042D01*
X154900Y471000D01*
X155087Y471042D01*
X155247Y471208D01*
X155353Y471500D01*
G01Y471000D02*
Y472667D01*
G01X156300Y471000D02*
Y472667D01*
G01Y472208D02*
X156380Y472417D01*
X156513Y472583D01*
X156700Y472667D01*
X156887Y472583D01*
X157020Y472417D01*
X157100Y472208D01*
Y471000D01*
G01Y472208D02*
X157180Y472417D01*
X157313Y472583D01*
X157500Y472667D01*
X157687Y472583D01*
X157820Y472417D01*
X157900Y472167D01*
Y471000D01*
G01X158900Y472125D02*
X159753D01*
X159673Y472417D01*
X159540Y472583D01*
X159353Y472667D01*
X159167Y472625D01*
X159007Y472500D01*
X158900Y472208D01*
X158847Y471958D01*
Y471708D01*
X158900Y471458D01*
X159033Y471208D01*
X159193Y471042D01*
X159380Y471000D01*
X159567Y471083D01*
X159753Y471333D01*
G01X161047Y471000D02*
Y472667D01*
G01Y472250D02*
X161153Y472458D01*
X161313Y472625D01*
X161527Y472667D01*
X161713Y472625D01*
X161873Y472458D01*
X161953Y472167D01*
Y471000D01*
G01X163700Y473500D02*
Y471000D01*
G01X163327Y472667D02*
X164073D01*
G01X168527Y472458D02*
X168340Y472625D01*
X168180Y472667D01*
X167967Y472583D01*
X167807Y472417D01*
X167700Y472125D01*
X167673Y471833D01*
X167700Y471542D01*
X167807Y471292D01*
X167967Y471083D01*
X168180Y471000D01*
X168367Y471083D01*
X168527Y471250D01*
G01X170300Y471000D02*
X170140Y471042D01*
X169980Y471208D01*
X169873Y471500D01*
X169820Y471833D01*
X169873Y472167D01*
X169980Y472458D01*
X170140Y472625D01*
X170300Y472667D01*
X170460Y472625D01*
X170620Y472458D01*
X170727Y472167D01*
X170753Y471833D01*
X170727Y471500D01*
X170620Y471208D01*
X170460Y471042D01*
X170300Y471000D01*
G01X172047D02*
Y472667D01*
G01Y472250D02*
X172153Y472458D01*
X172313Y472625D01*
X172527Y472667D01*
X172713Y472625D01*
X172873Y472458D01*
X172953Y472167D01*
Y471000D01*
G01X174700Y473500D02*
Y471000D01*
G01X174327Y472667D02*
X175073D01*
G01X177380Y471000D02*
Y472667D01*
G01Y472375D02*
X177273Y472542D01*
X177113Y472625D01*
X176927Y472667D01*
X176740Y472583D01*
X176580Y472417D01*
X176473Y472167D01*
X176420Y471833D01*
X176473Y471500D01*
X176580Y471250D01*
X176740Y471083D01*
X176927Y471000D01*
X177113Y471042D01*
X177273Y471167D01*
X177380Y471333D01*
G01X179100Y472667D02*
Y471000D01*
G01Y473333D02*
X179047Y473375D01*
Y473458D01*
X179100Y473500D01*
X179153Y473458D01*
Y473375D01*
X179100Y473333D01*
G01X180847Y471000D02*
Y472667D01*
G01Y472250D02*
X180953Y472458D01*
X181113Y472625D01*
X181327Y472667D01*
X181513Y472625D01*
X181673Y472458D01*
X181753Y472167D01*
Y471000D01*
G01X183100Y471292D02*
X183233Y471125D01*
X183420Y471000D01*
X183580D01*
X183740Y471083D01*
X183847Y471208D01*
X183900Y471375D01*
X183873Y471625D01*
X183767Y471750D01*
X183287Y472000D01*
X183180Y472292D01*
X183233Y472500D01*
X183340Y472625D01*
X183500Y472667D01*
X183660Y472625D01*
X183820Y472500D01*
G01X187900Y472667D02*
Y471000D01*
G01Y473333D02*
X187847Y473375D01*
Y473458D01*
X187900Y473500D01*
X187953Y473458D01*
Y473375D01*
X187900Y473333D01*
G01X189647Y471000D02*
Y472667D01*
G01Y472250D02*
X189753Y472458D01*
X189913Y472625D01*
X190127Y472667D01*
X190313Y472625D01*
X190473Y472458D01*
X190553Y472167D01*
Y471000D01*
G01X192140D02*
Y473125D01*
X192193Y473333D01*
X192300Y473458D01*
X192460Y473500D01*
X192620Y473417D01*
X192700Y473208D01*
G01X192380Y472500D02*
X191847D01*
G01X194500Y471000D02*
X194340Y471042D01*
X194180Y471208D01*
X194073Y471500D01*
X194020Y471833D01*
X194073Y472167D01*
X194180Y472458D01*
X194340Y472625D01*
X194500Y472667D01*
X194660Y472625D01*
X194820Y472458D01*
X194927Y472167D01*
X194953Y471833D01*
X194927Y471500D01*
X194820Y471208D01*
X194660Y471042D01*
X194500Y471000D01*
G01X196327D02*
Y472667D01*
G01Y472333D02*
X196460Y472500D01*
X196593Y472625D01*
X196780Y472667D01*
X196913Y472625D01*
X197073Y472500D01*
G01X198100Y471000D02*
Y472667D01*
G01Y472208D02*
X198180Y472417D01*
X198313Y472583D01*
X198500Y472667D01*
X198687Y472583D01*
X198820Y472417D01*
X198900Y472208D01*
Y471000D01*
G01Y472208D02*
X198980Y472417D01*
X199113Y472583D01*
X199300Y472667D01*
X199487Y472583D01*
X199620Y472417D01*
X199700Y472167D01*
Y471000D01*
G01X201580D02*
Y472667D01*
G01Y472375D02*
X201473Y472542D01*
X201313Y472625D01*
X201127Y472667D01*
X200940Y472583D01*
X200780Y472417D01*
X200673Y472167D01*
X200620Y471833D01*
X200673Y471500D01*
X200780Y471250D01*
X200940Y471083D01*
X201127Y471000D01*
X201313Y471042D01*
X201473Y471167D01*
X201580Y471333D01*
G01X203300Y473500D02*
Y471000D01*
G01X202927Y472667D02*
X203673D01*
G01X205500D02*
Y471000D01*
G01Y473333D02*
X205447Y473375D01*
Y473458D01*
X205500Y473500D01*
X205553Y473458D01*
Y473375D01*
X205500Y473333D01*
G01X207700Y471000D02*
X207540Y471042D01*
X207380Y471208D01*
X207273Y471500D01*
X207220Y471833D01*
X207273Y472167D01*
X207380Y472458D01*
X207540Y472625D01*
X207700Y472667D01*
X207860Y472625D01*
X208020Y472458D01*
X208127Y472167D01*
X208153Y471833D01*
X208127Y471500D01*
X208020Y471208D01*
X207860Y471042D01*
X207700Y471000D01*
G01X209447D02*
Y472667D01*
G01Y472250D02*
X209553Y472458D01*
X209713Y472625D01*
X209927Y472667D01*
X210113Y472625D01*
X210273Y472458D01*
X210353Y472167D01*
Y471000D01*
G01X214727Y472458D02*
X214540Y472625D01*
X214380Y472667D01*
X214167Y472583D01*
X214007Y472417D01*
X213900Y472125D01*
X213873Y471833D01*
X213900Y471542D01*
X214007Y471292D01*
X214167Y471083D01*
X214380Y471000D01*
X214567Y471083D01*
X214727Y471250D01*
G01X216500Y471000D02*
X216340Y471042D01*
X216180Y471208D01*
X216073Y471500D01*
X216020Y471833D01*
X216073Y472167D01*
X216180Y472458D01*
X216340Y472625D01*
X216500Y472667D01*
X216660Y472625D01*
X216820Y472458D01*
X216927Y472167D01*
X216953Y471833D01*
X216927Y471500D01*
X216820Y471208D01*
X216660Y471042D01*
X216500Y471000D01*
G01X218247D02*
Y472667D01*
G01Y472250D02*
X218353Y472458D01*
X218513Y472625D01*
X218727Y472667D01*
X218913Y472625D01*
X219073Y472458D01*
X219153Y472167D01*
Y471000D01*
G01X220500Y471292D02*
X220633Y471125D01*
X220820Y471000D01*
X220980D01*
X221140Y471083D01*
X221247Y471208D01*
X221300Y471375D01*
X221273Y471625D01*
X221167Y471750D01*
X220687Y472000D01*
X220580Y472292D01*
X220633Y472500D01*
X220740Y472625D01*
X220900Y472667D01*
X221060Y472625D01*
X221220Y472500D01*
G01X223100Y472667D02*
Y471000D01*
G01Y473333D02*
X223047Y473375D01*
Y473458D01*
X223100Y473500D01*
X223153Y473458D01*
Y473375D01*
X223100Y473333D01*
G01X225780Y473500D02*
Y471000D01*
G01Y471375D02*
X225673Y471167D01*
X225513Y471042D01*
X225327Y471000D01*
X225113Y471083D01*
X224953Y471292D01*
X224847Y471542D01*
X224820Y471833D01*
X224847Y472125D01*
X224953Y472375D01*
X225113Y472583D01*
X225327Y472667D01*
X225513Y472625D01*
X225647Y472542D01*
X225780Y472375D01*
G01X227100Y472125D02*
X227953D01*
X227873Y472417D01*
X227740Y472583D01*
X227553Y472667D01*
X227367Y472625D01*
X227207Y472500D01*
X227100Y472208D01*
X227047Y471958D01*
Y471708D01*
X227100Y471458D01*
X227233Y471208D01*
X227393Y471042D01*
X227580Y471000D01*
X227767Y471083D01*
X227953Y471333D01*
G01X229327Y471000D02*
Y472667D01*
G01Y472333D02*
X229460Y472500D01*
X229593Y472625D01*
X229780Y472667D01*
X229913Y472625D01*
X230073Y472500D01*
G01X231500Y472125D02*
X232353D01*
X232273Y472417D01*
X232140Y472583D01*
X231953Y472667D01*
X231767Y472625D01*
X231607Y472500D01*
X231500Y472208D01*
X231447Y471958D01*
Y471708D01*
X231500Y471458D01*
X231633Y471208D01*
X231793Y471042D01*
X231980Y471000D01*
X232167Y471083D01*
X232353Y471333D01*
G01X234580Y473500D02*
Y471000D01*
G01Y471375D02*
X234473Y471167D01*
X234313Y471042D01*
X234127Y471000D01*
X233913Y471083D01*
X233753Y471292D01*
X233647Y471542D01*
X233620Y471833D01*
X233647Y472125D01*
X233753Y472375D01*
X233913Y472583D01*
X234127Y472667D01*
X234313Y472625D01*
X234447Y472542D01*
X234580Y472375D01*
G01X238020Y470167D02*
Y472667D01*
G01Y472292D02*
X238153Y472500D01*
X238287Y472625D01*
X238500Y472667D01*
X238687Y472625D01*
X238873Y472417D01*
X238953Y472125D01*
X238980Y471833D01*
X238953Y471542D01*
X238873Y471250D01*
X238713Y471083D01*
X238500Y471000D01*
X238313Y471042D01*
X238127Y471167D01*
X238020Y471333D01*
G01X240327Y471000D02*
Y472667D01*
G01Y472333D02*
X240460Y472500D01*
X240593Y472625D01*
X240780Y472667D01*
X240913Y472625D01*
X241073Y472500D01*
G01X242900Y471000D02*
X242740Y471042D01*
X242580Y471208D01*
X242473Y471500D01*
X242420Y471833D01*
X242473Y472167D01*
X242580Y472458D01*
X242740Y472625D01*
X242900Y472667D01*
X243060Y472625D01*
X243220Y472458D01*
X243327Y472167D01*
X243353Y471833D01*
X243327Y471500D01*
X243220Y471208D01*
X243060Y471042D01*
X242900Y471000D01*
G01X244620Y470167D02*
Y472667D01*
G01Y472292D02*
X244753Y472500D01*
X244887Y472625D01*
X245100Y472667D01*
X245287Y472625D01*
X245473Y472417D01*
X245553Y472125D01*
X245580Y471833D01*
X245553Y471542D01*
X245473Y471250D01*
X245313Y471083D01*
X245100Y471000D01*
X244913Y471042D01*
X244727Y471167D01*
X244620Y471333D01*
G01X246927Y471000D02*
Y472667D01*
G01Y472333D02*
X247060Y472500D01*
X247193Y472625D01*
X247380Y472667D01*
X247513Y472625D01*
X247673Y472500D01*
G01X249500Y472667D02*
Y471000D01*
G01Y473333D02*
X249447Y473375D01*
Y473458D01*
X249500Y473500D01*
X249553Y473458D01*
Y473375D01*
X249500Y473333D01*
G01X251300Y472125D02*
X252153D01*
X252073Y472417D01*
X251940Y472583D01*
X251753Y472667D01*
X251567Y472625D01*
X251407Y472500D01*
X251300Y472208D01*
X251247Y471958D01*
Y471708D01*
X251300Y471458D01*
X251433Y471208D01*
X251593Y471042D01*
X251780Y471000D01*
X251967Y471083D01*
X252153Y471333D01*
G01X253900Y473500D02*
Y471000D01*
G01X253527Y472667D02*
X254273D01*
G01X256580Y471000D02*
Y472667D01*
G01Y472375D02*
X256473Y472542D01*
X256313Y472625D01*
X256127Y472667D01*
X255940Y472583D01*
X255780Y472417D01*
X255673Y472167D01*
X255620Y471833D01*
X255673Y471500D01*
X255780Y471250D01*
X255940Y471083D01*
X256127Y471000D01*
X256313Y471042D01*
X256473Y471167D01*
X256580Y471333D01*
G01X257927Y471000D02*
Y472667D01*
G01Y472333D02*
X258060Y472500D01*
X258193Y472625D01*
X258380Y472667D01*
X258513Y472625D01*
X258673Y472500D01*
G01X259940Y470250D02*
X260100Y470167D01*
X260313Y470250D01*
X260447Y470417D01*
X260553Y470625D01*
X260713Y471292D01*
X261060Y472667D01*
G01X260207D02*
X260713Y471292D01*
G01X262647Y470542D02*
X262753Y471083D01*
G54D19*
G01X-37753Y413500D02*
Y421000D01*
X-35887D01*
X-35140Y420625D01*
X-34580Y420125D01*
X-34113Y419375D01*
X-33740Y418500D01*
X-33647Y417250D01*
X-33740Y416000D01*
X-34113Y415125D01*
X-34580Y414375D01*
X-35140Y413875D01*
X-35887Y413500D01*
X-37753D01*
G01X-30533D02*
X-28200Y421000D01*
X-25867Y413500D01*
G01X-26707Y416125D02*
X-29693D01*
G01X-20700Y421000D02*
Y413500D01*
G01X-22847Y421000D02*
X-18553D01*
G01X-11333Y413500D02*
X-15067D01*
Y421000D01*
X-11333D01*
G01X-12827Y417375D02*
X-15067D01*
G01X-5700Y413250D02*
X-5887Y413375D01*
Y413625D01*
X-5700Y413750D01*
X-5513Y413625D01*
Y413375D01*
X-5700Y413250D01*
G01Y416625D02*
X-5887Y416750D01*
Y417000D01*
X-5700Y417125D01*
X-5513Y417000D01*
Y416750D01*
X-5700Y416625D01*
G01X1800Y413500D02*
Y421000D01*
X680Y419500D01*
G01Y413500D02*
X2920D01*
G01X7527Y419750D02*
X8087Y420500D01*
X8740Y420875D01*
X9487Y421000D01*
X10420Y420750D01*
X11073Y420125D01*
X11260Y419375D01*
X11167Y418625D01*
X10793Y418000D01*
X8927Y416750D01*
X8087Y415875D01*
X7527Y414625D01*
X7340Y413500D01*
X11260D01*
G01X15120Y413250D02*
X18480Y421000D01*
G01X24300D02*
X23553Y420750D01*
X22993Y420125D01*
X22620Y419375D01*
X22340Y418375D01*
X22247Y417250D01*
X22340Y416125D01*
X22620Y415125D01*
X22993Y414375D01*
X23553Y413750D01*
X24300Y413500D01*
X25047Y413750D01*
X25607Y414375D01*
X25980Y415125D01*
X26260Y416125D01*
X26353Y417250D01*
X26260Y418375D01*
X25980Y419375D01*
X25607Y420125D01*
X25047Y420750D01*
X24300Y421000D01*
G01X30213Y414375D02*
X30867Y413750D01*
X31613Y413500D01*
X32360Y413750D01*
X33013Y414500D01*
X33480Y415625D01*
X33667Y416750D01*
Y418125D01*
X33480Y419250D01*
X33013Y420250D01*
X32453Y420750D01*
X31800Y421000D01*
X31053Y420750D01*
X30493Y420250D01*
X30120Y419500D01*
X29933Y418500D01*
X30120Y417625D01*
X30587Y416750D01*
X31147Y416250D01*
X31800Y416125D01*
X32547Y416375D01*
X33107Y417000D01*
X33667Y418125D01*
G01X37620Y413250D02*
X40980Y421000D01*
G01X45027Y419750D02*
X45587Y420500D01*
X46240Y420875D01*
X46987Y421000D01*
X47920Y420750D01*
X48573Y420125D01*
X48760Y419375D01*
X48667Y418625D01*
X48293Y418000D01*
X46427Y416750D01*
X45587Y415875D01*
X45027Y414625D01*
X44840Y413500D01*
X48760D01*
G01X54300Y421000D02*
X53553Y420750D01*
X52993Y420125D01*
X52620Y419375D01*
X52340Y418375D01*
X52247Y417250D01*
X52340Y416125D01*
X52620Y415125D01*
X52993Y414375D01*
X53553Y413750D01*
X54300Y413500D01*
X55047Y413750D01*
X55607Y414375D01*
X55980Y415125D01*
X56260Y416125D01*
X56353Y417250D01*
X56260Y418375D01*
X55980Y419375D01*
X55607Y420125D01*
X55047Y420750D01*
X54300Y421000D01*
G01X61800Y413500D02*
Y421000D01*
X60680Y419500D01*
G01Y413500D02*
X62920D01*
G01X67713Y414375D02*
X68367Y413750D01*
X69113Y413500D01*
X69860Y413750D01*
X70513Y414500D01*
X70980Y415625D01*
X71167Y416750D01*
Y418125D01*
X70980Y419250D01*
X70513Y420250D01*
X69953Y420750D01*
X69300Y421000D01*
X68553Y420750D01*
X67993Y420250D01*
X67620Y419500D01*
X67433Y418500D01*
X67620Y417625D01*
X68087Y416750D01*
X68647Y416250D01*
X69300Y416125D01*
X70047Y416375D01*
X70607Y417000D01*
X71167Y418125D01*
G01X-41660Y438500D02*
Y446000D01*
G01X-37740D02*
Y438500D01*
G01Y442250D02*
X-41660D01*
G01X-34533Y438500D02*
X-32200Y446000D01*
X-29867Y438500D01*
G01X-30707Y441125D02*
X-33693D01*
G01X-26567Y438500D02*
Y446000D01*
X-24233D01*
X-23487Y445625D01*
X-23020Y445125D01*
X-22833Y444125D01*
X-23020Y443125D01*
X-23580Y442500D01*
X-24233Y442125D01*
X-26567D01*
G01X-24233D02*
X-22833Y438500D01*
G01X-19253D02*
Y446000D01*
X-17387D01*
X-16640Y445625D01*
X-16080Y445125D01*
X-15613Y444375D01*
X-15240Y443500D01*
X-15147Y442250D01*
X-15240Y441000D01*
X-15613Y440125D01*
X-16080Y439375D01*
X-16640Y438875D01*
X-17387Y438500D01*
X-19253D01*
G01X-12500Y446000D02*
X-11193Y438500D01*
X-9700Y446000D01*
X-8207Y438500D01*
X-6900Y446000D01*
G01X-4533Y438500D02*
X-2200Y446000D01*
X133Y438500D01*
G01X-707Y441125D02*
X-3693D01*
G01X3433Y438500D02*
Y446000D01*
X5767D01*
X6513Y445625D01*
X6980Y445125D01*
X7167Y444125D01*
X6980Y443125D01*
X6420Y442500D01*
X5767Y442125D01*
X3433D01*
G01X5767D02*
X7167Y438500D01*
G01X14667D02*
X10933D01*
Y446000D01*
X14667D01*
G01X13173Y442375D02*
X10933D01*
G01X25653Y438500D02*
Y446000D01*
X29947Y438500D01*
Y446000D01*
G01X32967Y438500D02*
X35300Y446000D01*
X37633Y438500D01*
G01X36793Y441125D02*
X33807D01*
G01X40373Y438500D02*
Y446000D01*
X42800Y439750D01*
X45227Y446000D01*
Y438500D01*
G01X52167D02*
X48433D01*
Y446000D01*
X52167D01*
G01X50673Y442375D02*
X48433D01*
G01X57800Y438250D02*
X57613Y438375D01*
Y438625D01*
X57800Y438750D01*
X57987Y438625D01*
Y438375D01*
X57800Y438250D01*
G01Y441625D02*
X57613Y441750D01*
Y442000D01*
X57800Y442125D01*
X57987Y442000D01*
Y441750D01*
X57800Y441625D01*
G01X63527Y446000D02*
X67073D01*
X63527Y438500D01*
X67073D01*
G01X70747Y446000D02*
Y440625D01*
X71120Y439500D01*
X71867Y438750D01*
X72800Y438500D01*
X73733Y438750D01*
X74480Y439500D01*
X74853Y440625D01*
Y446000D01*
G01X82167Y438500D02*
X78433D01*
Y446000D01*
X82167D01*
G01X80673Y442375D02*
X78433D01*
G01X85840Y439500D02*
X86587Y438875D01*
X87427Y438500D01*
X88173D01*
X88920Y438875D01*
X89480Y439500D01*
X89760Y440375D01*
X89573Y441250D01*
X89107Y442000D01*
X88267Y442500D01*
X87147Y442750D01*
X86493Y443250D01*
X86213Y444125D01*
X86400Y445000D01*
X86867Y445625D01*
X87520Y446000D01*
X88173D01*
X88827Y445750D01*
X89387Y445125D01*
G01X93527Y444750D02*
X94087Y445500D01*
X94740Y445875D01*
X95487Y446000D01*
X96420Y445750D01*
X97073Y445125D01*
X97260Y444375D01*
X97167Y443625D01*
X96793Y443000D01*
X94927Y441750D01*
X94087Y440875D01*
X93527Y439625D01*
X93340Y438500D01*
X97260D01*
G01X100000Y436000D02*
X105600D01*
G01X109180Y446000D02*
X111420D01*
G01X110300D02*
Y438500D01*
G01X109180D02*
X111420D01*
G01X115840Y439500D02*
X116587Y438875D01*
X117427Y438500D01*
X118173D01*
X118920Y438875D01*
X119480Y439500D01*
X119760Y440375D01*
X119573Y441250D01*
X119107Y442000D01*
X118267Y442500D01*
X117147Y442750D01*
X116493Y443250D01*
X116213Y444125D01*
X116400Y445000D01*
X116867Y445625D01*
X117520Y446000D01*
X118173D01*
X118827Y445750D01*
X119387Y445125D01*
G01X125300Y446000D02*
Y438500D01*
G01X123153Y446000D02*
X127447D01*
G01X130467Y438500D02*
X132800Y446000D01*
X135133Y438500D01*
G01X134293Y441125D02*
X131307D01*
G01X138153Y438500D02*
Y446000D01*
X142447Y438500D01*
Y446000D01*
G01X148547Y442500D02*
X148920Y442875D01*
X149200Y443500D01*
X149387Y444375D01*
X149200Y445125D01*
X148827Y445625D01*
X148173Y446000D01*
X145653D01*
Y438500D01*
X148733D01*
X149387Y439000D01*
X149760Y439750D01*
X149947Y440625D01*
X149760Y441500D01*
X149200Y442250D01*
X148547Y442500D01*
X145653D01*
G01X153247Y446000D02*
Y440625D01*
X153620Y439500D01*
X154367Y438750D01*
X155300Y438500D01*
X156233Y438750D01*
X156980Y439500D01*
X157353Y440625D01*
Y446000D01*
G01X160933D02*
Y438500D01*
X164667D01*
G01X167500Y436000D02*
X173100D01*
G01X175933Y446000D02*
Y438500D01*
X179667D01*
G01X185860Y442250D02*
X187727D01*
Y440000D01*
X187167Y439250D01*
X186513Y438750D01*
X185580Y438500D01*
X184647Y438750D01*
X183993Y439250D01*
X183433Y440000D01*
X183060Y440875D01*
X182873Y441875D01*
Y442750D01*
X183060Y443500D01*
X183433Y444375D01*
X183993Y445125D01*
X184553Y445625D01*
X185300Y446000D01*
X185953D01*
X186700Y445750D01*
X187260Y445250D01*
G01X190467Y438500D02*
X192800Y446000D01*
X195133Y438500D01*
G01X194293Y441125D02*
X191307D01*
G01X197500Y436000D02*
X203100D01*
G01X205747Y438500D02*
Y446000D01*
X207613D01*
X208360Y445625D01*
X208920Y445125D01*
X209387Y444375D01*
X209760Y443500D01*
X209853Y442250D01*
X209760Y441000D01*
X209387Y440125D01*
X208920Y439375D01*
X208360Y438875D01*
X207613Y438500D01*
X205747D01*
G01X217167D02*
X213433D01*
Y446000D01*
X217167D01*
G01X215673Y442375D02*
X213433D01*
G01X220467Y446000D02*
X222800Y438500D01*
X225133Y446000D01*
G01X228247Y438500D02*
Y446000D01*
G01X231793D02*
X228247Y441375D01*
G01X232353Y438500D02*
X229833Y443500D01*
G01X236680Y446000D02*
X238920D01*
G01X237800D02*
Y438500D01*
G01X236680D02*
X238920D01*
G01X245300Y446000D02*
Y438500D01*
G01X243153Y446000D02*
X247447D01*
G01X250000Y436000D02*
X255600D01*
G01X258433Y438500D02*
Y446000D01*
X260673D01*
X261420Y445625D01*
X261980Y444750D01*
X262167Y443750D01*
X261980Y442750D01*
X261513Y442000D01*
X260673Y441625D01*
X258433D01*
G01X267800Y438500D02*
Y446000D01*
X266680Y444500D01*
G01Y438500D02*
X268920D01*
G01X152933Y415000D02*
Y407500D01*
X156667D01*
G01X160247Y408625D02*
X160807Y408000D01*
X161460Y407625D01*
X162300Y407500D01*
X163140Y407750D01*
X163793Y408250D01*
X164260Y409125D01*
X164353Y410125D01*
X164167Y411125D01*
X163700Y411750D01*
X163047Y412250D01*
X162393Y412375D01*
X161740Y412250D01*
X160900Y411750D01*
X161180Y415000D01*
X163700D01*
G01X168587Y410000D02*
X171013D01*
G01X175433Y407500D02*
Y415000D01*
X177673D01*
X178420Y414625D01*
X178980Y413750D01*
X179167Y412750D01*
X178980Y411750D01*
X178513Y411000D01*
X177673Y410625D01*
X175433D01*
G01X182000Y415000D02*
X183307Y407500D01*
X184800Y415000D01*
X186293Y407500D01*
X187600Y415000D01*
G01X190433Y407500D02*
Y415000D01*
X192767D01*
X193513Y414625D01*
X193980Y414125D01*
X194167Y413125D01*
X193980Y412125D01*
X193420Y411500D01*
X192767Y411125D01*
X190433D01*
G01X192767D02*
X194167Y407500D01*
G01X97433Y421000D02*
Y413500D01*
X101167D01*
G01X104467D02*
X106800Y421000D01*
X109133Y413500D01*
G01X108293Y416125D02*
X105307D01*
G01X114300Y413500D02*
Y416875D01*
X112433Y421000D01*
G01X116167D02*
X114300Y416875D01*
G01X123667Y413500D02*
X119933D01*
Y421000D01*
X123667D01*
G01X122173Y417375D02*
X119933D01*
G01X127433Y413500D02*
Y421000D01*
X129767D01*
X130513Y420625D01*
X130980Y420125D01*
X131167Y419125D01*
X130980Y418125D01*
X130420Y417500D01*
X129767Y417125D01*
X127433D01*
G01X129767D02*
X131167Y413500D01*
G01X136800Y413250D02*
X136613Y413375D01*
Y413625D01*
X136800Y413750D01*
X136987Y413625D01*
Y413375D01*
X136800Y413250D01*
G01Y416625D02*
X136613Y416750D01*
Y417000D01*
X136800Y417125D01*
X136987Y417000D01*
Y416750D01*
X136800Y416625D01*
M02*
