G04 ================== begin FILE IDENTIFICATION RECORD ==================*
G04 Layout Name:  Istanbul_Omnichip_LGA_DEVKIT_Rev_1P.brd*
G04 Film Name:    SILKSCREEN-TOP*
G04 File Format:  Gerber RS274X*
G04 File Origin:  Cadence Allegro 17.2-P019*
G04 Origin Date:  Mon Dec 09 23:50:35 2019*
G04 *
G04 Layer:  BOARD GEOMETRY/DESIGN_OUTLINE*
G04 Layer:  DRAWING FORMAT/TITLE_DATA*
G04 Layer:  DRAWING FORMAT/TITLE_BLOCK*
G04 Layer:  REF DES/SILKSCREEN_TOP*
G04 Layer:  PACKAGE GEOMETRY/SILKSCREEN_TOP*
G04 Layer:  BOARD GEOMETRY/SILKSCREEN_TOP*
G04 Layer:  BOARD GEOMETRY/TEXT-GLOBAL*
G04 *
G04 Offset:    (0.00 0.00)*
G04 Mirror:    No*
G04 Mode:      Positive*
G04 Rotation:  0*
G04 FullContactRelief:  No*
G04 UndefLineWidth:     5.00*
G04 ================== end FILE IDENTIFICATION RECORD ====================*
%FSLAX25Y25*MOIN*%
%IR0*IPPOS*OFA0.00000B0.00000*MIA0B0*SFA1.00000B1.00000*%
%ADD10C,.01*%
%ADD11C,.01181*%
%ADD12C,.01575*%
%ADD13C,.01378*%
%ADD14C,.005*%
%ADD15C,.006*%
%ADD16C,.007*%
%ADD17C,.008*%
%ADD18C,.009*%
%ADD19C,.00591*%
%ADD20C,.00394*%
%ADD21R,.19X.47*%
G75*
%LPD*%
G75*
G36*
G01X160400Y900D02*
Y50900D01*
X138400D01*
Y900D01*
X160400D01*
G37*
G36*
G01X106323Y-850D02*
X121677D01*
Y626D01*
X106323D01*
Y-850D01*
G37*
G36*
G01X99236Y8106D02*
X128764D01*
Y11354D01*
X99236D01*
Y8106D01*
G37*
G36*
G01X101402Y626D02*
X102976D01*
Y8106D01*
X101402D01*
Y626D01*
G37*
G36*
G01X125024D02*
X126598D01*
Y8106D01*
X125024D01*
Y626D01*
G37*
G36*
G01X120693Y11354D02*
X128764D01*
Y12142D01*
X120693D01*
Y11354D01*
G37*
G36*
G01X99236D02*
X107307D01*
Y12142D01*
X99236D01*
Y11354D01*
G37*
G36*
G01X106323Y626D02*
X108291D01*
Y8106D01*
X106323D01*
Y626D01*
G37*
G36*
G01X119709D02*
X121677D01*
Y8106D01*
X119709D01*
Y626D01*
G37*
G36*
G01X99236Y-850D02*
X102976D01*
Y626D01*
X99236D01*
Y-850D01*
G37*
G36*
G01X125024D02*
X128764D01*
Y626D01*
X125024D01*
Y-850D01*
G37*
%LPC*%
G75*
G54D21*
X149400Y25900D03*
%LPD*%
G75*
G36*
G01X147023Y41190D02*
G02X147024Y41357I11662J14D01*
G02X147029Y41458I1718J-34D01*
G02X147094Y41943I3889J-274D01*
G02X147219Y42379I2792J-564D01*
G02X147403Y42770I2423J-901D01*
G02X147650Y43124I2214J-1281D01*
G02X147711Y43193I1106J-916D01*
G02X147799Y43283I3600J-3432D01*
G02X147889Y43371I3523J-3513D01*
G02X147957Y43432I966J-1008D01*
G02X148357Y43708I1668J-1989D01*
G02X148823Y43921I1541J-2755D01*
G02X149356Y44070I1269J-3510D01*
G02X149961Y44157I1085J-5399D01*
G02X150103Y44168I589J-6675D01*
G02X150234Y44175I316J-4690D01*
G02X150374Y44179I229J-5549D01*
G02X150547Y44180I160J-12797D01*
G02X150769Y44178I-14J-13881D01*
G02X150881Y44170I-20J-1073D01*
G02X150954Y44154I-41J-360D01*
G02X151018Y44123I-95J-278D01*
G02X151063Y44087I-135J-215D01*
G02X151102Y44039I-245J-239D01*
G02X151131Y43985I-290J-191D01*
G02X151149Y43930I-254J-114D01*
G02X151153Y43894I-170J-37D01*
G01X151155Y43450D01*
G02X151156Y42858I-217467J-663D01*
G01Y41930D01*
X151157Y41003D01*
G03X151158Y40411I217467J71D01*
G01X151159Y39966D01*
G03X151163Y39931I174J2D01*
G03X151176Y39889I282J64D01*
G03X151194Y39848I285J101D01*
G03X151219Y39810I276J155D01*
G03X151250Y39774I282J211D01*
G03X151319Y39721I245J247D01*
G03X151396Y39689I147J246D01*
G03X151481Y39680I74J297D01*
G03X151574Y39694I-19J443D01*
G03X151964Y39838I-476J1888D01*
G03X152294Y40057I-711J1429D01*
G03X152555Y40347I-1010J1172D01*
G03X152744Y40700I-1408J981D01*
G03X152826Y40960I-1924J750D01*
G03X152881Y41246I-2617J651D01*
G03X152907Y41563I-3193J421D01*
G03Y41913I-4771J175D01*
G03X152893Y42170I-7897J-301D01*
G03X152871Y42388I-4243J-318D01*
G03X152840Y42595I-3811J-465D01*
G03X152795Y42817I-5133J-925D01*
G02X152779Y42894I5099J1100D01*
G02X152770Y42941I723J163D01*
G02X152767Y42980I452J54D01*
G02X152765Y43028I989J65D01*
G02X152767Y43093I829J7D01*
G02X152774Y43148I480J-33D01*
G02X152788Y43202I460J-91D01*
G02X152809Y43261I717J-222D01*
G02X152876Y43383I559J-228D01*
G02X152970Y43487I517J-372D01*
G02X153085Y43569I426J-476D01*
G02X153214Y43622I295J-536D01*
G02X153284Y43638I180J-627D01*
G02X153417Y43659I1139J-6782D01*
G02X153549Y43678I1115J-7280D01*
G02X153614Y43683I70J-491D01*
G02X153700Y43674I-4J-453D01*
G02X153780Y43650I-77J-402D01*
G02X153855Y43610I-156J-383D01*
G02X153922Y43554I-269J-390D01*
G02X153976Y43488I-327J-323D01*
G02X154017Y43415I-344J-241D01*
G02X154054Y43310I-823J-349D01*
G02X154102Y43129I-6369J-1786D01*
G02X154172Y42820I-5930J-1506D01*
G02X154228Y42496I-6970J-1371D01*
G02X154271Y42166I-7172J-1102D01*
G02X154297Y41839I-6798J-705D01*
G02X154302Y41679I-3113J-177D01*
G02X154301Y41446I-13591J-58D01*
G02X154296Y41215I-13942J186D01*
G02X154287Y41071I-2278J70D01*
G02X154240Y40698I-5349J484D01*
G02X154169Y40361I-3725J609D01*
G02X154071Y40048I-3285J857D01*
G02X153944Y39747I-3139J1147D01*
G02X153816Y39506I-2908J1390D01*
G02X153670Y39283I-2487J1469D01*
G02X153507Y39079I-2263J1641D01*
G02X153327Y38891I-2075J1806D01*
G02X152983Y38613I-1944J2054D01*
G02X152592Y38385I-1734J2524D01*
G02X152154Y38209I-1465J3013D01*
G02X151669Y38083I-1312J4052D01*
G02X151143Y38011I-883J4493D01*
G02X150581Y37994I-453J5685D01*
G02X150027Y38033I115J5586D01*
G02X149522Y38126I483J4038D01*
G02X149177Y38231I888J3537D01*
G02X148839Y38371I1313J3647D01*
G02X148518Y38541I1617J3441D01*
G02X148227Y38735I1679J2833D01*
G02X148056Y38874I1584J2123D01*
G02X147888Y39034I2108J2382D01*
G02X147731Y39206I2306J2262D01*
G02X147592Y39385I2197J1849D01*
G02X147379Y39731I2332J1674D01*
G02X147211Y40113I2803J1461D01*
G02X147093Y40517I3036J1106D01*
G02X147029Y40933I3123J693D01*
G02X147024Y41024I1252J114D01*
G02X147023Y41190I12302J157D01*
G37*
G36*
G01X147237Y30391D02*
G03X147255Y30309I479J62D01*
G03X147287Y30228I575J180D01*
G03X147332Y30151I553J272D01*
G03X147386Y30083I450J302D01*
G03X147441Y30032I443J422D01*
G03X147499Y29990I328J392D01*
G03X147563Y29957I274J453D01*
G03X147637Y29929I289J651D01*
G01X147692Y29911D01*
X149483Y29909D01*
X150302D01*
G03X150874Y29910I-86J212999D01*
G03X151293Y29911I-279J204748D01*
G03X151417Y29915I-32J2906D01*
G03X151928Y29960I-289J6211D01*
G03X152385Y30046I-547J4165D01*
G03X152787Y30171I-822J3351D01*
G03X153135Y30336I-858J2260D01*
G03X153402Y30515I-1206J2087D01*
G03X153633Y30720I-1260J1652D01*
G03X153830Y30959I-1500J1437D01*
G03X153997Y31232I-1962J1388D01*
G03X154159Y31611I-2234J1179D01*
G03X154263Y32025I-2780J919D01*
G03X154317Y32503I-3741J665D01*
G03X154322Y33076I-7594J353D01*
G03X154306Y33476I-14182J-367D01*
G03X154279Y33830I-8736J-488D01*
G03X154239Y34169I-7940J-765D01*
G03X154183Y34521I-9492J-1330D01*
G03X154149Y34706I-20548J-3681D01*
G03X154111Y34902I-25667J-4874D01*
G03X154077Y35078I-31586J-6011D01*
G03X154060Y35149I-1226J-256D01*
G03X154033Y35231I-635J-164D01*
G03X153995Y35307I-554J-229D01*
G03X153946Y35377I-511J-305D01*
G03X153888Y35441I-502J-396D01*
G03X153826Y35494I-497J-519D01*
G03X153762Y35536I-338J-445D01*
G03X153691Y35569I-277J-504D01*
G03X153611Y35596I-298J-750D01*
G01X153551Y35613D01*
X147730D01*
X147670Y35596D01*
G03X147524Y35535I168J-608D01*
G03X147401Y35441I284J-499D01*
G03X147308Y35317I410J-405D01*
G03X147248Y35169I559J-313D01*
G03X147240Y35130I345J-91D01*
G03X147236Y35086I474J-65D01*
G03X147233Y35019I1680J-109D01*
G03X147231Y34865I34023J-519D01*
G03Y34677I13186J-94D01*
G03X147235Y34571I1493J3D01*
G03X147245Y34496I624J45D01*
G03X147264Y34425I550J109D01*
G03X147324Y34300I551J187D01*
G03X147412Y34193I486J310D01*
G03X147524Y34108I410J424D01*
G03X147654Y34051I321J556D01*
G01X147711Y34033D01*
X150137Y34030D01*
X151656Y34028D01*
G02X152218Y34026I-195J-133802D01*
G02X152550Y34023I-738J-100087D01*
G02X152600Y34016I1J-178D01*
G02X152691Y33976I-120J-396D01*
G02X152771Y33915I-225J-377D01*
G02X152835Y33838I-299J-313D01*
G02X152878Y33750I-325J-213D01*
G02X152895Y33675I-371J-123D01*
G02X152909Y33538I-3457J-422D01*
G02X152922Y33359I-4981J-452D01*
G02X152931Y33134I-12024J-594D01*
G02X152933Y32889I-5283J-166D01*
G02X152922Y32692I-2290J29D01*
G02X152895Y32521I-1679J177D01*
G02X152852Y32359I-1437J295D01*
G02X152802Y32229I-1311J430D01*
G02X152743Y32115I-918J403D01*
G02X152670Y32013I-801J496D01*
G02X152584Y31918I-823J659D01*
G02X152338Y31744I-692J717D01*
G02X152010Y31617I-823J1639D01*
G02X151592Y31534I-744J2652D01*
G02X151071Y31494I-730J6091D01*
G02X150935Y31492I-139J4817D01*
G01X150490Y31490D01*
G02X149946Y31489I-730J249396D01*
G01X149308Y31488D01*
X148169Y31487D01*
G03X147862Y31485I-38J-17793D01*
G03X147706Y31477I51J-2513D01*
G03X147613Y31457I31J-372D01*
G03X147557Y31435I187J-557D01*
G03X147507Y31407I212J-437D01*
G03X147458Y31373I264J-433D01*
G03X147410Y31331I444J-556D01*
G03X147356Y31271I403J-417D01*
G03X147310Y31204I455J-362D01*
G03X147274Y31131I508J-296D01*
G03X147248Y31053I562J-231D01*
G03X147240Y31013I324J-86D01*
G03X147236Y30967I532J-69D01*
G03X147234Y30892I2055J-92D01*
G03X147233Y30717I46934J-356D01*
G03X147232Y30606I14208J-184D01*
G03X147233Y30504I9550J43D01*
G03X147235Y30420I11721J237D01*
G03X147237Y30391I255J3D01*
G37*
G36*
G01X144385Y25447D02*
G03X144388Y25242I69814J919D01*
G03X144391Y25161I2407J49D01*
G03X144395Y25114I545J23D01*
G03X144404Y25076I248J39D01*
G03X144425Y25018I546J165D01*
G03X144451Y24967I387J165D01*
G03X144483Y24920I360J210D01*
G03X144524Y24874I429J341D01*
G03X144568Y24834I471J474D01*
G03X144611Y24802I269J317D01*
G03X144657Y24777I211J333D01*
G03X144710Y24756I224J488D01*
G01X144760Y24739D01*
X148551D01*
X150566D01*
G03X151624Y24741I-563J577433D01*
G01X152331Y24743D01*
G03X152430Y24747I5J1099D01*
G03X152839Y24806I-398J4210D01*
G03X153167Y24900I-381J1948D01*
G03X153437Y25035I-535J1408D01*
G03X153670Y25219I-746J1185D01*
G03X153869Y25465I-1005J1016D01*
G03X154027Y25766I-1603J1033D01*
G03X154144Y26125I-2200J916D01*
G03X154220Y26545I-3751J896D01*
G03X154239Y26714I-6315J796D01*
G03X154245Y26826I-1297J126D01*
G03X154241Y26907I-625J10D01*
G03X154225Y26971I-265J-32D01*
G03X154187Y27046I-360J-135D01*
G03X154134Y27109I-301J-200D01*
G03X154069Y27157I-241J-258D01*
G03X153994Y27190I-177J-301D01*
G03X153909Y27210I-199J-655D01*
G03X153605Y27261I-9597J-56272D01*
G03X153296Y27310I-10833J-67313D01*
G03X153222Y27316I-75J-466D01*
G03X153154Y27310I-1J-374D01*
G03X153091Y27291I57J-302D01*
G03X153034Y27260I119J-286D01*
G03X152981Y27215I224J-318D01*
G03X152944Y27173I265J-271D01*
G03X152917Y27128I257J-185D01*
G03X152893Y27073I364J-192D01*
G03X152872Y27001I984J-326D01*
G02X152831Y26865I-1649J423D01*
G02X152783Y26752I-902J317D01*
G02X152726Y26657I-688J348D01*
G02X152658Y26574I-550J381D01*
G02X152555Y26486I-534J521D01*
G02X152441Y26420I-385J534D01*
G02X152303Y26373I-336J759D01*
G02X152128Y26339I-436J1777D01*
G01X152034Y26325D01*
X148413Y26322D01*
X146163Y26319D01*
G03X145316Y26317I302J-307041D01*
G01X144806Y26315D01*
G03X144752Y26307I3J-208D01*
G03X144629Y26256I137J-505D01*
G03X144525Y26177I248J-434D01*
G03X144446Y26074I344J-346D01*
G03X144398Y25954I413J-235D01*
G03X144388Y25897I372J-95D01*
G03X144384Y25821I1090J-95D01*
G03X144383Y25698I3632J-91D01*
G03X144385Y25447I52360J292D01*
G37*
G36*
G01X144738Y18736D02*
G03X144778Y18345I5409J356D01*
G03X144844Y17972I4628J627D01*
G03X144940Y17611I4420J982D01*
G03X145065Y17257I4475J1381D01*
G03X145119Y17131I2305J913D01*
G03X145198Y16968I6802J3196D01*
G03X145279Y16808I6739J3311D01*
G03X145344Y16693I2001J1055D01*
G03X145747Y16135I3537J2130D01*
G03X146233Y15657I3026J2591D01*
G03X146805Y15260I2654J3214D01*
G03X147463Y14942I2513J4360D01*
G03X147850Y14807I1725J4323D01*
G03X148252Y14706I1375J4622D01*
G03X148681Y14635I1088J5244D01*
G03X149152Y14592I917J7443D01*
G03X149302Y14586I202J3163D01*
G03X149537Y14585I195J18161D01*
G03X149773Y14587I-34J17949D01*
G03X149929Y14592I-39J3652D01*
G03X150457Y14640I-446J7831D01*
G03X150941Y14721I-710J5727D01*
G03X151393Y14838I-1073J5078D01*
G03X151823Y14994I-1425J4597D01*
G03X152407Y15286I-1780J4290D01*
G03X152917Y15646I-1961J3319D01*
G03X153349Y16074I-2350J2804D01*
G03X153705Y16568I-2797J2391D01*
G03X153776Y16693I-2344J1414D01*
G03X153855Y16848I-5127J2711D01*
G03X153930Y17005I-5209J2585D01*
G03X153987Y17138I-2554J1173D01*
G03X154097Y17450I-4088J1617D01*
G03X154185Y17773I-4327J1352D01*
G03X154250Y18107I-4575J1064D01*
G03X154293Y18453I-5151J816D01*
G03X154315Y18896I-5539J497D01*
G03X154307Y19426I-11240J95D01*
G03X154274Y19974I-11825J-437D01*
G03X154217Y20473I-8308J-696D01*
G03X154176Y20726I-7566J-1096D01*
G03X154119Y21025I-14742J-2655D01*
G03X154061Y21303I-17406J-3486D01*
G03X154025Y21431I-1052J-227D01*
G03X153930Y21622I-804J-281D01*
G03X153791Y21780I-668J-447D01*
G03X153612Y21900I-554J-634D01*
G03X153400Y21978I-458J-919D01*
G03X153345Y21985I-58J-235D01*
G03X153106Y21987I-436J-37875D01*
G03X152696Y21989I-557J-72093D01*
G01X151650Y21991D01*
X150363Y21992D01*
G03X150052Y21989I-16J-14429D01*
G03X149896Y21978I43J-1726D01*
G03X149795Y21952I37J-353D01*
G03X149746Y21929I336J-780D01*
G03X149705Y21905I214J-413D01*
G03X149668Y21879I235J-373D01*
G03X149629Y21845I433J-537D01*
G03X149590Y21805I445J-473D01*
G03X149556Y21764I368J-340D01*
G03X149528Y21720I403J-287D01*
G03X149502Y21670I537J-311D01*
G03X149473Y21598I609J-287D01*
G03X149460Y21536I278J-91D01*
G03X149455Y21445I1023J-102D01*
G03X149453Y21184I43278J-462D01*
G03X149452Y20933I37338J-274D01*
G03X149456Y20829I1550J8D01*
G03X149466Y20760I449J30D01*
G03X149486Y20691I517J112D01*
G03X149535Y20594I450J166D01*
G03X149608Y20505I495J332D01*
G03X149696Y20432I420J417D01*
G03X149791Y20382I263J384D01*
G03X149883Y20358I151J391D01*
G03X150007Y20348I152J1113D01*
G03X150241Y20344I262J8490D01*
G01X151127D01*
X151799Y20343D01*
G02X152119Y20342I10J-47841D01*
G02X152314Y20340I-160J-25108D01*
G02X152373Y20334I-8J-376D01*
G02X152529Y20284I-98J-575D01*
G02X152663Y20192I-251J-509D01*
G02X152765Y20067I-371J-407D01*
G02X152824Y19920I-445J-264D01*
G02X152842Y19808I-831J-191D01*
G02X152856Y19624I-5325J-498D01*
G02X152866Y19404I-6697J-415D01*
G02X152870Y19161I-9701J-281D01*
G02X152869Y19001I-10971J-11D01*
G02X152865Y18885I-3182J52D01*
G02X152858Y18782I-2366J109D01*
G02X152845Y18667I-3699J360D01*
G02X152756Y18231I-2775J339D01*
G02X152600Y17832I-2313J674D01*
G02X152378Y17470I-2114J1047D01*
G02X152091Y17147I-2041J1525D01*
G02X151727Y16864I-1624J1713D01*
G02X151293Y16635I-1631J2565D01*
G02X150793Y16466I-1373J3238D01*
G02X150238Y16358I-1166J4514D01*
G02X149776Y16318I-681J5181D01*
G02X149296Y16317I-253J6009D01*
G02X148828Y16354I221J5775D01*
G02X148402Y16427I488J4125D01*
G02X148199Y16478I954J4227D01*
G02X148012Y16536I890J3201D01*
G02X147835Y16603I1011J2938D01*
G02X147661Y16681I1214J2942D01*
G02X147459Y16788I1403J2893D01*
G02X147276Y16903I1275J2232D01*
G02X147108Y17031I1409J2024D01*
G02X146947Y17176I1703J2053D01*
G02X146722Y17429I1670J1712D01*
G02X146538Y17709I1791J1377D01*
G02X146394Y18019I2057J1144D01*
G02X146288Y18361I2684J1019D01*
G02X146248Y18556I2850J686D01*
G02X146220Y18758I3199J546D01*
G02X146204Y18972I3611J378D01*
G02X146198Y19205I4950J244D01*
G02X146213Y19593I5061J-1D01*
G02X146257Y19953I3855J-289D01*
G02X146337Y20318I4069J-701D01*
G02X146459Y20721I6410J-1721D01*
G03X146478Y20779I-4244J1422D01*
G03X146495Y20835I-3790J1181D01*
G03X146509Y20883I-3480J1041D01*
G03X146516Y20910I-355J106D01*
G03X146524Y20963I-365J82D01*
G03X146526Y21035I-1144J68D01*
G03X146524Y21107I-1149J4D01*
G03X146517Y21162I-413J-25D01*
G03X146471Y21307I-681J-136D01*
G03X146395Y21437I-604J-266D01*
G03X146293Y21545I-518J-387D01*
G03X146170Y21626I-407J-484D01*
G03X146093Y21659I-330J-663D01*
G03X145910Y21724I-5453J-15062D01*
G03X145722Y21789I-7057J-20106D01*
G03X145662Y21804I-116J-336D01*
G03X145596Y21809I-61J-363D01*
G03X145529Y21801I17J-427D01*
G03X145462Y21783I81J-434D01*
G03X145399Y21755I144J-409D01*
G03X145378Y21743I93J-187D01*
G03X145355Y21725I286J-390D01*
G03X145330Y21704I351J-443D01*
G03X145307Y21681I408J-431D01*
G03X145277Y21650I570J-582D01*
G03X145257Y21624I181J-160D01*
G03X145239Y21594I256J-174D01*
G03X145215Y21545I1643J-835D01*
G03X145130Y21352I2324J-1139D01*
G03X145048Y21127I3958J-1570D01*
G03X144974Y20878I4743J-1545D01*
G03X144908Y20611I5940J-1610D01*
G03X144846Y20314I10556J-2359D01*
G03X144801Y20054I6056J-1182D01*
G03X144769Y19800I5725J-850D01*
G03X144744Y19520I8313J-883D01*
G03X144738Y19388I2367J-174D01*
G03X144735Y19123I31481J-489D01*
G03X144734Y18858I33357J-258D01*
G03X144738Y18736I1938J2D01*
G37*
G36*
G01X147630Y7819D02*
X147870Y7626D01*
X148074Y7463D01*
X148257Y7315D01*
G03X148261Y7313I8J11D01*
G03X148269Y7316I2J7D01*
G03X148308Y7362I-3351J2881D01*
G03X148346Y7409I-1080J912D01*
G03X148375Y7450I-542J414D01*
G03X148411Y7514I-597J378D01*
G03X148444Y7586I-838J428D01*
G03X148472Y7662I-921J382D01*
G03X148493Y7740I-929J292D01*
G03X148499Y7796I-267J57D01*
G03X148502Y7998I-24306J462D01*
G03X148504Y8347I-52485J475D01*
G01X148506Y9198D01*
Y9739D01*
X148507Y10195D01*
X148509Y10608D01*
X148510Y10609D01*
G02X148512I1J-3D01*
G01X148707Y10471D01*
X148921Y10319D01*
X149175Y10139D01*
X149533Y9884D01*
X150119Y9468D01*
X150789Y8992D01*
X151458Y8517D01*
X152083Y8074D01*
G03X152617Y7697I166546J235336D01*
G01X153090Y7363D01*
G03X153129Y7340I199J293D01*
G03X153211Y7302I372J695D01*
G03X153295Y7276I240J626D01*
G03X153382Y7261I159J663D01*
G03X153475Y7256I92J846D01*
G03X153566Y7260I8J849D01*
G03X153652Y7275I-74J678D01*
G03X153734Y7300I-158J665D01*
G03X153818Y7337I-303J803D01*
G03X153992Y7461I-327J644D01*
G03X154126Y7631I-527J553D01*
G03X154206Y7832I-663J380D01*
G03X154224Y8045I-704J167D01*
G03X154222Y8074I-1215J-69D01*
G03X154220Y8102I-1151J-68D01*
G03X154217Y8126I-1027J-116D01*
G03X154215Y8139I-136J-14D01*
G02X154212Y8163I99J25D01*
G01X154210Y8696D01*
G02X154209Y9337I311290J806D01*
G01X154208Y10194D01*
Y11097D01*
G03X154207Y11734I-278607J-119D01*
G01X154205Y12228D01*
G03X154202Y12293I-718J-1D01*
G03X154151Y12508I-817J-80D01*
G03X154046Y12695I-678J-258D01*
G03X153892Y12841I-559J-435D01*
G03X153700Y12937I-428J-616D01*
G03X153641Y12954I-208J-611D01*
G03X153584Y12964I-119J-509D01*
G03X153520Y12968I-73J-647D01*
G03X153441Y12967I-20J-1516D01*
G03X153361Y12961I44J-1120D01*
G03X153296Y12950I59J-543D01*
G03X153233Y12932I108J-497D01*
G03X153165Y12903I300J-798D01*
G03X153027Y12818I318J-671D01*
G03X152913Y12706I424J-546D01*
G03X152826Y12568I568J-454D01*
G03X152765Y12406I820J-401D01*
G01X152752Y12356D01*
X152748Y10900D01*
X152745Y9445D01*
X151654Y10221D01*
X151189Y10551D01*
X150696Y10901D01*
X150246Y11220D01*
X149929Y11446D01*
X149304Y11890D01*
X148832Y12226D01*
X148481Y12476D01*
G02X148325Y12588I25803J36105D01*
G03X148210Y12670I-19280J-26917D01*
G03X148161Y12703I-816J-1159D01*
G03X148124Y12725I-286J-438D01*
G03X148076Y12749I-546J-1032D01*
G03X147863Y12815I-323J-666D01*
G03X147640Y12813I-105J-728D01*
G03X147426Y12745I116J-736D01*
G03X147240Y12616I347J-700D01*
G03X147165Y12535I494J-533D01*
G03X147104Y12443I571J-445D01*
G03X147054Y12339I676J-389D01*
G03X147018Y12222I945J-355D01*
G03X147011Y12168I227J-57D01*
G03X147008Y11894I56386J-754D01*
G03X147007Y11430I92955J-432D01*
G01X147005Y10251D01*
X147004Y8322D01*
X147630Y7819D01*
G37*
%LPC*%
G75*
G36*
G01X148374Y40967D02*
G02X148357Y41175I2203J285D01*
G02Y41190I218J7D01*
G02X148358Y41222I3317J-88D01*
G02X148360Y41259I3412J-166D01*
G02X148363Y41299I4286J-301D01*
G02X148385Y41492I1862J-114D01*
G02X148426Y41658I1122J-189D01*
G02X148491Y41812I1018J-339D01*
G02X148583Y41968I1314J-670D01*
G02X148744Y42159I1015J-692D01*
G02X148943Y42319I948J-976D01*
G02X149178Y42444I809J-1237D01*
G02X149442Y42533I699J-1639D01*
G02X149540Y42556I892J-3582D01*
G02X149609Y42569I204J-894D01*
G02X149662Y42573I63J-487D01*
G02X149707Y42571I11J-258D01*
G02X149777Y42552I-42J-292D01*
G02X149843Y42516I-129J-316D01*
G02X149899Y42467I-193J-278D01*
G02X149940Y42408I-212J-191D01*
G02X149965Y42333I-213J-113D01*
G02X149976Y42222I-864J-142D01*
G02X149979Y42006I-7166J-208D01*
G01X149980Y41144D01*
X149979Y40290D01*
G02X149976Y40069I-7931J-3D01*
G02X149967Y39957I-1012J25D01*
G02X149943Y39882I-244J37D01*
G02X149920Y39845I-184J88D01*
G02X149883Y39805I-341J278D01*
G02X149843Y39770I-313J318D01*
G02X149804Y39746I-140J184D01*
G02X149739Y39722I-154J317D01*
G02X149677Y39713I-67J243D01*
G02X149605Y39720I-2J350D01*
G02X149511Y39744I230J1098D01*
G02X149209Y39859I555J1912D01*
G02X148946Y40018I698J1452D01*
G02X148726Y40219I903J1209D01*
G02X148549Y40458I1113J1009D01*
G02X148468Y40618I1154J685D01*
G02X148411Y40785I1155J487D01*
G02X148374Y40967I1363J372D01*
G37*
%LPD*%
G75*
G54D10*
G01X-46000Y421000D02*
G02X-38500Y428500I8750J-1250D01*
G01Y406000D02*
G02X-46000Y413500I1250J8750D01*
G01X-51000Y411000D02*
G03X-41000Y401000I13750J3750D01*
G01X-51000Y411000D02*
Y473500D01*
G01X-41000Y401000D02*
X269000D01*
G01X-46000Y413500D02*
Y421000D01*
G01X79000Y406000D02*
X-38500D01*
G01X79000Y428500D02*
X-38500D01*
G01X-46000Y446000D02*
G02X-38500Y453500I8750J-1250D01*
G01Y431000D02*
G02X-46000Y438500I1250J8750D01*
G01Y446000D02*
Y438500D01*
G01X-51000Y473500D02*
G02X-41000Y483500I13750J-3750D01*
G01D02*
X269000D01*
G01X266500Y453500D02*
X-38500D01*
G01X266500Y431000D02*
X-38500D01*
G01X86500Y413500D02*
G02X79000Y406000I-8750J1250D01*
G01X86500Y421000D02*
G03X79000Y428500I-8750J-1250D01*
G01X97000Y70500D02*
G03I-1000J0D01*
G01X98512Y147500D02*
G03I-512J0D01*
G01X110000Y99000D02*
G03I-1000J0D01*
G01X99000Y428500D02*
X266500D01*
G01X91500Y413500D02*
G03X99000Y406000I8750J1250D01*
G01X91500Y421000D02*
G02X99000Y428500I8750J-1250D01*
G01Y406000D02*
X266500D01*
G01X91500Y421000D02*
Y413500D01*
G01X86500Y421000D02*
Y413500D01*
G01X126500Y456000D02*
G02X119000Y463500I1250J8750D01*
G01Y471000D01*
G02X126500Y478500I8750J-1250D01*
G01Y456000D02*
X266500D01*
G01X126500Y478500D02*
X266500D01*
G01X274000Y421000D02*
G03X266500Y428500I-8750J-1250D01*
G01X274000Y413500D02*
G02X266500Y406000I-8750J1250D01*
G01X274000Y421000D02*
Y413500D01*
G01X269000Y401000D02*
G03X279000Y411000I-3750J13750D01*
G01D02*
Y473500D01*
G01X274000Y446000D02*
Y438500D01*
G01D02*
G02X266500Y431000I-8750J1250D01*
G01X274000Y446000D02*
G03X266500Y453500I-8750J-1250D01*
G01Y456000D02*
G03X274000Y463500I-1250J8750D01*
G01Y471000D01*
G03X266500Y478500I-8750J-1250D01*
G01X279000Y473500D02*
G03X269000Y483500I-13750J-3750D01*
G54D20*
G01X99236Y429D02*
Y-850D01*
X128764D01*
Y429D01*
G01X99236Y8303D02*
Y11157D01*
G01Y17850D02*
Y19031D01*
X128764D01*
Y17850D01*
G01Y11157D02*
Y8303D01*
G54D11*
G01X59568Y137484D02*
G03I-788J0D01*
G01X157087Y175520D02*
G03I-788J0D01*
G54D12*
G01X52243Y86621D02*
G03I-804J0D01*
G54D13*
G01X71483Y204124D02*
G03I-788J0D01*
G54D14*
G01X62100Y119400D02*
X64900D01*
Y124800D01*
X62100D01*
Y119400D01*
G01X65600Y119485D02*
X68400D01*
Y124885D01*
X65600D01*
Y119485D01*
G01X82600Y111485D02*
X85400D01*
Y116885D01*
X82600D01*
Y111485D01*
G01X49700Y104785D02*
Y107585D01*
X44300D01*
Y104785D01*
X49700D01*
G01Y108785D02*
Y111585D01*
X44300D01*
Y108785D01*
X49700D01*
G01X82900Y100900D02*
X85700D01*
Y106300D01*
X82900D01*
Y100900D01*
G01X56000Y84685D02*
X53200D01*
Y79285D01*
X56000D01*
Y84685D01*
G01X73600Y119485D02*
X76400D01*
Y124885D01*
X73600D01*
Y119485D01*
G01X72400Y124885D02*
X69600D01*
Y119485D01*
X72400D01*
Y124885D01*
G01X59900Y79300D02*
X62700D01*
Y84700D01*
X59900D01*
Y79300D01*
G01X56700D02*
X59500D01*
Y84700D01*
X56700D01*
Y79300D01*
G01X51200Y119600D02*
Y122400D01*
X45800D01*
Y119600D01*
X51200D01*
G01X51900Y122300D02*
Y119500D01*
X57300D01*
Y122300D01*
X51900D01*
G01X96900Y27700D02*
X94100D01*
Y22300D01*
X96900D01*
Y27700D01*
G01X106700Y21750D02*
Y24550D01*
X101300D01*
Y21750D01*
X106700D01*
G01X124520Y57400D02*
Y54600D01*
X129920D01*
Y57400D01*
X124520D01*
G01X103500Y34700D02*
Y37500D01*
X98100D01*
Y34700D01*
X103500D01*
G01X87520Y62400D02*
Y59600D01*
X92920D01*
Y62400D01*
X87520D01*
G01Y59400D02*
Y56600D01*
X92920D01*
Y59400D01*
X87520D01*
G01Y56400D02*
Y53600D01*
X92920D01*
Y56400D01*
X87520D01*
G01Y53400D02*
Y50600D01*
X92920D01*
Y53400D01*
X87520D01*
G01Y67400D02*
Y64600D01*
X92920D01*
Y67400D01*
X87520D01*
G01X90803Y36378D02*
Y33622D01*
G01X90409Y34213D02*
Y33622D01*
G01Y36378D02*
Y35787D01*
G01X85685Y34213D02*
Y33622D01*
X90016D01*
Y34213D01*
G01Y35787D02*
Y36378D01*
X85685D01*
Y35787D01*
G01X90803Y42378D02*
Y39622D01*
G01X90409Y40213D02*
Y39622D01*
G01Y42378D02*
Y41787D01*
G01X85685Y40213D02*
Y39622D01*
X90016D01*
Y40213D01*
G01Y41787D02*
Y42378D01*
X85685D01*
Y41787D01*
G01X143200Y148700D02*
X140400D01*
Y143300D01*
X143200D01*
Y148700D01*
G01X139600Y170300D02*
X142400D01*
Y175700D01*
X139600D01*
Y170300D01*
G01X142400Y181700D02*
X139600D01*
Y176300D01*
X142400D01*
Y181700D01*
G01X139600Y182300D02*
X142400D01*
Y187700D01*
X139600D01*
Y182300D01*
G01X105700Y91000D02*
X108500D01*
Y96400D01*
X105700D01*
Y91000D01*
G01X140400Y149300D02*
X143200D01*
Y154700D01*
X140400D01*
Y149300D01*
G01X139600Y164300D02*
X142400D01*
Y169700D01*
X139600D01*
Y164300D01*
G01X123900Y146100D02*
X121100D01*
Y140700D01*
X123900D01*
Y146100D01*
G01X97700Y134400D02*
X100500D01*
Y139800D01*
X97700D01*
Y134400D01*
G01X129100Y113900D02*
Y116700D01*
X123700D01*
Y113900D01*
X129100D01*
G01X98400Y81400D02*
Y78600D01*
X103800D01*
Y81400D01*
X98400D01*
G01X111000Y193600D02*
X113800D01*
Y199000D01*
X111000D01*
Y193600D01*
G01X20685Y215685D02*
Y-850D01*
X178165D01*
Y215685D01*
X20685D01*
G01X62488Y45732D02*
Y64268D01*
G01X75512D02*
Y45732D01*
G01X62488Y64268D02*
X63373D01*
G01X75512D02*
X74558D01*
G01X75512Y45732D02*
X74584D01*
G01X62488D02*
X63398D01*
G01X39488D02*
Y64268D01*
G01X52512D02*
Y45732D01*
G01X39488Y64268D02*
X40373D01*
G01X52512D02*
X51558D01*
G01X52512Y45732D02*
X51584D01*
G01X39488D02*
X40398D01*
G01X33685Y184055D02*
Y2055D01*
X21685D01*
Y184055D01*
X33685D01*
G01X32685Y38055D02*
X31685D01*
G01X22685D02*
X23685D01*
G01X22685Y183055D02*
Y3055D01*
X32685D01*
Y183055D01*
X22685D01*
G01X81693Y23426D02*
X88307D01*
G01X89173Y22874D02*
X80866D01*
G01X88740Y23150D02*
X81260D01*
G01X81000Y22650D02*
X80500D01*
X82000Y23650D01*
X88000D01*
X89500Y22650D01*
G01X80500Y12150D02*
Y3150D01*
X89500D01*
Y22650D01*
X80500D01*
Y12150D01*
G01X87000Y15150D02*
X83000D01*
G01X87000Y11150D02*
X83000D01*
X85000Y15150D01*
X87000Y11150D01*
G01X32685Y88055D02*
X31685D01*
G01X32685Y138055D02*
X31685D01*
G01X22685Y88055D02*
X23685D01*
G01X22685Y138055D02*
X23685D01*
G01X116220Y71000D02*
X118220Y69000D01*
G01Y53000D02*
X116220Y51000D01*
G01X100220D02*
X98220Y53000D01*
G01Y69000D02*
X100220Y71000D01*
G01X177000Y184055D02*
Y2055D01*
X165000D01*
Y184055D01*
X177000D01*
G01X176000Y38055D02*
X175000D01*
G01X166000D02*
X167000D01*
G01X166000Y183055D02*
Y3055D01*
X176000D01*
Y183055D01*
X166000D01*
G01X135000Y53000D02*
Y105000D01*
X157000D01*
Y53000D01*
X135000D01*
G01X146000Y54000D02*
Y64000D01*
X156000D01*
G01Y54000D02*
Y104000D01*
X136000D01*
Y54000D01*
X156000D01*
G01X89900Y2050D02*
X93900D01*
G01X94136D02*
G03I-2236J0D01*
G01X91900Y50D02*
Y4050D01*
G01X132062Y120738D02*
X127338D01*
Y125462D01*
X132062D01*
Y120738D01*
G01X127500Y102000D02*
X110500D01*
Y88000D01*
X127500D01*
Y102000D01*
G01X176000Y88055D02*
X175000D01*
G01X176000Y138055D02*
X175000D01*
G01X166000Y88055D02*
X167000D01*
G01X166000Y138055D02*
X167000D01*
G01X159500Y213860D02*
X178500D01*
Y203860D01*
X159500D01*
Y213860D01*
G01X137300Y463500D02*
Y461000D01*
G01X136927Y462667D02*
X137673D01*
G01X139500Y461000D02*
X139340Y461042D01*
X139180Y461208D01*
X139073Y461500D01*
X139020Y461833D01*
X139073Y462167D01*
X139180Y462458D01*
X139340Y462625D01*
X139500Y462667D01*
X139660Y462625D01*
X139820Y462458D01*
X139927Y462167D01*
X139953Y461833D01*
X139927Y461500D01*
X139820Y461208D01*
X139660Y461042D01*
X139500Y461000D01*
G01X143900D02*
X143740Y461042D01*
X143580Y461208D01*
X143473Y461500D01*
X143420Y461833D01*
X143473Y462167D01*
X143580Y462458D01*
X143740Y462625D01*
X143900Y462667D01*
X144060Y462625D01*
X144220Y462458D01*
X144327Y462167D01*
X144353Y461833D01*
X144327Y461500D01*
X144220Y461208D01*
X144060Y461042D01*
X143900Y461000D01*
G01X146100Y463500D02*
Y461000D01*
G01X145727Y462667D02*
X146473D01*
G01X147847Y461000D02*
Y463500D01*
G01Y462292D02*
X147980Y462500D01*
X148113Y462625D01*
X148327Y462667D01*
X148487Y462625D01*
X148673Y462458D01*
X148753Y462208D01*
Y461000D01*
G01X150100Y462125D02*
X150953D01*
X150873Y462417D01*
X150740Y462583D01*
X150553Y462667D01*
X150367Y462625D01*
X150207Y462500D01*
X150100Y462208D01*
X150047Y461958D01*
Y461708D01*
X150100Y461458D01*
X150233Y461208D01*
X150393Y461042D01*
X150580Y461000D01*
X150767Y461083D01*
X150953Y461333D01*
G01X152327Y461000D02*
Y462667D01*
G01Y462333D02*
X152460Y462500D01*
X152593Y462625D01*
X152780Y462667D01*
X152913Y462625D01*
X153073Y462500D01*
G01X154500Y461292D02*
X154633Y461125D01*
X154820Y461000D01*
X154980D01*
X155140Y461083D01*
X155247Y461208D01*
X155300Y461375D01*
X155273Y461625D01*
X155167Y461750D01*
X154687Y462000D01*
X154580Y462292D01*
X154633Y462500D01*
X154740Y462625D01*
X154900Y462667D01*
X155060Y462625D01*
X155220Y462500D01*
G01X158633Y462667D02*
X158953Y461000D01*
X159300Y462667D01*
X159647Y461000D01*
X159967Y462667D01*
G01X161500D02*
Y461000D01*
G01Y463333D02*
X161447Y463375D01*
Y463458D01*
X161500Y463500D01*
X161553Y463458D01*
Y463375D01*
X161500Y463333D01*
G01X163700Y463500D02*
Y461000D01*
G01X163327Y462667D02*
X164073D01*
G01X165447Y461000D02*
Y463500D01*
G01Y462292D02*
X165580Y462500D01*
X165713Y462625D01*
X165927Y462667D01*
X166087Y462625D01*
X166273Y462458D01*
X166353Y462208D01*
Y461000D01*
G01X168100D02*
X167940Y461042D01*
X167780Y461208D01*
X167673Y461500D01*
X167620Y461833D01*
X167673Y462167D01*
X167780Y462458D01*
X167940Y462625D01*
X168100Y462667D01*
X168260Y462625D01*
X168420Y462458D01*
X168527Y462167D01*
X168553Y461833D01*
X168527Y461500D01*
X168420Y461208D01*
X168260Y461042D01*
X168100Y461000D01*
G01X169847Y462667D02*
Y461500D01*
X169953Y461208D01*
X170113Y461042D01*
X170300Y461000D01*
X170487Y461042D01*
X170647Y461208D01*
X170753Y461500D01*
G01Y461000D02*
Y462667D01*
G01X172500Y463500D02*
Y461000D01*
G01X172127Y462667D02*
X172873D01*
G01X176500Y461292D02*
X176633Y461125D01*
X176820Y461000D01*
X176980D01*
X177140Y461083D01*
X177247Y461208D01*
X177300Y461375D01*
X177273Y461625D01*
X177167Y461750D01*
X176687Y462000D01*
X176580Y462292D01*
X176633Y462500D01*
X176740Y462625D01*
X176900Y462667D01*
X177060Y462625D01*
X177220Y462500D01*
G01X178620Y460167D02*
Y462667D01*
G01Y462292D02*
X178753Y462500D01*
X178887Y462625D01*
X179100Y462667D01*
X179287Y462625D01*
X179473Y462417D01*
X179553Y462125D01*
X179580Y461833D01*
X179553Y461542D01*
X179473Y461250D01*
X179313Y461083D01*
X179100Y461000D01*
X178913Y461042D01*
X178727Y461167D01*
X178620Y461333D01*
G01X180900Y462125D02*
X181753D01*
X181673Y462417D01*
X181540Y462583D01*
X181353Y462667D01*
X181167Y462625D01*
X181007Y462500D01*
X180900Y462208D01*
X180847Y461958D01*
Y461708D01*
X180900Y461458D01*
X181033Y461208D01*
X181193Y461042D01*
X181380Y461000D01*
X181567Y461083D01*
X181753Y461333D01*
G01X183927Y462458D02*
X183740Y462625D01*
X183580Y462667D01*
X183367Y462583D01*
X183207Y462417D01*
X183100Y462125D01*
X183073Y461833D01*
X183100Y461542D01*
X183207Y461292D01*
X183367Y461083D01*
X183580Y461000D01*
X183767Y461083D01*
X183927Y461250D01*
G01X185700Y462667D02*
Y461000D01*
G01Y463333D02*
X185647Y463375D01*
Y463458D01*
X185700Y463500D01*
X185753Y463458D01*
Y463375D01*
X185700Y463333D01*
G01X187740Y461000D02*
Y463125D01*
X187793Y463333D01*
X187900Y463458D01*
X188060Y463500D01*
X188220Y463417D01*
X188300Y463208D01*
G01X187980Y462500D02*
X187447D01*
G01X190100Y462667D02*
Y461000D01*
G01Y463333D02*
X190047Y463375D01*
Y463458D01*
X190100Y463500D01*
X190153Y463458D01*
Y463375D01*
X190100Y463333D01*
G01X192727Y462458D02*
X192540Y462625D01*
X192380Y462667D01*
X192167Y462583D01*
X192007Y462417D01*
X191900Y462125D01*
X191873Y461833D01*
X191900Y461542D01*
X192007Y461292D01*
X192167Y461083D01*
X192380Y461000D01*
X192567Y461083D01*
X192727Y461250D01*
G01X196033Y462667D02*
X196353Y461000D01*
X196700Y462667D01*
X197047Y461000D01*
X197367Y462667D01*
G01X198527Y461000D02*
Y462667D01*
G01Y462333D02*
X198660Y462500D01*
X198793Y462625D01*
X198980Y462667D01*
X199113Y462625D01*
X199273Y462500D01*
G01X201100Y462667D02*
Y461000D01*
G01Y463333D02*
X201047Y463375D01*
Y463458D01*
X201100Y463500D01*
X201153Y463458D01*
Y463375D01*
X201100Y463333D01*
G01X203300Y463500D02*
Y461000D01*
G01X202927Y462667D02*
X203673D01*
G01X205500Y463500D02*
Y461000D01*
G01X205127Y462667D02*
X205873D01*
G01X207300Y462125D02*
X208153D01*
X208073Y462417D01*
X207940Y462583D01*
X207753Y462667D01*
X207567Y462625D01*
X207407Y462500D01*
X207300Y462208D01*
X207247Y461958D01*
Y461708D01*
X207300Y461458D01*
X207433Y461208D01*
X207593Y461042D01*
X207780Y461000D01*
X207967Y461083D01*
X208153Y461333D01*
G01X209447Y461000D02*
Y462667D01*
G01Y462250D02*
X209553Y462458D01*
X209713Y462625D01*
X209927Y462667D01*
X210113Y462625D01*
X210273Y462458D01*
X210353Y462167D01*
Y461000D01*
G01X213820Y460167D02*
Y462667D01*
G01Y462292D02*
X213953Y462500D01*
X214087Y462625D01*
X214300Y462667D01*
X214487Y462625D01*
X214673Y462417D01*
X214753Y462125D01*
X214780Y461833D01*
X214753Y461542D01*
X214673Y461250D01*
X214513Y461083D01*
X214300Y461000D01*
X214113Y461042D01*
X213927Y461167D01*
X213820Y461333D01*
G01X216100Y462125D02*
X216953D01*
X216873Y462417D01*
X216740Y462583D01*
X216553Y462667D01*
X216367Y462625D01*
X216207Y462500D01*
X216100Y462208D01*
X216047Y461958D01*
Y461708D01*
X216100Y461458D01*
X216233Y461208D01*
X216393Y461042D01*
X216580Y461000D01*
X216767Y461083D01*
X216953Y461333D01*
G01X218327Y461000D02*
Y462667D01*
G01Y462333D02*
X218460Y462500D01*
X218593Y462625D01*
X218780Y462667D01*
X218913Y462625D01*
X219073Y462500D01*
G01X220100Y461000D02*
Y462667D01*
G01Y462208D02*
X220180Y462417D01*
X220313Y462583D01*
X220500Y462667D01*
X220687Y462583D01*
X220820Y462417D01*
X220900Y462208D01*
Y461000D01*
G01Y462208D02*
X220980Y462417D01*
X221113Y462583D01*
X221300Y462667D01*
X221487Y462583D01*
X221620Y462417D01*
X221700Y462167D01*
Y461000D01*
G01X223100Y462667D02*
Y461000D01*
G01Y463333D02*
X223047Y463375D01*
Y463458D01*
X223100Y463500D01*
X223153Y463458D01*
Y463375D01*
X223100Y463333D01*
G01X224900Y461292D02*
X225033Y461125D01*
X225220Y461000D01*
X225380D01*
X225540Y461083D01*
X225647Y461208D01*
X225700Y461375D01*
X225673Y461625D01*
X225567Y461750D01*
X225087Y462000D01*
X224980Y462292D01*
X225033Y462500D01*
X225140Y462625D01*
X225300Y462667D01*
X225460Y462625D01*
X225620Y462500D01*
G01X227100Y461292D02*
X227233Y461125D01*
X227420Y461000D01*
X227580D01*
X227740Y461083D01*
X227847Y461208D01*
X227900Y461375D01*
X227873Y461625D01*
X227767Y461750D01*
X227287Y462000D01*
X227180Y462292D01*
X227233Y462500D01*
X227340Y462625D01*
X227500Y462667D01*
X227660Y462625D01*
X227820Y462500D01*
G01X229700Y462667D02*
Y461000D01*
G01Y463333D02*
X229647Y463375D01*
Y463458D01*
X229700Y463500D01*
X229753Y463458D01*
Y463375D01*
X229700Y463333D01*
G01X231900Y461000D02*
X231740Y461042D01*
X231580Y461208D01*
X231473Y461500D01*
X231420Y461833D01*
X231473Y462167D01*
X231580Y462458D01*
X231740Y462625D01*
X231900Y462667D01*
X232060Y462625D01*
X232220Y462458D01*
X232327Y462167D01*
X232353Y461833D01*
X232327Y461500D01*
X232220Y461208D01*
X232060Y461042D01*
X231900Y461000D01*
G01X233647D02*
Y462667D01*
G01Y462250D02*
X233753Y462458D01*
X233913Y462625D01*
X234127Y462667D01*
X234313Y462625D01*
X234473Y462458D01*
X234553Y462167D01*
Y461000D01*
G01X238340D02*
Y463125D01*
X238393Y463333D01*
X238500Y463458D01*
X238660Y463500D01*
X238820Y463417D01*
X238900Y463208D01*
G01X238580Y462500D02*
X238047D01*
G01X240327Y461000D02*
Y462667D01*
G01Y462333D02*
X240460Y462500D01*
X240593Y462625D01*
X240780Y462667D01*
X240913Y462625D01*
X241073Y462500D01*
G01X242900Y461000D02*
X242740Y461042D01*
X242580Y461208D01*
X242473Y461500D01*
X242420Y461833D01*
X242473Y462167D01*
X242580Y462458D01*
X242740Y462625D01*
X242900Y462667D01*
X243060Y462625D01*
X243220Y462458D01*
X243327Y462167D01*
X243353Y461833D01*
X243327Y461500D01*
X243220Y461208D01*
X243060Y461042D01*
X242900Y461000D01*
G01X244300D02*
Y462667D01*
G01Y462208D02*
X244380Y462417D01*
X244513Y462583D01*
X244700Y462667D01*
X244887Y462583D01*
X245020Y462417D01*
X245100Y462208D01*
Y461000D01*
G01Y462208D02*
X245180Y462417D01*
X245313Y462583D01*
X245500Y462667D01*
X245687Y462583D01*
X245820Y462417D01*
X245900Y462167D01*
Y461000D01*
G01X249100Y462667D02*
X249900D01*
X249100Y461000D01*
X249900D01*
G01X251860Y462250D02*
X252393D01*
Y461500D01*
X252233Y461250D01*
X252047Y461083D01*
X251780Y461000D01*
X251513Y461083D01*
X251327Y461250D01*
X251167Y461500D01*
X251060Y461792D01*
X251007Y462125D01*
Y462417D01*
X251060Y462667D01*
X251167Y462958D01*
X251327Y463208D01*
X251487Y463375D01*
X251700Y463500D01*
X251887D01*
X252100Y463417D01*
X252260Y463250D01*
G01X253900Y461000D02*
Y463500D01*
G01X255647Y462667D02*
Y461500D01*
X255753Y461208D01*
X255913Y461042D01*
X256100Y461000D01*
X256287Y461042D01*
X256447Y461208D01*
X256553Y461500D01*
G01Y461000D02*
Y462667D01*
G01X257900Y462125D02*
X258753D01*
X258673Y462417D01*
X258540Y462583D01*
X258353Y462667D01*
X258167Y462625D01*
X258007Y462500D01*
X257900Y462208D01*
X257847Y461958D01*
Y461708D01*
X257900Y461458D01*
X258033Y461208D01*
X258193Y461042D01*
X258380Y461000D01*
X258567Y461083D01*
X258753Y461333D01*
G01X260500Y460917D02*
X260447Y460958D01*
Y461042D01*
X260500Y461083D01*
X260553Y461042D01*
Y460958D01*
X260500Y460917D01*
G01X137780Y466000D02*
Y467667D01*
G01Y467375D02*
X137673Y467542D01*
X137513Y467625D01*
X137327Y467667D01*
X137140Y467583D01*
X136980Y467417D01*
X136873Y467167D01*
X136820Y466833D01*
X136873Y466500D01*
X136980Y466250D01*
X137140Y466083D01*
X137327Y466000D01*
X137513Y466042D01*
X137673Y466167D01*
X137780Y466333D01*
G01X139047Y466000D02*
Y467667D01*
G01Y467250D02*
X139153Y467458D01*
X139313Y467625D01*
X139527Y467667D01*
X139713Y467625D01*
X139873Y467458D01*
X139953Y467167D01*
Y466000D01*
G01X142180Y468500D02*
Y466000D01*
G01Y466375D02*
X142073Y466167D01*
X141913Y466042D01*
X141727Y466000D01*
X141513Y466083D01*
X141353Y466292D01*
X141247Y466542D01*
X141220Y466833D01*
X141247Y467125D01*
X141353Y467375D01*
X141513Y467583D01*
X141727Y467667D01*
X141913Y467625D01*
X142047Y467542D01*
X142180Y467375D01*
G01X145700Y466292D02*
X145833Y466125D01*
X146020Y466000D01*
X146180D01*
X146340Y466083D01*
X146447Y466208D01*
X146500Y466375D01*
X146473Y466625D01*
X146367Y466750D01*
X145887Y467000D01*
X145780Y467292D01*
X145833Y467500D01*
X145940Y467625D01*
X146100Y467667D01*
X146260Y467625D01*
X146420Y467500D01*
G01X147847Y466000D02*
Y468500D01*
G01Y467292D02*
X147980Y467500D01*
X148113Y467625D01*
X148327Y467667D01*
X148487Y467625D01*
X148673Y467458D01*
X148753Y467208D01*
Y466000D01*
G01X150980D02*
Y467667D01*
G01Y467375D02*
X150873Y467542D01*
X150713Y467625D01*
X150527Y467667D01*
X150340Y467583D01*
X150180Y467417D01*
X150073Y467167D01*
X150020Y466833D01*
X150073Y466500D01*
X150180Y466250D01*
X150340Y466083D01*
X150527Y466000D01*
X150713Y466042D01*
X150873Y466167D01*
X150980Y466333D01*
G01X152700Y466000D02*
Y468500D01*
G01X154900Y466000D02*
Y468500D01*
G01X158847Y466000D02*
Y467667D01*
G01Y467250D02*
X158953Y467458D01*
X159113Y467625D01*
X159327Y467667D01*
X159513Y467625D01*
X159673Y467458D01*
X159753Y467167D01*
Y466000D01*
G01X161500D02*
X161340Y466042D01*
X161180Y466208D01*
X161073Y466500D01*
X161020Y466833D01*
X161073Y467167D01*
X161180Y467458D01*
X161340Y467625D01*
X161500Y467667D01*
X161660Y467625D01*
X161820Y467458D01*
X161927Y467167D01*
X161953Y466833D01*
X161927Y466500D01*
X161820Y466208D01*
X161660Y466042D01*
X161500Y466000D01*
G01X163700Y468500D02*
Y466000D01*
G01X163327Y467667D02*
X164073D01*
G01X167620Y466000D02*
Y468500D01*
G01Y467250D02*
X167753Y467500D01*
X167913Y467625D01*
X168073Y467667D01*
X168313Y467583D01*
X168473Y467417D01*
X168580Y467125D01*
Y466792D01*
X168527Y466458D01*
X168420Y466208D01*
X168233Y466042D01*
X168073Y466000D01*
X167913Y466042D01*
X167753Y466167D01*
X167620Y466375D01*
G01X169900Y467125D02*
X170753D01*
X170673Y467417D01*
X170540Y467583D01*
X170353Y467667D01*
X170167Y467625D01*
X170007Y467500D01*
X169900Y467208D01*
X169847Y466958D01*
Y466708D01*
X169900Y466458D01*
X170033Y466208D01*
X170193Y466042D01*
X170380Y466000D01*
X170567Y466083D01*
X170753Y466333D01*
G01X174327Y466000D02*
Y467667D01*
G01Y467333D02*
X174460Y467500D01*
X174593Y467625D01*
X174780Y467667D01*
X174913Y467625D01*
X175073Y467500D01*
G01X176500Y467125D02*
X177353D01*
X177273Y467417D01*
X177140Y467583D01*
X176953Y467667D01*
X176767Y467625D01*
X176607Y467500D01*
X176500Y467208D01*
X176447Y466958D01*
Y466708D01*
X176500Y466458D01*
X176633Y466208D01*
X176793Y466042D01*
X176980Y466000D01*
X177167Y466083D01*
X177353Y466333D01*
G01X178620Y465167D02*
Y467667D01*
G01Y467292D02*
X178753Y467500D01*
X178887Y467625D01*
X179100Y467667D01*
X179287Y467625D01*
X179473Y467417D01*
X179553Y467125D01*
X179580Y466833D01*
X179553Y466542D01*
X179473Y466250D01*
X179313Y466083D01*
X179100Y466000D01*
X178913Y466042D01*
X178727Y466167D01*
X178620Y466333D01*
G01X180927Y466000D02*
Y467667D01*
G01Y467333D02*
X181060Y467500D01*
X181193Y467625D01*
X181380Y467667D01*
X181513Y467625D01*
X181673Y467500D01*
G01X183500Y466000D02*
X183340Y466042D01*
X183180Y466208D01*
X183073Y466500D01*
X183020Y466833D01*
X183073Y467167D01*
X183180Y467458D01*
X183340Y467625D01*
X183500Y467667D01*
X183660Y467625D01*
X183820Y467458D01*
X183927Y467167D01*
X183953Y466833D01*
X183927Y466500D01*
X183820Y466208D01*
X183660Y466042D01*
X183500Y466000D01*
G01X186180Y468500D02*
Y466000D01*
G01Y466375D02*
X186073Y466167D01*
X185913Y466042D01*
X185727Y466000D01*
X185513Y466083D01*
X185353Y466292D01*
X185247Y466542D01*
X185220Y466833D01*
X185247Y467125D01*
X185353Y467375D01*
X185513Y467583D01*
X185727Y467667D01*
X185913Y467625D01*
X186047Y467542D01*
X186180Y467375D01*
G01X187447Y467667D02*
Y466500D01*
X187553Y466208D01*
X187713Y466042D01*
X187900Y466000D01*
X188087Y466042D01*
X188247Y466208D01*
X188353Y466500D01*
G01Y466000D02*
Y467667D01*
G01X190527Y467458D02*
X190340Y467625D01*
X190180Y467667D01*
X189967Y467583D01*
X189807Y467417D01*
X189700Y467125D01*
X189673Y466833D01*
X189700Y466542D01*
X189807Y466292D01*
X189967Y466083D01*
X190180Y466000D01*
X190367Y466083D01*
X190527Y466250D01*
G01X191900Y467125D02*
X192753D01*
X192673Y467417D01*
X192540Y467583D01*
X192353Y467667D01*
X192167Y467625D01*
X192007Y467500D01*
X191900Y467208D01*
X191847Y466958D01*
Y466708D01*
X191900Y466458D01*
X192033Y466208D01*
X192193Y466042D01*
X192380Y466000D01*
X192567Y466083D01*
X192753Y466333D01*
G01X194980Y468500D02*
Y466000D01*
G01Y466375D02*
X194873Y466167D01*
X194713Y466042D01*
X194527Y466000D01*
X194313Y466083D01*
X194153Y466292D01*
X194047Y466542D01*
X194020Y466833D01*
X194047Y467125D01*
X194153Y467375D01*
X194313Y467583D01*
X194527Y467667D01*
X194713Y467625D01*
X194847Y467542D01*
X194980Y467375D01*
G01X198233Y467667D02*
X198553Y466000D01*
X198900Y467667D01*
X199247Y466000D01*
X199567Y467667D01*
G01X200647Y466000D02*
Y468500D01*
G01Y467292D02*
X200780Y467500D01*
X200913Y467625D01*
X201127Y467667D01*
X201287Y467625D01*
X201473Y467458D01*
X201553Y467208D01*
Y466000D01*
G01X203300D02*
X203140Y466042D01*
X202980Y466208D01*
X202873Y466500D01*
X202820Y466833D01*
X202873Y467167D01*
X202980Y467458D01*
X203140Y467625D01*
X203300Y467667D01*
X203460Y467625D01*
X203620Y467458D01*
X203727Y467167D01*
X203753Y466833D01*
X203727Y466500D01*
X203620Y466208D01*
X203460Y466042D01*
X203300Y466000D01*
G01X205500D02*
Y468500D01*
G01X207700Y466000D02*
Y468500D01*
G01X209340Y465250D02*
X209500Y465167D01*
X209713Y465250D01*
X209847Y465417D01*
X209953Y465625D01*
X210113Y466292D01*
X210460Y467667D01*
G01X209607D02*
X210113Y466292D01*
G01X214300Y466000D02*
X214140Y466042D01*
X213980Y466208D01*
X213873Y466500D01*
X213820Y466833D01*
X213873Y467167D01*
X213980Y467458D01*
X214140Y467625D01*
X214300Y467667D01*
X214460Y467625D01*
X214620Y467458D01*
X214727Y467167D01*
X214753Y466833D01*
X214727Y466500D01*
X214620Y466208D01*
X214460Y466042D01*
X214300Y466000D01*
G01X216127D02*
Y467667D01*
G01Y467333D02*
X216260Y467500D01*
X216393Y467625D01*
X216580Y467667D01*
X216713Y467625D01*
X216873Y467500D01*
G01X220900Y467667D02*
Y466000D01*
G01Y468333D02*
X220847Y468375D01*
Y468458D01*
X220900Y468500D01*
X220953Y468458D01*
Y468375D01*
X220900Y468333D01*
G01X222647Y466000D02*
Y467667D01*
G01Y467250D02*
X222753Y467458D01*
X222913Y467625D01*
X223127Y467667D01*
X223313Y467625D01*
X223473Y467458D01*
X223553Y467167D01*
Y466000D01*
G01X227020Y465167D02*
Y467667D01*
G01Y467292D02*
X227153Y467500D01*
X227287Y467625D01*
X227500Y467667D01*
X227687Y467625D01*
X227873Y467417D01*
X227953Y467125D01*
X227980Y466833D01*
X227953Y466542D01*
X227873Y466250D01*
X227713Y466083D01*
X227500Y466000D01*
X227313Y466042D01*
X227127Y466167D01*
X227020Y466333D01*
G01X230180Y466000D02*
Y467667D01*
G01Y467375D02*
X230073Y467542D01*
X229913Y467625D01*
X229727Y467667D01*
X229540Y467583D01*
X229380Y467417D01*
X229273Y467167D01*
X229220Y466833D01*
X229273Y466500D01*
X229380Y466250D01*
X229540Y466083D01*
X229727Y466000D01*
X229913Y466042D01*
X230073Y466167D01*
X230180Y466333D01*
G01X231527Y466000D02*
Y467667D01*
G01Y467333D02*
X231660Y467500D01*
X231793Y467625D01*
X231980Y467667D01*
X232113Y467625D01*
X232273Y467500D01*
G01X234100Y468500D02*
Y466000D01*
G01X233727Y467667D02*
X234473D01*
G01X236247Y465542D02*
X236353Y466083D01*
G01X240247Y466000D02*
Y467667D01*
G01Y467250D02*
X240353Y467458D01*
X240513Y467625D01*
X240727Y467667D01*
X240913Y467625D01*
X241073Y467458D01*
X241153Y467167D01*
Y466000D01*
G01X242900D02*
X242740Y466042D01*
X242580Y466208D01*
X242473Y466500D01*
X242420Y466833D01*
X242473Y467167D01*
X242580Y467458D01*
X242740Y467625D01*
X242900Y467667D01*
X243060Y467625D01*
X243220Y467458D01*
X243327Y467167D01*
X243353Y466833D01*
X243327Y466500D01*
X243220Y466208D01*
X243060Y466042D01*
X242900Y466000D01*
G01X244727D02*
Y467667D01*
G01Y467333D02*
X244860Y467500D01*
X244993Y467625D01*
X245180Y467667D01*
X245313Y467625D01*
X245473Y467500D01*
G01X249980Y468500D02*
Y466000D01*
G01Y466375D02*
X249873Y466167D01*
X249713Y466042D01*
X249527Y466000D01*
X249313Y466083D01*
X249153Y466292D01*
X249047Y466542D01*
X249020Y466833D01*
X249047Y467125D01*
X249153Y467375D01*
X249313Y467583D01*
X249527Y467667D01*
X249713Y467625D01*
X249847Y467542D01*
X249980Y467375D01*
G01X251700Y467667D02*
Y466000D01*
G01Y468333D02*
X251647Y468375D01*
Y468458D01*
X251700Y468500D01*
X251753Y468458D01*
Y468375D01*
X251700Y468333D01*
G01X253500Y466292D02*
X253633Y466125D01*
X253820Y466000D01*
X253980D01*
X254140Y466083D01*
X254247Y466208D01*
X254300Y466375D01*
X254273Y466625D01*
X254167Y466750D01*
X253687Y467000D01*
X253580Y467292D01*
X253633Y467500D01*
X253740Y467625D01*
X253900Y467667D01*
X254060Y467625D01*
X254220Y467500D01*
G01X256527Y467458D02*
X256340Y467625D01*
X256180Y467667D01*
X255967Y467583D01*
X255807Y467417D01*
X255700Y467125D01*
X255673Y466833D01*
X255700Y466542D01*
X255807Y466292D01*
X255967Y466083D01*
X256180Y466000D01*
X256367Y466083D01*
X256527Y466250D01*
G01X258300Y466000D02*
Y468500D01*
G01X260500Y466000D02*
X260340Y466042D01*
X260180Y466208D01*
X260073Y466500D01*
X260020Y466833D01*
X260073Y467167D01*
X260180Y467458D01*
X260340Y467625D01*
X260500Y467667D01*
X260660Y467625D01*
X260820Y467458D01*
X260927Y467167D01*
X260953Y466833D01*
X260927Y466500D01*
X260820Y466208D01*
X260660Y466042D01*
X260500Y466000D01*
G01X262300Y466292D02*
X262433Y466125D01*
X262620Y466000D01*
X262780D01*
X262940Y466083D01*
X263047Y466208D01*
X263100Y466375D01*
X263073Y466625D01*
X262967Y466750D01*
X262487Y467000D01*
X262380Y467292D01*
X262433Y467500D01*
X262540Y467625D01*
X262700Y467667D01*
X262860Y467625D01*
X263020Y467500D01*
G01X264500Y467125D02*
X265353D01*
X265273Y467417D01*
X265140Y467583D01*
X264953Y467667D01*
X264767Y467625D01*
X264607Y467500D01*
X264500Y467208D01*
X264447Y466958D01*
Y466708D01*
X264500Y466458D01*
X264633Y466208D01*
X264793Y466042D01*
X264980Y466000D01*
X265167Y466083D01*
X265353Y466333D01*
G01X267580Y468500D02*
Y466000D01*
G01Y466375D02*
X267473Y466167D01*
X267313Y466042D01*
X267127Y466000D01*
X266913Y466083D01*
X266753Y466292D01*
X266647Y466542D01*
X266620Y466833D01*
X266647Y467125D01*
X266753Y467375D01*
X266913Y467583D01*
X267127Y467667D01*
X267313Y467625D01*
X267447Y467542D01*
X267580Y467375D01*
G01X137300Y473500D02*
Y471000D01*
G01X136687Y473500D02*
X137913D01*
G01X139047Y471000D02*
Y473500D01*
G01Y472292D02*
X139180Y472500D01*
X139313Y472625D01*
X139527Y472667D01*
X139687Y472625D01*
X139873Y472458D01*
X139953Y472208D01*
Y471000D01*
G01X141700Y472667D02*
Y471000D01*
G01Y473333D02*
X141647Y473375D01*
Y473458D01*
X141700Y473500D01*
X141753Y473458D01*
Y473375D01*
X141700Y473333D01*
G01X143500Y471292D02*
X143633Y471125D01*
X143820Y471000D01*
X143980D01*
X144140Y471083D01*
X144247Y471208D01*
X144300Y471375D01*
X144273Y471625D01*
X144167Y471750D01*
X143687Y472000D01*
X143580Y472292D01*
X143633Y472500D01*
X143740Y472625D01*
X143900Y472667D01*
X144060Y472625D01*
X144220Y472500D01*
G01X148780Y473500D02*
Y471000D01*
G01Y471375D02*
X148673Y471167D01*
X148513Y471042D01*
X148327Y471000D01*
X148113Y471083D01*
X147953Y471292D01*
X147847Y471542D01*
X147820Y471833D01*
X147847Y472125D01*
X147953Y472375D01*
X148113Y472583D01*
X148327Y472667D01*
X148513Y472625D01*
X148647Y472542D01*
X148780Y472375D01*
G01X150500Y471000D02*
X150340Y471042D01*
X150180Y471208D01*
X150073Y471500D01*
X150020Y471833D01*
X150073Y472167D01*
X150180Y472458D01*
X150340Y472625D01*
X150500Y472667D01*
X150660Y472625D01*
X150820Y472458D01*
X150927Y472167D01*
X150953Y471833D01*
X150927Y471500D01*
X150820Y471208D01*
X150660Y471042D01*
X150500Y471000D01*
G01X153127Y472458D02*
X152940Y472625D01*
X152780Y472667D01*
X152567Y472583D01*
X152407Y472417D01*
X152300Y472125D01*
X152273Y471833D01*
X152300Y471542D01*
X152407Y471292D01*
X152567Y471083D01*
X152780Y471000D01*
X152967Y471083D01*
X153127Y471250D01*
G01X154447Y472667D02*
Y471500D01*
X154553Y471208D01*
X154713Y471042D01*
X154900Y471000D01*
X155087Y471042D01*
X155247Y471208D01*
X155353Y471500D01*
G01Y471000D02*
Y472667D01*
G01X156300Y471000D02*
Y472667D01*
G01Y472208D02*
X156380Y472417D01*
X156513Y472583D01*
X156700Y472667D01*
X156887Y472583D01*
X157020Y472417D01*
X157100Y472208D01*
Y471000D01*
G01Y472208D02*
X157180Y472417D01*
X157313Y472583D01*
X157500Y472667D01*
X157687Y472583D01*
X157820Y472417D01*
X157900Y472167D01*
Y471000D01*
G01X158900Y472125D02*
X159753D01*
X159673Y472417D01*
X159540Y472583D01*
X159353Y472667D01*
X159167Y472625D01*
X159007Y472500D01*
X158900Y472208D01*
X158847Y471958D01*
Y471708D01*
X158900Y471458D01*
X159033Y471208D01*
X159193Y471042D01*
X159380Y471000D01*
X159567Y471083D01*
X159753Y471333D01*
G01X161047Y471000D02*
Y472667D01*
G01Y472250D02*
X161153Y472458D01*
X161313Y472625D01*
X161527Y472667D01*
X161713Y472625D01*
X161873Y472458D01*
X161953Y472167D01*
Y471000D01*
G01X163700Y473500D02*
Y471000D01*
G01X163327Y472667D02*
X164073D01*
G01X168527Y472458D02*
X168340Y472625D01*
X168180Y472667D01*
X167967Y472583D01*
X167807Y472417D01*
X167700Y472125D01*
X167673Y471833D01*
X167700Y471542D01*
X167807Y471292D01*
X167967Y471083D01*
X168180Y471000D01*
X168367Y471083D01*
X168527Y471250D01*
G01X170300Y471000D02*
X170140Y471042D01*
X169980Y471208D01*
X169873Y471500D01*
X169820Y471833D01*
X169873Y472167D01*
X169980Y472458D01*
X170140Y472625D01*
X170300Y472667D01*
X170460Y472625D01*
X170620Y472458D01*
X170727Y472167D01*
X170753Y471833D01*
X170727Y471500D01*
X170620Y471208D01*
X170460Y471042D01*
X170300Y471000D01*
G01X172047D02*
Y472667D01*
G01Y472250D02*
X172153Y472458D01*
X172313Y472625D01*
X172527Y472667D01*
X172713Y472625D01*
X172873Y472458D01*
X172953Y472167D01*
Y471000D01*
G01X174700Y473500D02*
Y471000D01*
G01X174327Y472667D02*
X175073D01*
G01X177380Y471000D02*
Y472667D01*
G01Y472375D02*
X177273Y472542D01*
X177113Y472625D01*
X176927Y472667D01*
X176740Y472583D01*
X176580Y472417D01*
X176473Y472167D01*
X176420Y471833D01*
X176473Y471500D01*
X176580Y471250D01*
X176740Y471083D01*
X176927Y471000D01*
X177113Y471042D01*
X177273Y471167D01*
X177380Y471333D01*
G01X179100Y472667D02*
Y471000D01*
G01Y473333D02*
X179047Y473375D01*
Y473458D01*
X179100Y473500D01*
X179153Y473458D01*
Y473375D01*
X179100Y473333D01*
G01X180847Y471000D02*
Y472667D01*
G01Y472250D02*
X180953Y472458D01*
X181113Y472625D01*
X181327Y472667D01*
X181513Y472625D01*
X181673Y472458D01*
X181753Y472167D01*
Y471000D01*
G01X183100Y471292D02*
X183233Y471125D01*
X183420Y471000D01*
X183580D01*
X183740Y471083D01*
X183847Y471208D01*
X183900Y471375D01*
X183873Y471625D01*
X183767Y471750D01*
X183287Y472000D01*
X183180Y472292D01*
X183233Y472500D01*
X183340Y472625D01*
X183500Y472667D01*
X183660Y472625D01*
X183820Y472500D01*
G01X187900Y472667D02*
Y471000D01*
G01Y473333D02*
X187847Y473375D01*
Y473458D01*
X187900Y473500D01*
X187953Y473458D01*
Y473375D01*
X187900Y473333D01*
G01X189647Y471000D02*
Y472667D01*
G01Y472250D02*
X189753Y472458D01*
X189913Y472625D01*
X190127Y472667D01*
X190313Y472625D01*
X190473Y472458D01*
X190553Y472167D01*
Y471000D01*
G01X192140D02*
Y473125D01*
X192193Y473333D01*
X192300Y473458D01*
X192460Y473500D01*
X192620Y473417D01*
X192700Y473208D01*
G01X192380Y472500D02*
X191847D01*
G01X194500Y471000D02*
X194340Y471042D01*
X194180Y471208D01*
X194073Y471500D01*
X194020Y471833D01*
X194073Y472167D01*
X194180Y472458D01*
X194340Y472625D01*
X194500Y472667D01*
X194660Y472625D01*
X194820Y472458D01*
X194927Y472167D01*
X194953Y471833D01*
X194927Y471500D01*
X194820Y471208D01*
X194660Y471042D01*
X194500Y471000D01*
G01X196327D02*
Y472667D01*
G01Y472333D02*
X196460Y472500D01*
X196593Y472625D01*
X196780Y472667D01*
X196913Y472625D01*
X197073Y472500D01*
G01X198100Y471000D02*
Y472667D01*
G01Y472208D02*
X198180Y472417D01*
X198313Y472583D01*
X198500Y472667D01*
X198687Y472583D01*
X198820Y472417D01*
X198900Y472208D01*
Y471000D01*
G01Y472208D02*
X198980Y472417D01*
X199113Y472583D01*
X199300Y472667D01*
X199487Y472583D01*
X199620Y472417D01*
X199700Y472167D01*
Y471000D01*
G01X201580D02*
Y472667D01*
G01Y472375D02*
X201473Y472542D01*
X201313Y472625D01*
X201127Y472667D01*
X200940Y472583D01*
X200780Y472417D01*
X200673Y472167D01*
X200620Y471833D01*
X200673Y471500D01*
X200780Y471250D01*
X200940Y471083D01*
X201127Y471000D01*
X201313Y471042D01*
X201473Y471167D01*
X201580Y471333D01*
G01X203300Y473500D02*
Y471000D01*
G01X202927Y472667D02*
X203673D01*
G01X205500D02*
Y471000D01*
G01Y473333D02*
X205447Y473375D01*
Y473458D01*
X205500Y473500D01*
X205553Y473458D01*
Y473375D01*
X205500Y473333D01*
G01X207700Y471000D02*
X207540Y471042D01*
X207380Y471208D01*
X207273Y471500D01*
X207220Y471833D01*
X207273Y472167D01*
X207380Y472458D01*
X207540Y472625D01*
X207700Y472667D01*
X207860Y472625D01*
X208020Y472458D01*
X208127Y472167D01*
X208153Y471833D01*
X208127Y471500D01*
X208020Y471208D01*
X207860Y471042D01*
X207700Y471000D01*
G01X209447D02*
Y472667D01*
G01Y472250D02*
X209553Y472458D01*
X209713Y472625D01*
X209927Y472667D01*
X210113Y472625D01*
X210273Y472458D01*
X210353Y472167D01*
Y471000D01*
G01X214727Y472458D02*
X214540Y472625D01*
X214380Y472667D01*
X214167Y472583D01*
X214007Y472417D01*
X213900Y472125D01*
X213873Y471833D01*
X213900Y471542D01*
X214007Y471292D01*
X214167Y471083D01*
X214380Y471000D01*
X214567Y471083D01*
X214727Y471250D01*
G01X216500Y471000D02*
X216340Y471042D01*
X216180Y471208D01*
X216073Y471500D01*
X216020Y471833D01*
X216073Y472167D01*
X216180Y472458D01*
X216340Y472625D01*
X216500Y472667D01*
X216660Y472625D01*
X216820Y472458D01*
X216927Y472167D01*
X216953Y471833D01*
X216927Y471500D01*
X216820Y471208D01*
X216660Y471042D01*
X216500Y471000D01*
G01X218247D02*
Y472667D01*
G01Y472250D02*
X218353Y472458D01*
X218513Y472625D01*
X218727Y472667D01*
X218913Y472625D01*
X219073Y472458D01*
X219153Y472167D01*
Y471000D01*
G01X220500Y471292D02*
X220633Y471125D01*
X220820Y471000D01*
X220980D01*
X221140Y471083D01*
X221247Y471208D01*
X221300Y471375D01*
X221273Y471625D01*
X221167Y471750D01*
X220687Y472000D01*
X220580Y472292D01*
X220633Y472500D01*
X220740Y472625D01*
X220900Y472667D01*
X221060Y472625D01*
X221220Y472500D01*
G01X223100Y472667D02*
Y471000D01*
G01Y473333D02*
X223047Y473375D01*
Y473458D01*
X223100Y473500D01*
X223153Y473458D01*
Y473375D01*
X223100Y473333D01*
G01X225780Y473500D02*
Y471000D01*
G01Y471375D02*
X225673Y471167D01*
X225513Y471042D01*
X225327Y471000D01*
X225113Y471083D01*
X224953Y471292D01*
X224847Y471542D01*
X224820Y471833D01*
X224847Y472125D01*
X224953Y472375D01*
X225113Y472583D01*
X225327Y472667D01*
X225513Y472625D01*
X225647Y472542D01*
X225780Y472375D01*
G01X227100Y472125D02*
X227953D01*
X227873Y472417D01*
X227740Y472583D01*
X227553Y472667D01*
X227367Y472625D01*
X227207Y472500D01*
X227100Y472208D01*
X227047Y471958D01*
Y471708D01*
X227100Y471458D01*
X227233Y471208D01*
X227393Y471042D01*
X227580Y471000D01*
X227767Y471083D01*
X227953Y471333D01*
G01X229327Y471000D02*
Y472667D01*
G01Y472333D02*
X229460Y472500D01*
X229593Y472625D01*
X229780Y472667D01*
X229913Y472625D01*
X230073Y472500D01*
G01X231500Y472125D02*
X232353D01*
X232273Y472417D01*
X232140Y472583D01*
X231953Y472667D01*
X231767Y472625D01*
X231607Y472500D01*
X231500Y472208D01*
X231447Y471958D01*
Y471708D01*
X231500Y471458D01*
X231633Y471208D01*
X231793Y471042D01*
X231980Y471000D01*
X232167Y471083D01*
X232353Y471333D01*
G01X234580Y473500D02*
Y471000D01*
G01Y471375D02*
X234473Y471167D01*
X234313Y471042D01*
X234127Y471000D01*
X233913Y471083D01*
X233753Y471292D01*
X233647Y471542D01*
X233620Y471833D01*
X233647Y472125D01*
X233753Y472375D01*
X233913Y472583D01*
X234127Y472667D01*
X234313Y472625D01*
X234447Y472542D01*
X234580Y472375D01*
G01X238020Y470167D02*
Y472667D01*
G01Y472292D02*
X238153Y472500D01*
X238287Y472625D01*
X238500Y472667D01*
X238687Y472625D01*
X238873Y472417D01*
X238953Y472125D01*
X238980Y471833D01*
X238953Y471542D01*
X238873Y471250D01*
X238713Y471083D01*
X238500Y471000D01*
X238313Y471042D01*
X238127Y471167D01*
X238020Y471333D01*
G01X240327Y471000D02*
Y472667D01*
G01Y472333D02*
X240460Y472500D01*
X240593Y472625D01*
X240780Y472667D01*
X240913Y472625D01*
X241073Y472500D01*
G01X242900Y471000D02*
X242740Y471042D01*
X242580Y471208D01*
X242473Y471500D01*
X242420Y471833D01*
X242473Y472167D01*
X242580Y472458D01*
X242740Y472625D01*
X242900Y472667D01*
X243060Y472625D01*
X243220Y472458D01*
X243327Y472167D01*
X243353Y471833D01*
X243327Y471500D01*
X243220Y471208D01*
X243060Y471042D01*
X242900Y471000D01*
G01X244620Y470167D02*
Y472667D01*
G01Y472292D02*
X244753Y472500D01*
X244887Y472625D01*
X245100Y472667D01*
X245287Y472625D01*
X245473Y472417D01*
X245553Y472125D01*
X245580Y471833D01*
X245553Y471542D01*
X245473Y471250D01*
X245313Y471083D01*
X245100Y471000D01*
X244913Y471042D01*
X244727Y471167D01*
X244620Y471333D01*
G01X246927Y471000D02*
Y472667D01*
G01Y472333D02*
X247060Y472500D01*
X247193Y472625D01*
X247380Y472667D01*
X247513Y472625D01*
X247673Y472500D01*
G01X249500Y472667D02*
Y471000D01*
G01Y473333D02*
X249447Y473375D01*
Y473458D01*
X249500Y473500D01*
X249553Y473458D01*
Y473375D01*
X249500Y473333D01*
G01X251300Y472125D02*
X252153D01*
X252073Y472417D01*
X251940Y472583D01*
X251753Y472667D01*
X251567Y472625D01*
X251407Y472500D01*
X251300Y472208D01*
X251247Y471958D01*
Y471708D01*
X251300Y471458D01*
X251433Y471208D01*
X251593Y471042D01*
X251780Y471000D01*
X251967Y471083D01*
X252153Y471333D01*
G01X253900Y473500D02*
Y471000D01*
G01X253527Y472667D02*
X254273D01*
G01X256580Y471000D02*
Y472667D01*
G01Y472375D02*
X256473Y472542D01*
X256313Y472625D01*
X256127Y472667D01*
X255940Y472583D01*
X255780Y472417D01*
X255673Y472167D01*
X255620Y471833D01*
X255673Y471500D01*
X255780Y471250D01*
X255940Y471083D01*
X256127Y471000D01*
X256313Y471042D01*
X256473Y471167D01*
X256580Y471333D01*
G01X257927Y471000D02*
Y472667D01*
G01Y472333D02*
X258060Y472500D01*
X258193Y472625D01*
X258380Y472667D01*
X258513Y472625D01*
X258673Y472500D01*
G01X259940Y470250D02*
X260100Y470167D01*
X260313Y470250D01*
X260447Y470417D01*
X260553Y470625D01*
X260713Y471292D01*
X261060Y472667D01*
G01X260207D02*
X260713Y471292D01*
G01X262647Y470542D02*
X262753Y471083D01*
G54D15*
G01X76950Y28000D02*
Y31000D01*
X78200D01*
X78600Y30850D01*
X78850Y30650D01*
X78950Y30250D01*
X78850Y29850D01*
X78550Y29600D01*
X78200Y29450D01*
X76950D01*
G01X78200D02*
X78950Y28000D01*
G01X80950D02*
X81050Y28650D01*
X81200Y29200D01*
X81400Y29700D01*
X81650Y30250D01*
X82050Y31000D01*
X80050D01*
G01X75500Y72750D02*
X75200Y72900D01*
X74850Y73000D01*
X74450D01*
X74000Y72850D01*
X73650Y72600D01*
X73400Y72300D01*
X73200Y71800D01*
X73150Y71350D01*
X73250Y70900D01*
X73400Y70600D01*
X73700Y70300D01*
X74050Y70100D01*
X74400Y70000D01*
X74750D01*
X75100Y70100D01*
X75400Y70250D01*
X75650Y70450D01*
G01X78100Y70000D02*
Y73000D01*
X76250Y70850D01*
X78750D01*
G01X80600Y73000D02*
X80200Y72900D01*
X79900Y72650D01*
X79700Y72350D01*
X79550Y71950D01*
X79500Y71500D01*
X79550Y71050D01*
X79700Y70650D01*
X79900Y70350D01*
X80200Y70100D01*
X80600Y70000D01*
X81000Y70100D01*
X81300Y70350D01*
X81500Y70650D01*
X81650Y71050D01*
X81700Y71500D01*
X81650Y71950D01*
X81500Y72350D01*
X81300Y72650D01*
X81000Y72900D01*
X80600Y73000D01*
G01X51250Y73550D02*
X51100Y73250D01*
X51000Y72900D01*
Y72500D01*
X51150Y72050D01*
X51400Y71700D01*
X51700Y71450D01*
X52200Y71250D01*
X52650Y71200D01*
X53100Y71300D01*
X53400Y71450D01*
X53700Y71750D01*
X53900Y72100D01*
X54000Y72450D01*
Y72800D01*
X53900Y73150D01*
X53750Y73450D01*
X53550Y73700D01*
G01X52750Y74600D02*
X52400Y74950D01*
X52200Y75250D01*
X52100Y75650D01*
X52200Y76000D01*
X52400Y76250D01*
X52700Y76450D01*
X53050Y76500D01*
X53350Y76450D01*
X53650Y76250D01*
X53900Y75950D01*
X54000Y75600D01*
X53900Y75200D01*
X53600Y74850D01*
X53150Y74650D01*
X52650Y74600D01*
X52000Y74700D01*
X51650Y74850D01*
X51300Y75100D01*
X51050Y75450D01*
X51000Y75800D01*
X51100Y76150D01*
X51350Y76400D01*
G01X77400Y60000D02*
Y63000D01*
X78650D01*
X79050Y62850D01*
X79300Y62650D01*
X79400Y62250D01*
X79300Y61850D01*
X79000Y61600D01*
X78650Y61450D01*
X77400D01*
G01X78650D02*
X79400Y60000D01*
G01X81500D02*
Y63000D01*
X80900Y62400D01*
G01Y60000D02*
X82100D01*
G01X83650Y61250D02*
X84000Y61600D01*
X84300Y61800D01*
X84700Y61900D01*
X85050Y61800D01*
X85300Y61600D01*
X85500Y61300D01*
X85550Y60950D01*
X85500Y60650D01*
X85300Y60350D01*
X85000Y60100D01*
X84650Y60000D01*
X84250Y60100D01*
X83900Y60400D01*
X83700Y60850D01*
X83650Y61350D01*
X83750Y62000D01*
X83900Y62350D01*
X84150Y62700D01*
X84500Y62950D01*
X84850Y63000D01*
X85200Y62900D01*
X85450Y62650D01*
G01X77400Y56000D02*
Y59000D01*
X78650D01*
X79050Y58850D01*
X79300Y58650D01*
X79400Y58250D01*
X79300Y57850D01*
X79000Y57600D01*
X78650Y57450D01*
X77400D01*
G01X78650D02*
X79400Y56000D01*
G01X81500D02*
Y59000D01*
X80900Y58400D01*
G01Y56000D02*
X82100D01*
G01X84500D02*
X84600Y56650D01*
X84750Y57200D01*
X84950Y57700D01*
X85200Y58250D01*
X85600Y59000D01*
X83600D01*
G01X76900Y52500D02*
Y55500D01*
X78150D01*
X78550Y55350D01*
X78800Y55150D01*
X78900Y54750D01*
X78800Y54350D01*
X78500Y54100D01*
X78150Y53950D01*
X76900D01*
G01X78150D02*
X78900Y52500D01*
G01X81000D02*
Y55500D01*
X80400Y54900D01*
G01Y52500D02*
X81600D01*
G01X84100D02*
X84450Y52550D01*
X84850Y52700D01*
X85100Y52950D01*
X85200Y53300D01*
X85100Y53650D01*
X84800Y53950D01*
X84350Y54100D01*
X83850D01*
X83550Y54200D01*
X83300Y54450D01*
X83200Y54800D01*
X83350Y55150D01*
X83700Y55400D01*
X84100Y55500D01*
X84500Y55400D01*
X84850Y55150D01*
X85000Y54800D01*
X84900Y54450D01*
X84650Y54200D01*
X84350Y54100D01*
X83850D01*
X83400Y53950D01*
X83100Y53650D01*
X83000Y53300D01*
X83100Y52950D01*
X83350Y52700D01*
X83750Y52550D01*
X84100Y52500D01*
G01X76900Y48000D02*
Y51000D01*
X78150D01*
X78550Y50850D01*
X78800Y50650D01*
X78900Y50250D01*
X78800Y49850D01*
X78500Y49600D01*
X78150Y49450D01*
X76900D01*
G01X78150D02*
X78900Y48000D01*
G01X81000D02*
Y51000D01*
X80400Y50400D01*
G01Y48000D02*
X81600D01*
G01X83250Y48350D02*
X83600Y48100D01*
X84000Y48000D01*
X84400Y48100D01*
X84750Y48400D01*
X85000Y48850D01*
X85100Y49300D01*
Y49850D01*
X85000Y50300D01*
X84750Y50700D01*
X84450Y50900D01*
X84100Y51000D01*
X83700Y50900D01*
X83400Y50700D01*
X83200Y50400D01*
X83100Y50000D01*
X83200Y49650D01*
X83450Y49300D01*
X83750Y49100D01*
X84100Y49050D01*
X84500Y49150D01*
X84800Y49400D01*
X85100Y49850D01*
G01X76400Y64500D02*
Y67500D01*
X77650D01*
X78050Y67350D01*
X78300Y67150D01*
X78400Y66750D01*
X78300Y66350D01*
X78000Y66100D01*
X77650Y65950D01*
X76400D01*
G01X77650D02*
X78400Y64500D01*
G01X79550Y67000D02*
X79850Y67300D01*
X80200Y67450D01*
X80600Y67500D01*
X81100Y67400D01*
X81450Y67150D01*
X81550Y66850D01*
X81500Y66550D01*
X81300Y66300D01*
X80300Y65800D01*
X79850Y65450D01*
X79550Y64950D01*
X79450Y64500D01*
X81550D01*
G01X83600Y67500D02*
X83200Y67400D01*
X82900Y67150D01*
X82700Y66850D01*
X82550Y66450D01*
X82500Y66000D01*
X82550Y65550D01*
X82700Y65150D01*
X82900Y64850D01*
X83200Y64600D01*
X83600Y64500D01*
X84000Y64600D01*
X84300Y64850D01*
X84500Y65150D01*
X84650Y65550D01*
X84700Y66000D01*
X84650Y66450D01*
X84500Y66850D01*
X84300Y67150D01*
X84000Y67400D01*
X83600Y67500D01*
G01X63500Y68400D02*
X60500D01*
Y69650D01*
X60650Y70050D01*
X60850Y70300D01*
X61250Y70400D01*
X61650Y70300D01*
X61900Y70000D01*
X62050Y69650D01*
Y68400D01*
G01Y69650D02*
X63500Y70400D01*
G01X61000Y71550D02*
X60700Y71850D01*
X60550Y72200D01*
X60500Y72600D01*
X60600Y73100D01*
X60850Y73450D01*
X61150Y73550D01*
X61450Y73500D01*
X61700Y73300D01*
X62200Y72300D01*
X62550Y71850D01*
X63050Y71550D01*
X63500Y71450D01*
Y73550D01*
G01Y76200D02*
X60500D01*
X62650Y74350D01*
Y76850D01*
G01X59000Y68400D02*
X56000D01*
Y69650D01*
X56150Y70050D01*
X56350Y70300D01*
X56750Y70400D01*
X57150Y70300D01*
X57400Y70000D01*
X57550Y69650D01*
Y68400D01*
G01Y69650D02*
X59000Y70400D01*
G01X56500Y71550D02*
X56200Y71850D01*
X56050Y72200D01*
X56000Y72600D01*
X56100Y73100D01*
X56350Y73450D01*
X56650Y73550D01*
X56950Y73500D01*
X57200Y73300D01*
X57700Y72300D01*
X58050Y71850D01*
X58550Y71550D01*
X59000Y71450D01*
Y73550D01*
G01X58400Y74500D02*
X58750Y74800D01*
X58950Y75200D01*
X59000Y75650D01*
X58950Y76050D01*
X58700Y76450D01*
X58400Y76700D01*
X58100Y76750D01*
X57750Y76650D01*
X57500Y76300D01*
X57400Y75950D01*
Y75500D01*
G01Y75950D02*
X57250Y76250D01*
X57000Y76500D01*
X56700Y76600D01*
X56400Y76500D01*
X56150Y76250D01*
X56000Y75800D01*
X56050Y75350D01*
X56250Y74900D01*
G01X60600Y46000D02*
Y49000D01*
X58750Y46850D01*
X61250D01*
G01X67350Y39400D02*
X67750Y39150D01*
X68200Y39000D01*
X68600D01*
X69000Y39150D01*
X69300Y39400D01*
X69450Y39750D01*
X69350Y40100D01*
X69100Y40400D01*
X68650Y40600D01*
X68050Y40700D01*
X67700Y40900D01*
X67550Y41250D01*
X67650Y41600D01*
X67900Y41850D01*
X68250Y42000D01*
X68600D01*
X68950Y41900D01*
X69250Y41650D01*
G01X70000Y42000D02*
X70700Y39000D01*
X71500Y42000D01*
X72300Y39000D01*
X73000Y42000D01*
G01X73650Y41500D02*
X73950Y41800D01*
X74300Y41950D01*
X74700Y42000D01*
X75200Y41900D01*
X75550Y41650D01*
X75650Y41350D01*
X75600Y41050D01*
X75400Y40800D01*
X74400Y40300D01*
X73950Y39950D01*
X73650Y39450D01*
X73550Y39000D01*
X75650D01*
G01X38100Y45000D02*
Y48000D01*
X36250Y45850D01*
X38750D01*
G01X46350Y38900D02*
X46750Y38650D01*
X47200Y38500D01*
X47600D01*
X48000Y38650D01*
X48300Y38900D01*
X48450Y39250D01*
X48350Y39600D01*
X48100Y39900D01*
X47650Y40100D01*
X47050Y40200D01*
X46700Y40400D01*
X46550Y40750D01*
X46650Y41100D01*
X46900Y41350D01*
X47250Y41500D01*
X47600D01*
X47950Y41400D01*
X48250Y41150D01*
G01X49000Y41500D02*
X49700Y38500D01*
X50500Y41500D01*
X51300Y38500D01*
X52000Y41500D01*
G01X53600Y38500D02*
Y41500D01*
X53000Y40900D01*
G01Y38500D02*
X54200D01*
G01X77850Y33500D02*
Y36500D01*
X78850D01*
X79250Y36350D01*
X79550Y36150D01*
X79800Y35850D01*
X80000Y35500D01*
X80050Y35000D01*
X80000Y34500D01*
X79800Y34150D01*
X79550Y33850D01*
X79250Y33650D01*
X78850Y33500D01*
X77850D01*
G01X81100Y36000D02*
X81400Y36300D01*
X81750Y36450D01*
X82150Y36500D01*
X82650Y36400D01*
X83000Y36150D01*
X83100Y35850D01*
X83050Y35550D01*
X82850Y35300D01*
X81850Y34800D01*
X81400Y34450D01*
X81100Y33950D01*
X81000Y33500D01*
X83100D01*
G01X78850Y41500D02*
Y44500D01*
X79850D01*
X80250Y44350D01*
X80550Y44150D01*
X80800Y43850D01*
X81000Y43500D01*
X81050Y43000D01*
X81000Y42500D01*
X80800Y42150D01*
X80550Y41850D01*
X80250Y41650D01*
X79850Y41500D01*
X78850D01*
G01X81950Y42100D02*
X82250Y41750D01*
X82650Y41550D01*
X83100Y41500D01*
X83500Y41550D01*
X83900Y41800D01*
X84150Y42100D01*
X84200Y42400D01*
X84100Y42750D01*
X83750Y43000D01*
X83400Y43100D01*
X82950D01*
G01X83400D02*
X83700Y43250D01*
X83950Y43500D01*
X84050Y43800D01*
X83950Y44100D01*
X83700Y44350D01*
X83250Y44500D01*
X82800Y44450D01*
X82350Y44250D01*
G01X67300Y33600D02*
X67500Y33750D01*
X67650Y34000D01*
X67750Y34350D01*
X67650Y34650D01*
X67450Y34850D01*
X67100Y35000D01*
X65750D01*
Y32000D01*
X67400D01*
X67750Y32200D01*
X67950Y32500D01*
X68050Y32850D01*
X67950Y33200D01*
X67650Y33500D01*
X67300Y33600D01*
X65750D01*
G01X70000Y35000D02*
Y32000D01*
G01X68850Y35000D02*
X71150D01*
G01X73100Y32000D02*
Y35000D01*
X72500Y34400D01*
G01Y32000D02*
X73700D01*
G01X37500Y6450D02*
X34500D01*
X35100Y5850D01*
G01X37500D02*
Y7050D01*
G01Y9550D02*
X37450Y9900D01*
X37300Y10300D01*
X37050Y10550D01*
X36700Y10650D01*
X36350Y10550D01*
X36050Y10250D01*
X35900Y9800D01*
Y9300D01*
X35800Y9000D01*
X35550Y8750D01*
X35200Y8650D01*
X34850Y8800D01*
X34600Y9150D01*
X34500Y9550D01*
X34600Y9950D01*
X34850Y10300D01*
X35200Y10450D01*
X35550Y10350D01*
X35800Y10100D01*
X35900Y9800D01*
Y9300D01*
X36050Y8850D01*
X36350Y8550D01*
X36700Y8450D01*
X37050Y8550D01*
X37300Y8800D01*
X37450Y9200D01*
X37500Y9550D01*
G01X73250Y161050D02*
X73100Y160750D01*
X73000Y160400D01*
Y160000D01*
X73150Y159550D01*
X73400Y159200D01*
X73700Y158950D01*
X74200Y158750D01*
X74650Y158700D01*
X75100Y158800D01*
X75400Y158950D01*
X75700Y159250D01*
X75900Y159600D01*
X76000Y159950D01*
Y160300D01*
X75900Y160650D01*
X75750Y160950D01*
X75550Y161200D01*
G01X76000Y163050D02*
X75950Y163400D01*
X75800Y163800D01*
X75550Y164050D01*
X75200Y164150D01*
X74850Y164050D01*
X74550Y163750D01*
X74400Y163300D01*
Y162800D01*
X74300Y162500D01*
X74050Y162250D01*
X73700Y162150D01*
X73350Y162300D01*
X73100Y162650D01*
X73000Y163050D01*
X73100Y163450D01*
X73350Y163800D01*
X73700Y163950D01*
X74050Y163850D01*
X74300Y163600D01*
X74400Y163300D01*
Y162800D01*
X74550Y162350D01*
X74850Y162050D01*
X75200Y161950D01*
X75550Y162050D01*
X75800Y162300D01*
X75950Y162700D01*
X76000Y163050D01*
G01X66500Y158250D02*
X66200Y158400D01*
X65850Y158500D01*
X65450D01*
X65000Y158350D01*
X64650Y158100D01*
X64400Y157800D01*
X64200Y157300D01*
X64150Y156850D01*
X64250Y156400D01*
X64400Y156100D01*
X64700Y155800D01*
X65050Y155600D01*
X65400Y155500D01*
X65750D01*
X66100Y155600D01*
X66400Y155750D01*
X66650Y155950D01*
G01X69100Y155500D02*
Y158500D01*
X67250Y156350D01*
X69750D01*
G01X71600Y155500D02*
Y158500D01*
X71000Y157900D01*
G01Y155500D02*
X72200D01*
G01X85500Y89750D02*
X85200Y89900D01*
X84850Y90000D01*
X84450D01*
X84000Y89850D01*
X83650Y89600D01*
X83400Y89300D01*
X83200Y88800D01*
X83150Y88350D01*
X83250Y87900D01*
X83400Y87600D01*
X83700Y87300D01*
X84050Y87100D01*
X84400Y87000D01*
X84750D01*
X85100Y87100D01*
X85400Y87250D01*
X85650Y87450D01*
G01X86400Y87600D02*
X86700Y87250D01*
X87100Y87050D01*
X87550Y87000D01*
X87950Y87050D01*
X88350Y87300D01*
X88600Y87600D01*
X88650Y87900D01*
X88550Y88250D01*
X88200Y88500D01*
X87850Y88600D01*
X87400D01*
G01X87850D02*
X88150Y88750D01*
X88400Y89000D01*
X88500Y89300D01*
X88400Y89600D01*
X88150Y89850D01*
X87700Y90000D01*
X87250Y89950D01*
X86800Y89750D01*
G01X90600Y87000D02*
X90950Y87050D01*
X91350Y87200D01*
X91600Y87450D01*
X91700Y87800D01*
X91600Y88150D01*
X91300Y88450D01*
X90850Y88600D01*
X90350D01*
X90050Y88700D01*
X89800Y88950D01*
X89700Y89300D01*
X89850Y89650D01*
X90200Y89900D01*
X90600Y90000D01*
X91000Y89900D01*
X91350Y89650D01*
X91500Y89300D01*
X91400Y88950D01*
X91150Y88700D01*
X90850Y88600D01*
X90350D01*
X89900Y88450D01*
X89600Y88150D01*
X89500Y87800D01*
X89600Y87450D01*
X89850Y87200D01*
X90250Y87050D01*
X90600Y87000D01*
G01X73000Y146750D02*
X72700Y146900D01*
X72350Y147000D01*
X71950D01*
X71500Y146850D01*
X71150Y146600D01*
X70900Y146300D01*
X70700Y145800D01*
X70650Y145350D01*
X70750Y144900D01*
X70900Y144600D01*
X71200Y144300D01*
X71550Y144100D01*
X71900Y144000D01*
X72250D01*
X72600Y144100D01*
X72900Y144250D01*
X73150Y144450D01*
G01X75000Y144000D02*
Y147000D01*
X74400Y146400D01*
G01Y144000D02*
X75600D01*
G01X78100D02*
Y147000D01*
X77500Y146400D01*
G01Y144000D02*
X78700D01*
G01X75550Y142250D02*
X75250Y142400D01*
X74900Y142500D01*
X74500D01*
X74050Y142350D01*
X73700Y142100D01*
X73450Y141800D01*
X73250Y141300D01*
X73200Y140850D01*
X73300Y140400D01*
X73450Y140100D01*
X73750Y139800D01*
X74100Y139600D01*
X74450Y139500D01*
X74800D01*
X75150Y139600D01*
X75450Y139750D01*
X75700Y139950D01*
G01X76700Y139850D02*
X77050Y139600D01*
X77450Y139500D01*
X77850Y139600D01*
X78200Y139900D01*
X78450Y140350D01*
X78550Y140800D01*
Y141350D01*
X78450Y141800D01*
X78200Y142200D01*
X77900Y142400D01*
X77550Y142500D01*
X77150Y142400D01*
X76850Y142200D01*
X76650Y141900D01*
X76550Y141500D01*
X76650Y141150D01*
X76900Y140800D01*
X77200Y140600D01*
X77550Y140550D01*
X77950Y140650D01*
X78250Y140900D01*
X78550Y141350D01*
G01X67250Y179000D02*
X67100Y178700D01*
X67000Y178350D01*
Y177950D01*
X67150Y177500D01*
X67400Y177150D01*
X67700Y176900D01*
X68200Y176700D01*
X68650Y176650D01*
X69100Y176750D01*
X69400Y176900D01*
X69700Y177200D01*
X69900Y177550D01*
X70000Y177900D01*
Y178250D01*
X69900Y178600D01*
X69750Y178900D01*
X69550Y179150D01*
G01X69400Y179900D02*
X69750Y180200D01*
X69950Y180600D01*
X70000Y181050D01*
X69950Y181450D01*
X69700Y181850D01*
X69400Y182100D01*
X69100Y182150D01*
X68750Y182050D01*
X68500Y181700D01*
X68400Y181350D01*
Y180900D01*
G01Y181350D02*
X68250Y181650D01*
X68000Y181900D01*
X67700Y182000D01*
X67400Y181900D01*
X67150Y181650D01*
X67000Y181200D01*
X67050Y180750D01*
X67250Y180300D01*
G01X68750Y183150D02*
X68400Y183500D01*
X68200Y183800D01*
X68100Y184200D01*
X68200Y184550D01*
X68400Y184800D01*
X68700Y185000D01*
X69050Y185050D01*
X69350Y185000D01*
X69650Y184800D01*
X69900Y184500D01*
X70000Y184150D01*
X69900Y183750D01*
X69600Y183400D01*
X69150Y183200D01*
X68650Y183150D01*
X68000Y183250D01*
X67650Y183400D01*
X67300Y183650D01*
X67050Y184000D01*
X67000Y184350D01*
X67100Y184700D01*
X67350Y184950D01*
G01X40250Y92050D02*
X40100Y91750D01*
X40000Y91400D01*
Y91000D01*
X40150Y90550D01*
X40400Y90200D01*
X40700Y89950D01*
X41200Y89750D01*
X41650Y89700D01*
X42100Y89800D01*
X42400Y89950D01*
X42700Y90250D01*
X42900Y90600D01*
X43000Y90950D01*
Y91300D01*
X42900Y91650D01*
X42750Y91950D01*
X42550Y92200D01*
G01X43000Y94050D02*
X40000D01*
X40600Y93450D01*
G01X43000D02*
Y94650D01*
G01X43050Y77250D02*
X42750Y77400D01*
X42400Y77500D01*
X42000D01*
X41550Y77350D01*
X41200Y77100D01*
X40950Y76800D01*
X40750Y76300D01*
X40700Y75850D01*
X40800Y75400D01*
X40950Y75100D01*
X41250Y74800D01*
X41600Y74600D01*
X41950Y74500D01*
X42300D01*
X42650Y74600D01*
X42950Y74750D01*
X43200Y74950D01*
G01X44100Y77000D02*
X44400Y77300D01*
X44750Y77450D01*
X45150Y77500D01*
X45650Y77400D01*
X46000Y77150D01*
X46100Y76850D01*
X46050Y76550D01*
X45850Y76300D01*
X44850Y75800D01*
X44400Y75450D01*
X44100Y74950D01*
X44000Y74500D01*
X46100D01*
G01X66000Y78750D02*
X65700Y78900D01*
X65350Y79000D01*
X64950D01*
X64500Y78850D01*
X64150Y78600D01*
X63900Y78300D01*
X63700Y77800D01*
X63650Y77350D01*
X63750Y76900D01*
X63900Y76600D01*
X64200Y76300D01*
X64550Y76100D01*
X64900Y76000D01*
X65250D01*
X65600Y76100D01*
X65900Y76250D01*
X66150Y76450D01*
G01X67050Y78500D02*
X67350Y78800D01*
X67700Y78950D01*
X68100Y79000D01*
X68600Y78900D01*
X68950Y78650D01*
X69050Y78350D01*
X69000Y78050D01*
X68800Y77800D01*
X67800Y77300D01*
X67350Y76950D01*
X67050Y76450D01*
X66950Y76000D01*
X69050D01*
G01X70150Y78500D02*
X70450Y78800D01*
X70800Y78950D01*
X71200Y79000D01*
X71700Y78900D01*
X72050Y78650D01*
X72150Y78350D01*
X72100Y78050D01*
X71900Y77800D01*
X70900Y77300D01*
X70450Y76950D01*
X70150Y76450D01*
X70050Y76000D01*
X72150D01*
G01X76000Y77250D02*
X75700Y77400D01*
X75350Y77500D01*
X74950D01*
X74500Y77350D01*
X74150Y77100D01*
X73900Y76800D01*
X73700Y76300D01*
X73650Y75850D01*
X73750Y75400D01*
X73900Y75100D01*
X74200Y74800D01*
X74550Y74600D01*
X74900Y74500D01*
X75250D01*
X75600Y74600D01*
X75900Y74750D01*
X76150Y74950D01*
G01X76900Y75100D02*
X77200Y74750D01*
X77600Y74550D01*
X78050Y74500D01*
X78450Y74550D01*
X78850Y74800D01*
X79100Y75100D01*
X79150Y75400D01*
X79050Y75750D01*
X78700Y76000D01*
X78350Y76100D01*
X77900D01*
G01X78350D02*
X78650Y76250D01*
X78900Y76500D01*
X79000Y76800D01*
X78900Y77100D01*
X78650Y77350D01*
X78200Y77500D01*
X77750Y77450D01*
X77300Y77250D01*
G01X80250Y74850D02*
X80600Y74600D01*
X81000Y74500D01*
X81400Y74600D01*
X81750Y74900D01*
X82000Y75350D01*
X82100Y75800D01*
Y76350D01*
X82000Y76800D01*
X81750Y77200D01*
X81450Y77400D01*
X81100Y77500D01*
X80700Y77400D01*
X80400Y77200D01*
X80200Y76900D01*
X80100Y76500D01*
X80200Y76150D01*
X80450Y75800D01*
X80750Y75600D01*
X81100Y75550D01*
X81500Y75650D01*
X81800Y75900D01*
X82100Y76350D01*
G01X71400Y183000D02*
Y186000D01*
X72650D01*
X73050Y185850D01*
X73300Y185650D01*
X73400Y185250D01*
X73300Y184850D01*
X73000Y184600D01*
X72650Y184450D01*
X71400D01*
G01X72650D02*
X73400Y183000D01*
G01X75500D02*
Y186000D01*
X74900Y185400D01*
G01Y183000D02*
X76100D01*
G01X79200D02*
Y186000D01*
X77350Y183850D01*
X79850D01*
G01X61400Y139000D02*
Y142000D01*
X62650D01*
X63050Y141850D01*
X63300Y141650D01*
X63400Y141250D01*
X63300Y140850D01*
X63000Y140600D01*
X62650Y140450D01*
X61400D01*
G01X62650D02*
X63400Y139000D01*
G01X65500D02*
Y142000D01*
X64900Y141400D01*
G01Y139000D02*
X66100D01*
G01X67650Y141500D02*
X67950Y141800D01*
X68300Y141950D01*
X68700Y142000D01*
X69200Y141900D01*
X69550Y141650D01*
X69650Y141350D01*
X69600Y141050D01*
X69400Y140800D01*
X68400Y140300D01*
X67950Y139950D01*
X67650Y139450D01*
X67550Y139000D01*
X69650D01*
G01X80400Y129000D02*
Y132000D01*
X81650D01*
X82050Y131850D01*
X82300Y131650D01*
X82400Y131250D01*
X82300Y130850D01*
X82000Y130600D01*
X81650Y130450D01*
X80400D01*
G01X81650D02*
X82400Y129000D01*
G01X84500D02*
Y132000D01*
X83900Y131400D01*
G01Y129000D02*
X85100D01*
G01X86500Y129600D02*
X86800Y129250D01*
X87200Y129050D01*
X87650Y129000D01*
X88050Y129050D01*
X88450Y129300D01*
X88700Y129600D01*
X88750Y129900D01*
X88650Y130250D01*
X88300Y130500D01*
X87950Y130600D01*
X87500D01*
G01X87950D02*
X88250Y130750D01*
X88500Y131000D01*
X88600Y131300D01*
X88500Y131600D01*
X88250Y131850D01*
X87800Y132000D01*
X87350Y131950D01*
X86900Y131750D01*
G01X73500Y181250D02*
X73200Y181400D01*
X72850Y181500D01*
X72450D01*
X72000Y181350D01*
X71650Y181100D01*
X71400Y180800D01*
X71200Y180300D01*
X71150Y179850D01*
X71250Y179400D01*
X71400Y179100D01*
X71700Y178800D01*
X72050Y178600D01*
X72400Y178500D01*
X72750D01*
X73100Y178600D01*
X73400Y178750D01*
X73650Y178950D01*
G01X76100Y178500D02*
Y181500D01*
X74250Y179350D01*
X76750D01*
G01X77650Y181000D02*
X77950Y181300D01*
X78300Y181450D01*
X78700Y181500D01*
X79200Y181400D01*
X79550Y181150D01*
X79650Y180850D01*
X79600Y180550D01*
X79400Y180300D01*
X78400Y179800D01*
X77950Y179450D01*
X77650Y178950D01*
X77550Y178500D01*
X79650D01*
G01X59250Y128500D02*
X59100Y128200D01*
X59000Y127850D01*
Y127450D01*
X59150Y127000D01*
X59400Y126650D01*
X59700Y126400D01*
X60200Y126200D01*
X60650Y126150D01*
X61100Y126250D01*
X61400Y126400D01*
X61700Y126700D01*
X61900Y127050D01*
X62000Y127400D01*
Y127750D01*
X61900Y128100D01*
X61750Y128400D01*
X61550Y128650D01*
G01X62000Y130500D02*
X59000D01*
X59600Y129900D01*
G01X62000D02*
Y131100D01*
G01X59000Y133600D02*
X59100Y133200D01*
X59350Y132900D01*
X59650Y132700D01*
X60050Y132550D01*
X60500Y132500D01*
X60950Y132550D01*
X61350Y132700D01*
X61650Y132900D01*
X61900Y133200D01*
X62000Y133600D01*
X61900Y134000D01*
X61650Y134300D01*
X61350Y134500D01*
X60950Y134650D01*
X60500Y134700D01*
X60050Y134650D01*
X59650Y134500D01*
X59350Y134300D01*
X59100Y134000D01*
X59000Y133600D01*
G01X63750Y128500D02*
X63600Y128200D01*
X63500Y127850D01*
Y127450D01*
X63650Y127000D01*
X63900Y126650D01*
X64200Y126400D01*
X64700Y126200D01*
X65150Y126150D01*
X65600Y126250D01*
X65900Y126400D01*
X66200Y126700D01*
X66400Y127050D01*
X66500Y127400D01*
Y127750D01*
X66400Y128100D01*
X66250Y128400D01*
X66050Y128650D01*
G01X66500Y130500D02*
X63500D01*
X64100Y129900D01*
G01X66500D02*
Y131100D01*
G01X66050Y132500D02*
X66300Y132800D01*
X66450Y133150D01*
X66500Y133600D01*
X66400Y134050D01*
X66200Y134400D01*
X65850Y134650D01*
X65450Y134700D01*
X65050Y134600D01*
X64800Y134350D01*
X64600Y134000D01*
X64550Y133650D01*
X64600Y133300D01*
X64800Y132850D01*
X63500Y133000D01*
Y134350D01*
G01X36500Y107250D02*
X36200Y107400D01*
X35850Y107500D01*
X35450D01*
X35000Y107350D01*
X34650Y107100D01*
X34400Y106800D01*
X34200Y106300D01*
X34150Y105850D01*
X34250Y105400D01*
X34400Y105100D01*
X34700Y104800D01*
X35050Y104600D01*
X35400Y104500D01*
X35750D01*
X36100Y104600D01*
X36400Y104750D01*
X36650Y104950D01*
G01X37550Y107000D02*
X37850Y107300D01*
X38200Y107450D01*
X38600Y107500D01*
X39100Y107400D01*
X39450Y107150D01*
X39550Y106850D01*
X39500Y106550D01*
X39300Y106300D01*
X38300Y105800D01*
X37850Y105450D01*
X37550Y104950D01*
X37450Y104500D01*
X39550D01*
G01X41500D02*
X41600Y105150D01*
X41750Y105700D01*
X41950Y106200D01*
X42200Y106750D01*
X42600Y107500D01*
X40600D01*
G01X38550Y111750D02*
X38250Y111900D01*
X37900Y112000D01*
X37500D01*
X37050Y111850D01*
X36700Y111600D01*
X36450Y111300D01*
X36250Y110800D01*
X36200Y110350D01*
X36300Y109900D01*
X36450Y109600D01*
X36750Y109300D01*
X37100Y109100D01*
X37450Y109000D01*
X37800D01*
X38150Y109100D01*
X38450Y109250D01*
X38700Y109450D01*
G01X39450Y109600D02*
X39750Y109250D01*
X40150Y109050D01*
X40600Y109000D01*
X41000Y109050D01*
X41400Y109300D01*
X41650Y109600D01*
X41700Y109900D01*
X41600Y110250D01*
X41250Y110500D01*
X40900Y110600D01*
X40450D01*
G01X40900D02*
X41200Y110750D01*
X41450Y111000D01*
X41550Y111300D01*
X41450Y111600D01*
X41200Y111850D01*
X40750Y112000D01*
X40300Y111950D01*
X39850Y111750D01*
G01X77000Y126950D02*
X74000D01*
Y128200D01*
X74150Y128600D01*
X74350Y128850D01*
X74750Y128950D01*
X75150Y128850D01*
X75400Y128550D01*
X75550Y128200D01*
Y126950D01*
G01Y128200D02*
X77000Y128950D01*
G01Y131650D02*
X74000D01*
X76150Y129800D01*
Y132300D01*
G01X72500Y126950D02*
X69500D01*
Y128200D01*
X69650Y128600D01*
X69850Y128850D01*
X70250Y128950D01*
X70650Y128850D01*
X70900Y128550D01*
X71050Y128200D01*
Y126950D01*
G01Y128200D02*
X72500Y128950D01*
G01X72050Y129950D02*
X72300Y130250D01*
X72450Y130600D01*
X72500Y131050D01*
X72400Y131500D01*
X72200Y131850D01*
X71850Y132100D01*
X71450Y132150D01*
X71050Y132050D01*
X70800Y131800D01*
X70600Y131450D01*
X70550Y131100D01*
X70600Y130750D01*
X70800Y130300D01*
X69500Y130450D01*
Y131800D01*
G01X38850Y117750D02*
X38550Y117900D01*
X38200Y118000D01*
X37800D01*
X37350Y117850D01*
X37000Y117600D01*
X36750Y117300D01*
X36550Y116800D01*
X36500Y116350D01*
X36600Y115900D01*
X36750Y115600D01*
X37050Y115300D01*
X37400Y115100D01*
X37750Y115000D01*
X38100D01*
X38450Y115100D01*
X38750Y115250D01*
X39000Y115450D01*
G01X39750D02*
X40050Y115200D01*
X40400Y115050D01*
X40850Y115000D01*
X41300Y115100D01*
X41650Y115300D01*
X41900Y115650D01*
X41950Y116050D01*
X41850Y116450D01*
X41600Y116700D01*
X41250Y116900D01*
X40900Y116950D01*
X40550Y116900D01*
X40100Y116700D01*
X40250Y118000D01*
X41600D01*
G01X46350Y118150D02*
X46050Y118300D01*
X45700Y118400D01*
X45300D01*
X44850Y118250D01*
X44500Y118000D01*
X44250Y117700D01*
X44050Y117200D01*
X44000Y116750D01*
X44100Y116300D01*
X44250Y116000D01*
X44550Y115700D01*
X44900Y115500D01*
X45250Y115400D01*
X45600D01*
X45950Y115500D01*
X46250Y115650D01*
X46500Y115850D01*
G01X48950Y115400D02*
Y118400D01*
X47100Y116250D01*
X49600D01*
G01X49450Y138000D02*
Y139350D01*
X48450Y141000D01*
G01X50450D02*
X49450Y139350D01*
G01X52550Y138000D02*
Y141000D01*
X51950Y140400D01*
G01Y138000D02*
X53150D01*
G01X48500Y97850D02*
X50650D01*
X51100Y98050D01*
X51400Y98450D01*
X51500Y98950D01*
X51400Y99450D01*
X51100Y99850D01*
X50650Y100050D01*
X48500D01*
G01X51500Y102050D02*
X48500D01*
X49100Y101450D01*
G01X51500D02*
Y102650D01*
G01X40000Y185450D02*
X37000D01*
X37600Y184850D01*
G01X40000D02*
Y186050D01*
G01X37000Y188550D02*
X37100Y188150D01*
X37350Y187850D01*
X37650Y187650D01*
X38050Y187500D01*
X38500Y187450D01*
X38950Y187500D01*
X39350Y187650D01*
X39650Y187850D01*
X39900Y188150D01*
X40000Y188550D01*
X39900Y188950D01*
X39650Y189250D01*
X39350Y189450D01*
X38950Y189600D01*
X38500Y189650D01*
X38050Y189600D01*
X37650Y189450D01*
X37350Y189250D01*
X37100Y188950D01*
X37000Y188550D01*
G01X65650Y186150D02*
X65900Y186500D01*
X66000Y186900D01*
X65900Y187300D01*
X65600Y187650D01*
X65150Y187900D01*
X64700Y188000D01*
X64150D01*
X63700Y187900D01*
X63300Y187650D01*
X63100Y187350D01*
X63000Y187000D01*
X63100Y186600D01*
X63300Y186300D01*
X63600Y186100D01*
X64000Y186000D01*
X64350Y186100D01*
X64700Y186350D01*
X64900Y186650D01*
X64950Y187000D01*
X64850Y187400D01*
X64600Y187700D01*
X64150Y188000D01*
G01X37000Y166550D02*
X36700Y166850D01*
X36550Y167200D01*
X36500Y167600D01*
X36600Y168100D01*
X36850Y168450D01*
X37150Y168550D01*
X37450Y168500D01*
X37700Y168300D01*
X38200Y167300D01*
X38550Y166850D01*
X39050Y166550D01*
X39500Y166450D01*
Y168550D01*
G01X64500Y167000D02*
X61500D01*
X62100Y166400D01*
G01X64500D02*
Y167600D01*
G01X64900Y175950D02*
X65200Y176200D01*
X65400Y176500D01*
X65500Y176850D01*
X65400Y177250D01*
X65200Y177550D01*
X64900Y177850D01*
X64500Y177950D01*
X62500D01*
G01X64250Y179100D02*
X63900Y179450D01*
X63700Y179750D01*
X63600Y180150D01*
X63700Y180500D01*
X63900Y180750D01*
X64200Y180950D01*
X64550Y181000D01*
X64850Y180950D01*
X65150Y180750D01*
X65400Y180450D01*
X65500Y180100D01*
X65400Y179700D01*
X65100Y179350D01*
X64650Y179150D01*
X64150Y179100D01*
X63500Y179200D01*
X63150Y179350D01*
X62800Y179600D01*
X62550Y179950D01*
X62500Y180300D01*
X62600Y180650D01*
X62850Y180900D01*
G01X29500Y186000D02*
X26500D01*
X27100Y185400D01*
G01X29500D02*
Y186600D01*
G01X37900Y141950D02*
X38200Y142200D01*
X38400Y142500D01*
X38500Y142850D01*
X38400Y143250D01*
X38200Y143550D01*
X37900Y143850D01*
X37500Y143950D01*
X35500D01*
G01X38500Y146050D02*
X35500D01*
X36100Y145450D01*
G01X38500D02*
Y146650D01*
G01X79150Y207500D02*
Y210500D01*
X80450Y208000D01*
X81750Y210500D01*
Y207500D01*
G01X83550D02*
Y210500D01*
X82950Y209900D01*
G01Y207500D02*
X84150D01*
G01X109950Y31000D02*
Y28000D01*
X111950D01*
G01X112950Y28450D02*
X113250Y28200D01*
X113600Y28050D01*
X114050Y28000D01*
X114500Y28100D01*
X114850Y28300D01*
X115100Y28650D01*
X115150Y29050D01*
X115050Y29450D01*
X114800Y29700D01*
X114450Y29900D01*
X114100Y29950D01*
X113750Y29900D01*
X113300Y29700D01*
X113450Y31000D01*
X114800D01*
G01X122000Y39750D02*
X121700Y39900D01*
X121350Y40000D01*
X120950D01*
X120500Y39850D01*
X120150Y39600D01*
X119900Y39300D01*
X119700Y38800D01*
X119650Y38350D01*
X119750Y37900D01*
X119900Y37600D01*
X120200Y37300D01*
X120550Y37100D01*
X120900Y37000D01*
X121250D01*
X121600Y37100D01*
X121900Y37250D01*
X122150Y37450D01*
G01X122900Y37600D02*
X123200Y37250D01*
X123600Y37050D01*
X124050Y37000D01*
X124450Y37050D01*
X124850Y37300D01*
X125100Y37600D01*
X125150Y37900D01*
X125050Y38250D01*
X124700Y38500D01*
X124350Y38600D01*
X123900D01*
G01X124350D02*
X124650Y38750D01*
X124900Y39000D01*
X125000Y39300D01*
X124900Y39600D01*
X124650Y39850D01*
X124200Y40000D01*
X123750Y39950D01*
X123300Y39750D01*
G01X126000Y37450D02*
X126300Y37200D01*
X126650Y37050D01*
X127100Y37000D01*
X127550Y37100D01*
X127900Y37300D01*
X128150Y37650D01*
X128200Y38050D01*
X128100Y38450D01*
X127850Y38700D01*
X127500Y38900D01*
X127150Y38950D01*
X126800Y38900D01*
X126350Y38700D01*
X126500Y40000D01*
X127850D01*
G01X134000Y60900D02*
X131000D01*
Y62150D01*
X131150Y62550D01*
X131350Y62800D01*
X131750Y62900D01*
X132150Y62800D01*
X132400Y62500D01*
X132550Y62150D01*
Y60900D01*
G01Y62150D02*
X134000Y62900D01*
G01Y65000D02*
X131000D01*
X131600Y64400D01*
G01X134000D02*
Y65600D01*
G01X131000Y68100D02*
X131100Y67700D01*
X131350Y67400D01*
X131650Y67200D01*
X132050Y67050D01*
X132500Y67000D01*
X132950Y67050D01*
X133350Y67200D01*
X133650Y67400D01*
X133900Y67700D01*
X134000Y68100D01*
X133900Y68500D01*
X133650Y68800D01*
X133350Y69000D01*
X132950Y69150D01*
X132500Y69200D01*
X132050Y69150D01*
X131650Y69000D01*
X131350Y68800D01*
X131100Y68500D01*
X131000Y68100D01*
G01X93750Y31500D02*
X93600Y31200D01*
X93500Y30850D01*
Y30450D01*
X93650Y30000D01*
X93900Y29650D01*
X94200Y29400D01*
X94700Y29200D01*
X95150Y29150D01*
X95600Y29250D01*
X95900Y29400D01*
X96200Y29700D01*
X96400Y30050D01*
X96500Y30400D01*
Y30750D01*
X96400Y31100D01*
X96250Y31400D01*
X96050Y31650D01*
G01X95900Y32400D02*
X96250Y32700D01*
X96450Y33100D01*
X96500Y33550D01*
X96450Y33950D01*
X96200Y34350D01*
X95900Y34600D01*
X95600Y34650D01*
X95250Y34550D01*
X95000Y34200D01*
X94900Y33850D01*
Y33400D01*
G01Y33850D02*
X94750Y34150D01*
X94500Y34400D01*
X94200Y34500D01*
X93900Y34400D01*
X93650Y34150D01*
X93500Y33700D01*
X93550Y33250D01*
X93750Y32800D01*
G01X96500Y37200D02*
X93500D01*
X95650Y35350D01*
Y37850D01*
G01X111000Y25250D02*
X110700Y25400D01*
X110350Y25500D01*
X109950D01*
X109500Y25350D01*
X109150Y25100D01*
X108900Y24800D01*
X108700Y24300D01*
X108650Y23850D01*
X108750Y23400D01*
X108900Y23100D01*
X109200Y22800D01*
X109550Y22600D01*
X109900Y22500D01*
X110250D01*
X110600Y22600D01*
X110900Y22750D01*
X111150Y22950D01*
G01X111900Y23100D02*
X112200Y22750D01*
X112600Y22550D01*
X113050Y22500D01*
X113450Y22550D01*
X113850Y22800D01*
X114100Y23100D01*
X114150Y23400D01*
X114050Y23750D01*
X113700Y24000D01*
X113350Y24100D01*
X112900D01*
G01X113350D02*
X113650Y24250D01*
X113900Y24500D01*
X114000Y24800D01*
X113900Y25100D01*
X113650Y25350D01*
X113200Y25500D01*
X112750Y25450D01*
X112300Y25250D01*
G01X115000Y23100D02*
X115300Y22750D01*
X115700Y22550D01*
X116150Y22500D01*
X116550Y22550D01*
X116950Y22800D01*
X117200Y23100D01*
X117250Y23400D01*
X117150Y23750D01*
X116800Y24000D01*
X116450Y24100D01*
X116000D01*
G01X116450D02*
X116750Y24250D01*
X117000Y24500D01*
X117100Y24800D01*
X117000Y25100D01*
X116750Y25350D01*
X116300Y25500D01*
X115850Y25450D01*
X115400Y25250D01*
G01X127500Y52750D02*
X127200Y52900D01*
X126850Y53000D01*
X126450D01*
X126000Y52850D01*
X125650Y52600D01*
X125400Y52300D01*
X125200Y51800D01*
X125150Y51350D01*
X125250Y50900D01*
X125400Y50600D01*
X125700Y50300D01*
X126050Y50100D01*
X126400Y50000D01*
X126750D01*
X127100Y50100D01*
X127400Y50250D01*
X127650Y50450D01*
G01X128400Y50600D02*
X128700Y50250D01*
X129100Y50050D01*
X129550Y50000D01*
X129950Y50050D01*
X130350Y50300D01*
X130600Y50600D01*
X130650Y50900D01*
X130550Y51250D01*
X130200Y51500D01*
X129850Y51600D01*
X129400D01*
G01X129850D02*
X130150Y51750D01*
X130400Y52000D01*
X130500Y52300D01*
X130400Y52600D01*
X130150Y52850D01*
X129700Y53000D01*
X129250Y52950D01*
X128800Y52750D01*
G01X132500Y50000D02*
X132600Y50650D01*
X132750Y51200D01*
X132950Y51700D01*
X133200Y52250D01*
X133600Y53000D01*
X131600D01*
G01X106450Y33000D02*
Y36000D01*
X107700D01*
X108100Y35850D01*
X108350Y35650D01*
X108450Y35250D01*
X108350Y34850D01*
X108050Y34600D01*
X107700Y34450D01*
X106450D01*
G01X107700D02*
X108450Y33000D01*
G01X109700Y33350D02*
X110050Y33100D01*
X110450Y33000D01*
X110850Y33100D01*
X111200Y33400D01*
X111450Y33850D01*
X111550Y34300D01*
Y34850D01*
X111450Y35300D01*
X111200Y35700D01*
X110900Y35900D01*
X110550Y36000D01*
X110150Y35900D01*
X109850Y35700D01*
X109650Y35400D01*
X109550Y35000D01*
X109650Y34650D01*
X109900Y34300D01*
X110200Y34100D01*
X110550Y34050D01*
X110950Y34150D01*
X111250Y34400D01*
X111550Y34850D01*
G01X95500Y49000D02*
X95850Y49050D01*
X96250Y49200D01*
X96500Y49450D01*
X96600Y49800D01*
X96500Y50150D01*
X96200Y50450D01*
X95750Y50600D01*
X95250D01*
X94950Y50700D01*
X94700Y50950D01*
X94600Y51300D01*
X94750Y51650D01*
X95100Y51900D01*
X95500Y52000D01*
X95900Y51900D01*
X96250Y51650D01*
X96400Y51300D01*
X96300Y50950D01*
X96050Y50700D01*
X95750Y50600D01*
X95250D01*
X94800Y50450D01*
X94500Y50150D01*
X94400Y49800D01*
X94500Y49450D01*
X94750Y49200D01*
X95150Y49050D01*
X95500Y49000D01*
G01X99750Y44950D02*
X100100Y44700D01*
X100500Y44600D01*
X100900Y44700D01*
X101250Y45000D01*
X101500Y45450D01*
X101600Y45900D01*
Y46450D01*
X101500Y46900D01*
X101250Y47300D01*
X100950Y47500D01*
X100600Y47600D01*
X100200Y47500D01*
X99900Y47300D01*
X99700Y47000D01*
X99600Y46600D01*
X99700Y46250D01*
X99950Y45900D01*
X100250Y45700D01*
X100600Y45650D01*
X101000Y45750D01*
X101300Y46000D01*
X101600Y46450D01*
G01X116450Y46000D02*
Y49000D01*
X115850Y48400D01*
G01Y46000D02*
X117050D01*
G01X118600Y47250D02*
X118950Y47600D01*
X119250Y47800D01*
X119650Y47900D01*
X120000Y47800D01*
X120250Y47600D01*
X120450Y47300D01*
X120500Y46950D01*
X120450Y46650D01*
X120250Y46350D01*
X119950Y46100D01*
X119600Y46000D01*
X119200Y46100D01*
X118850Y46400D01*
X118650Y46850D01*
X118600Y47350D01*
X118700Y48000D01*
X118850Y48350D01*
X119100Y48700D01*
X119450Y48950D01*
X119800Y49000D01*
X120150Y48900D01*
X120400Y48650D01*
G01X124500Y50450D02*
X121500D01*
X122100Y49850D01*
G01X124500D02*
Y51050D01*
G01Y53450D02*
X123850Y53550D01*
X123300Y53700D01*
X122800Y53900D01*
X122250Y54150D01*
X121500Y54550D01*
Y52550D01*
G01Y69500D02*
X121200Y69800D01*
X121050Y70150D01*
X121000Y70550D01*
X121100Y71050D01*
X121350Y71400D01*
X121650Y71500D01*
X121950Y71450D01*
X122200Y71250D01*
X122700Y70250D01*
X123050Y69800D01*
X123550Y69500D01*
X124000Y69400D01*
Y71500D01*
G01Y74150D02*
X121000D01*
X123150Y72300D01*
Y74800D01*
G01X109500Y20500D02*
X106500D01*
X107100Y19900D01*
G01X109500D02*
Y21100D01*
G01X121950Y21600D02*
X122200Y21300D01*
X122500Y21100D01*
X122850Y21000D01*
X123250Y21100D01*
X123550Y21300D01*
X123850Y21600D01*
X123950Y22000D01*
Y24000D01*
G01X126650Y21000D02*
Y24000D01*
X124800Y21850D01*
X127300D01*
G01X104350Y40500D02*
Y37500D01*
X106350D01*
G01X109450D02*
X107450D01*
Y40500D01*
X109450D01*
G01X108650Y39050D02*
X107450D01*
G01X110450Y37500D02*
Y40500D01*
X111450D01*
X111850Y40350D01*
X112150Y40150D01*
X112400Y39850D01*
X112600Y39500D01*
X112650Y39000D01*
X112600Y38500D01*
X112400Y38150D01*
X112150Y37850D01*
X111850Y37650D01*
X111450Y37500D01*
X110450D01*
G01X113700Y40000D02*
X114000Y40300D01*
X114350Y40450D01*
X114750Y40500D01*
X115250Y40400D01*
X115600Y40150D01*
X115700Y39850D01*
X115650Y39550D01*
X115450Y39300D01*
X114450Y38800D01*
X114000Y38450D01*
X113700Y37950D01*
X113600Y37500D01*
X115700D01*
G01X102850Y39000D02*
Y43000D01*
X102350D01*
Y39000D01*
G01X101350Y43000D02*
X94350D01*
Y39000D01*
X101350D01*
Y43000D01*
G01X164500Y3950D02*
X161500D01*
X162100Y3350D01*
G01X164500D02*
Y4550D01*
G01Y7050D02*
X164450Y7400D01*
X164300Y7800D01*
X164050Y8050D01*
X163700Y8150D01*
X163350Y8050D01*
X163050Y7750D01*
X162900Y7300D01*
Y6800D01*
X162800Y6500D01*
X162550Y6250D01*
X162200Y6150D01*
X161850Y6300D01*
X161600Y6650D01*
X161500Y7050D01*
X161600Y7450D01*
X161850Y7800D01*
X162200Y7950D01*
X162550Y7850D01*
X162800Y7600D01*
X162900Y7300D01*
Y6800D01*
X163050Y6350D01*
X163350Y6050D01*
X163700Y5950D01*
X164050Y6050D01*
X164300Y6300D01*
X164450Y6700D01*
X164500Y7050D01*
G01X131500Y57050D02*
X131200Y57350D01*
X131050Y57700D01*
X131000Y58100D01*
X131100Y58600D01*
X131350Y58950D01*
X131650Y59050D01*
X131950Y59000D01*
X132200Y58800D01*
X132700Y57800D01*
X133050Y57350D01*
X133550Y57050D01*
X134000Y56950D01*
Y59050D01*
G01X161000Y59000D02*
X158000D01*
X158600Y58400D01*
G01X161000D02*
Y59600D01*
G01X93700Y11950D02*
X90700D01*
Y12950D01*
X90850Y13350D01*
X91050Y13650D01*
X91350Y13900D01*
X91700Y14100D01*
X92200Y14150D01*
X92700Y14100D01*
X93050Y13900D01*
X93350Y13650D01*
X93550Y13350D01*
X93700Y12950D01*
Y11950D01*
G01Y16150D02*
X90700D01*
X91300Y15550D01*
G01X93700D02*
Y16750D01*
G01X92500Y157450D02*
X95500D01*
Y159450D01*
G01Y161550D02*
X92500D01*
X93100Y160950D01*
G01X95500D02*
Y162150D01*
G01X156450Y160000D02*
Y157000D01*
X158450D01*
G01X159450Y157600D02*
X159750Y157250D01*
X160150Y157050D01*
X160600Y157000D01*
X161000Y157050D01*
X161400Y157300D01*
X161650Y157600D01*
X161700Y157900D01*
X161600Y158250D01*
X161250Y158500D01*
X160900Y158600D01*
X160450D01*
G01X160900D02*
X161200Y158750D01*
X161450Y159000D01*
X161550Y159300D01*
X161450Y159600D01*
X161200Y159850D01*
X160750Y160000D01*
X160300Y159950D01*
X159850Y159750D01*
G01X140250Y132500D02*
X140100Y132200D01*
X140000Y131850D01*
Y131450D01*
X140150Y131000D01*
X140400Y130650D01*
X140700Y130400D01*
X141200Y130200D01*
X141650Y130150D01*
X142100Y130250D01*
X142400Y130400D01*
X142700Y130700D01*
X142900Y131050D01*
X143000Y131400D01*
Y131750D01*
X142900Y132100D01*
X142750Y132400D01*
X142550Y132650D01*
G01X140500Y133550D02*
X140200Y133850D01*
X140050Y134200D01*
X140000Y134600D01*
X140100Y135100D01*
X140350Y135450D01*
X140650Y135550D01*
X140950Y135500D01*
X141200Y135300D01*
X141700Y134300D01*
X142050Y133850D01*
X142550Y133550D01*
X143000Y133450D01*
Y135550D01*
G01X142400Y136500D02*
X142750Y136800D01*
X142950Y137200D01*
X143000Y137650D01*
X142950Y138050D01*
X142700Y138450D01*
X142400Y138700D01*
X142100Y138750D01*
X141750Y138650D01*
X141500Y138300D01*
X141400Y137950D01*
Y137500D01*
G01Y137950D02*
X141250Y138250D01*
X141000Y138500D01*
X140700Y138600D01*
X140400Y138500D01*
X140150Y138250D01*
X140000Y137800D01*
X140050Y137350D01*
X140250Y136900D01*
G01X117500Y129400D02*
X114500D01*
Y130650D01*
X114650Y131050D01*
X114850Y131300D01*
X115250Y131400D01*
X115650Y131300D01*
X115900Y131000D01*
X116050Y130650D01*
Y129400D01*
G01Y130650D02*
X117500Y131400D01*
G01Y133500D02*
X114500D01*
X115100Y132900D01*
G01X117500D02*
Y134100D01*
G01X117050Y135500D02*
X117300Y135800D01*
X117450Y136150D01*
X117500Y136600D01*
X117400Y137050D01*
X117200Y137400D01*
X116850Y137650D01*
X116450Y137700D01*
X116050Y137600D01*
X115800Y137350D01*
X115600Y137000D01*
X115550Y136650D01*
X115600Y136300D01*
X115800Y135850D01*
X114500Y136000D01*
Y137350D01*
G01X87800Y188650D02*
X87500Y188800D01*
X87150Y188900D01*
X86750D01*
X86300Y188750D01*
X85950Y188500D01*
X85700Y188200D01*
X85500Y187700D01*
X85450Y187250D01*
X85550Y186800D01*
X85700Y186500D01*
X86000Y186200D01*
X86350Y186000D01*
X86700Y185900D01*
X87050D01*
X87400Y186000D01*
X87700Y186150D01*
X87950Y186350D01*
G01X89800Y185900D02*
Y188900D01*
X89200Y188300D01*
G01Y185900D02*
X90400D01*
G01X91950Y188400D02*
X92250Y188700D01*
X92600Y188850D01*
X93000Y188900D01*
X93500Y188800D01*
X93850Y188550D01*
X93950Y188250D01*
X93900Y187950D01*
X93700Y187700D01*
X92700Y187200D01*
X92250Y186850D01*
X91950Y186350D01*
X91850Y185900D01*
X93950D01*
G01X156450Y154500D02*
Y151500D01*
X158450D01*
G01X159600Y154000D02*
X159900Y154300D01*
X160250Y154450D01*
X160650Y154500D01*
X161150Y154400D01*
X161500Y154150D01*
X161600Y153850D01*
X161550Y153550D01*
X161350Y153300D01*
X160350Y152800D01*
X159900Y152450D01*
X159600Y151950D01*
X159500Y151500D01*
X161600D01*
G01X157000Y165250D02*
X156700Y165400D01*
X156350Y165500D01*
X155950D01*
X155500Y165350D01*
X155150Y165100D01*
X154900Y164800D01*
X154700Y164300D01*
X154650Y163850D01*
X154750Y163400D01*
X154900Y163100D01*
X155200Y162800D01*
X155550Y162600D01*
X155900Y162500D01*
X156250D01*
X156600Y162600D01*
X156900Y162750D01*
X157150Y162950D01*
G01X159000Y162500D02*
Y165500D01*
X158400Y164900D01*
G01Y162500D02*
X159600D01*
G01X162000D02*
X162100Y163150D01*
X162250Y163700D01*
X162450Y164200D01*
X162700Y164750D01*
X163100Y165500D01*
X161100D01*
G01X158000Y149250D02*
X157700Y149400D01*
X157350Y149500D01*
X156950D01*
X156500Y149350D01*
X156150Y149100D01*
X155900Y148800D01*
X155700Y148300D01*
X155650Y147850D01*
X155750Y147400D01*
X155900Y147100D01*
X156200Y146800D01*
X156550Y146600D01*
X156900Y146500D01*
X157250D01*
X157600Y146600D01*
X157900Y146750D01*
X158150Y146950D01*
G01X159050Y149000D02*
X159350Y149300D01*
X159700Y149450D01*
X160100Y149500D01*
X160600Y149400D01*
X160950Y149150D01*
X161050Y148850D01*
X161000Y148550D01*
X160800Y148300D01*
X159800Y147800D01*
X159350Y147450D01*
X159050Y146950D01*
X158950Y146500D01*
X161050D01*
G01X162250Y146850D02*
X162600Y146600D01*
X163000Y146500D01*
X163400Y146600D01*
X163750Y146900D01*
X164000Y147350D01*
X164100Y147800D01*
Y148350D01*
X164000Y148800D01*
X163750Y149200D01*
X163450Y149400D01*
X163100Y149500D01*
X162700Y149400D01*
X162400Y149200D01*
X162200Y148900D01*
X162100Y148500D01*
X162200Y148150D01*
X162450Y147800D01*
X162750Y147600D01*
X163100Y147550D01*
X163500Y147650D01*
X163800Y147900D01*
X164100Y148350D01*
G01X157000Y169250D02*
X156700Y169400D01*
X156350Y169500D01*
X155950D01*
X155500Y169350D01*
X155150Y169100D01*
X154900Y168800D01*
X154700Y168300D01*
X154650Y167850D01*
X154750Y167400D01*
X154900Y167100D01*
X155200Y166800D01*
X155550Y166600D01*
X155900Y166500D01*
X156250D01*
X156600Y166600D01*
X156900Y166750D01*
X157150Y166950D01*
G01X157900Y167100D02*
X158200Y166750D01*
X158600Y166550D01*
X159050Y166500D01*
X159450Y166550D01*
X159850Y166800D01*
X160100Y167100D01*
X160150Y167400D01*
X160050Y167750D01*
X159700Y168000D01*
X159350Y168100D01*
X158900D01*
G01X159350D02*
X159650Y168250D01*
X159900Y168500D01*
X160000Y168800D01*
X159900Y169100D01*
X159650Y169350D01*
X159200Y169500D01*
X158750Y169450D01*
X158300Y169250D01*
G01X162100Y169500D02*
X161700Y169400D01*
X161400Y169150D01*
X161200Y168850D01*
X161050Y168450D01*
X161000Y168000D01*
X161050Y167550D01*
X161200Y167150D01*
X161400Y166850D01*
X161700Y166600D01*
X162100Y166500D01*
X162500Y166600D01*
X162800Y166850D01*
X163000Y167150D01*
X163150Y167550D01*
X163200Y168000D01*
X163150Y168450D01*
X163000Y168850D01*
X162800Y169150D01*
X162500Y169400D01*
X162100Y169500D01*
G01X100750Y143000D02*
X100600Y142700D01*
X100500Y142350D01*
Y141950D01*
X100650Y141500D01*
X100900Y141150D01*
X101200Y140900D01*
X101700Y140700D01*
X102150Y140650D01*
X102600Y140750D01*
X102900Y140900D01*
X103200Y141200D01*
X103400Y141550D01*
X103500Y141900D01*
Y142250D01*
X103400Y142600D01*
X103250Y142900D01*
X103050Y143150D01*
G01X103500Y145000D02*
X100500D01*
X101100Y144400D01*
G01X103500D02*
Y145600D01*
G01X102250Y147150D02*
X101900Y147500D01*
X101700Y147800D01*
X101600Y148200D01*
X101700Y148550D01*
X101900Y148800D01*
X102200Y149000D01*
X102550Y149050D01*
X102850Y149000D01*
X103150Y148800D01*
X103400Y148500D01*
X103500Y148150D01*
X103400Y147750D01*
X103100Y147400D01*
X102650Y147200D01*
X102150Y147150D01*
X101500Y147250D01*
X101150Y147400D01*
X100800Y147650D01*
X100550Y148000D01*
X100500Y148350D01*
X100600Y148700D01*
X100850Y148950D01*
G01X129750Y142500D02*
X129600Y142200D01*
X129500Y141850D01*
Y141450D01*
X129650Y141000D01*
X129900Y140650D01*
X130200Y140400D01*
X130700Y140200D01*
X131150Y140150D01*
X131600Y140250D01*
X131900Y140400D01*
X132200Y140700D01*
X132400Y141050D01*
X132500Y141400D01*
Y141750D01*
X132400Y142100D01*
X132250Y142400D01*
X132050Y142650D01*
G01X132500Y144500D02*
X129500D01*
X130100Y143900D01*
G01X132500D02*
Y145100D01*
G01X132150Y146750D02*
X132400Y147100D01*
X132500Y147500D01*
X132400Y147900D01*
X132100Y148250D01*
X131650Y148500D01*
X131200Y148600D01*
X130650D01*
X130200Y148500D01*
X129800Y148250D01*
X129600Y147950D01*
X129500Y147600D01*
X129600Y147200D01*
X129800Y146900D01*
X130100Y146700D01*
X130500Y146600D01*
X130850Y146700D01*
X131200Y146950D01*
X131400Y147250D01*
X131450Y147600D01*
X131350Y148000D01*
X131100Y148300D01*
X130650Y148600D01*
G01X110500Y141950D02*
X107500D01*
Y143200D01*
X107650Y143600D01*
X107850Y143850D01*
X108250Y143950D01*
X108650Y143850D01*
X108900Y143550D01*
X109050Y143200D01*
Y141950D01*
G01Y143200D02*
X110500Y143950D01*
G01X109900Y144950D02*
X110250Y145250D01*
X110450Y145650D01*
X110500Y146100D01*
X110450Y146500D01*
X110200Y146900D01*
X109900Y147150D01*
X109600Y147200D01*
X109250Y147100D01*
X109000Y146750D01*
X108900Y146400D01*
Y145950D01*
G01Y146400D02*
X108750Y146700D01*
X108500Y146950D01*
X108200Y147050D01*
X107900Y146950D01*
X107650Y146700D01*
X107500Y146250D01*
X107550Y145800D01*
X107750Y145350D01*
G01X95500Y146400D02*
X92500D01*
Y147650D01*
X92650Y148050D01*
X92850Y148300D01*
X93250Y148400D01*
X93650Y148300D01*
X93900Y148000D01*
X94050Y147650D01*
Y146400D01*
G01Y147650D02*
X95500Y148400D01*
G01Y150500D02*
X92500D01*
X93100Y149900D01*
G01X95500D02*
Y151100D01*
G01Y153600D02*
X92500D01*
X93100Y153000D01*
G01X95500D02*
Y154200D01*
G01X113350Y82300D02*
Y85300D01*
X114600D01*
X115000Y85150D01*
X115250Y84950D01*
X115350Y84550D01*
X115250Y84150D01*
X114950Y83900D01*
X114600Y83750D01*
X113350D01*
G01X114600D02*
X115350Y82300D01*
G01X117450D02*
X117800Y82350D01*
X118200Y82500D01*
X118450Y82750D01*
X118550Y83100D01*
X118450Y83450D01*
X118150Y83750D01*
X117700Y83900D01*
X117200D01*
X116900Y84000D01*
X116650Y84250D01*
X116550Y84600D01*
X116700Y84950D01*
X117050Y85200D01*
X117450Y85300D01*
X117850Y85200D01*
X118200Y84950D01*
X118350Y84600D01*
X118250Y84250D01*
X118000Y84000D01*
X117700Y83900D01*
X117200D01*
X116750Y83750D01*
X116450Y83450D01*
X116350Y83100D01*
X116450Y82750D01*
X116700Y82500D01*
X117100Y82350D01*
X117450Y82300D01*
G01X87000Y122500D02*
Y125500D01*
X88250D01*
X88650Y125350D01*
X88900Y125150D01*
X89000Y124750D01*
X88900Y124350D01*
X88600Y124100D01*
X88250Y123950D01*
X87000D01*
G01X88250D02*
X89000Y122500D01*
G01X90150Y125000D02*
X90450Y125300D01*
X90800Y125450D01*
X91200Y125500D01*
X91700Y125400D01*
X92050Y125150D01*
X92150Y124850D01*
X92100Y124550D01*
X91900Y124300D01*
X90900Y123800D01*
X90450Y123450D01*
X90150Y122950D01*
X90050Y122500D01*
X92150D01*
G01X93250Y125000D02*
X93550Y125300D01*
X93900Y125450D01*
X94300Y125500D01*
X94800Y125400D01*
X95150Y125150D01*
X95250Y124850D01*
X95200Y124550D01*
X95000Y124300D01*
X94000Y123800D01*
X93550Y123450D01*
X93250Y122950D01*
X93150Y122500D01*
X95250D01*
G01X109150Y181100D02*
Y178950D01*
X109350Y178500D01*
X109750Y178200D01*
X110250Y178100D01*
X110750Y178200D01*
X111150Y178500D01*
X111350Y178950D01*
Y181100D01*
G01X112400Y180600D02*
X112700Y180900D01*
X113050Y181050D01*
X113450Y181100D01*
X113950Y181000D01*
X114300Y180750D01*
X114400Y180450D01*
X114350Y180150D01*
X114150Y179900D01*
X113150Y179400D01*
X112700Y179050D01*
X112400Y178550D01*
X112300Y178100D01*
X114400D01*
G01X136250Y143550D02*
X136100Y143250D01*
X136000Y142900D01*
Y142500D01*
X136150Y142050D01*
X136400Y141700D01*
X136700Y141450D01*
X137200Y141250D01*
X137650Y141200D01*
X138100Y141300D01*
X138400Y141450D01*
X138700Y141750D01*
X138900Y142100D01*
X139000Y142450D01*
Y142800D01*
X138900Y143150D01*
X138750Y143450D01*
X138550Y143700D01*
G01X139000Y145450D02*
X138350Y145550D01*
X137800Y145700D01*
X137300Y145900D01*
X136750Y146150D01*
X136000Y146550D01*
Y144550D01*
G01X136250Y165500D02*
X136100Y165200D01*
X136000Y164850D01*
Y164450D01*
X136150Y164000D01*
X136400Y163650D01*
X136700Y163400D01*
X137200Y163200D01*
X137650Y163150D01*
X138100Y163250D01*
X138400Y163400D01*
X138700Y163700D01*
X138900Y164050D01*
X139000Y164400D01*
Y164750D01*
X138900Y165100D01*
X138750Y165400D01*
X138550Y165650D01*
G01X139000Y167500D02*
X136000D01*
X136600Y166900D01*
G01X139000D02*
Y168100D01*
G01X138400Y169500D02*
X138750Y169800D01*
X138950Y170200D01*
X139000Y170650D01*
X138950Y171050D01*
X138700Y171450D01*
X138400Y171700D01*
X138100Y171750D01*
X137750Y171650D01*
X137500Y171300D01*
X137400Y170950D01*
Y170500D01*
G01Y170950D02*
X137250Y171250D01*
X137000Y171500D01*
X136700Y171600D01*
X136400Y171500D01*
X136150Y171250D01*
X136000Y170800D01*
X136050Y170350D01*
X136250Y169900D01*
G01Y175500D02*
X136100Y175200D01*
X136000Y174850D01*
Y174450D01*
X136150Y174000D01*
X136400Y173650D01*
X136700Y173400D01*
X137200Y173200D01*
X137650Y173150D01*
X138100Y173250D01*
X138400Y173400D01*
X138700Y173700D01*
X138900Y174050D01*
X139000Y174400D01*
Y174750D01*
X138900Y175100D01*
X138750Y175400D01*
X138550Y175650D01*
G01X136500Y176550D02*
X136200Y176850D01*
X136050Y177200D01*
X136000Y177600D01*
X136100Y178100D01*
X136350Y178450D01*
X136650Y178550D01*
X136950Y178500D01*
X137200Y178300D01*
X137700Y177300D01*
X138050Y176850D01*
X138550Y176550D01*
X139000Y176450D01*
Y178550D01*
G01X137750Y179650D02*
X137400Y180000D01*
X137200Y180300D01*
X137100Y180700D01*
X137200Y181050D01*
X137400Y181300D01*
X137700Y181500D01*
X138050Y181550D01*
X138350Y181500D01*
X138650Y181300D01*
X138900Y181000D01*
X139000Y180650D01*
X138900Y180250D01*
X138600Y179900D01*
X138150Y179700D01*
X137650Y179650D01*
X137000Y179750D01*
X136650Y179900D01*
X136300Y180150D01*
X136050Y180500D01*
X136000Y180850D01*
X136100Y181200D01*
X136350Y181450D01*
G01X134750Y189000D02*
X134600Y188700D01*
X134500Y188350D01*
Y187950D01*
X134650Y187500D01*
X134900Y187150D01*
X135200Y186900D01*
X135700Y186700D01*
X136150Y186650D01*
X136600Y186750D01*
X136900Y186900D01*
X137200Y187200D01*
X137400Y187550D01*
X137500Y187900D01*
Y188250D01*
X137400Y188600D01*
X137250Y188900D01*
X137050Y189150D01*
G01X135000Y190050D02*
X134700Y190350D01*
X134550Y190700D01*
X134500Y191100D01*
X134600Y191600D01*
X134850Y191950D01*
X135150Y192050D01*
X135450Y192000D01*
X135700Y191800D01*
X136200Y190800D01*
X136550Y190350D01*
X137050Y190050D01*
X137500Y189950D01*
Y192050D01*
G01X137050Y193000D02*
X137300Y193300D01*
X137450Y193650D01*
X137500Y194100D01*
X137400Y194550D01*
X137200Y194900D01*
X136850Y195150D01*
X136450Y195200D01*
X136050Y195100D01*
X135800Y194850D01*
X135600Y194500D01*
X135550Y194150D01*
X135600Y193800D01*
X135800Y193350D01*
X134500Y193500D01*
Y194850D01*
G01X104000Y90950D02*
X101000D01*
Y92200D01*
X101150Y92600D01*
X101350Y92850D01*
X101750Y92950D01*
X102150Y92850D01*
X102400Y92550D01*
X102550Y92200D01*
Y90950D01*
G01Y92200D02*
X104000Y92950D01*
G01X102750Y94100D02*
X102400Y94450D01*
X102200Y94750D01*
X102100Y95150D01*
X102200Y95500D01*
X102400Y95750D01*
X102700Y95950D01*
X103050Y96000D01*
X103350Y95950D01*
X103650Y95750D01*
X103900Y95450D01*
X104000Y95100D01*
X103900Y94700D01*
X103600Y94350D01*
X103150Y94150D01*
X102650Y94100D01*
X102000Y94200D01*
X101650Y94350D01*
X101300Y94600D01*
X101050Y94950D01*
X101000Y95300D01*
X101100Y95650D01*
X101350Y95900D01*
G01X136250Y150000D02*
X136100Y149700D01*
X136000Y149350D01*
Y148950D01*
X136150Y148500D01*
X136400Y148150D01*
X136700Y147900D01*
X137200Y147700D01*
X137650Y147650D01*
X138100Y147750D01*
X138400Y147900D01*
X138700Y148200D01*
X138900Y148550D01*
X139000Y148900D01*
Y149250D01*
X138900Y149600D01*
X138750Y149900D01*
X138550Y150150D01*
G01X136500Y151050D02*
X136200Y151350D01*
X136050Y151700D01*
X136000Y152100D01*
X136100Y152600D01*
X136350Y152950D01*
X136650Y153050D01*
X136950Y153000D01*
X137200Y152800D01*
X137700Y151800D01*
X138050Y151350D01*
X138550Y151050D01*
X139000Y150950D01*
Y153050D01*
G01Y155100D02*
X138950Y155450D01*
X138800Y155850D01*
X138550Y156100D01*
X138200Y156200D01*
X137850Y156100D01*
X137550Y155800D01*
X137400Y155350D01*
Y154850D01*
X137300Y154550D01*
X137050Y154300D01*
X136700Y154200D01*
X136350Y154350D01*
X136100Y154700D01*
X136000Y155100D01*
X136100Y155500D01*
X136350Y155850D01*
X136700Y156000D01*
X137050Y155900D01*
X137300Y155650D01*
X137400Y155350D01*
Y154850D01*
X137550Y154400D01*
X137850Y154100D01*
X138200Y154000D01*
X138550Y154100D01*
X138800Y154350D01*
X138950Y154750D01*
X139000Y155100D01*
G01X139250Y158000D02*
X139100Y157700D01*
X139000Y157350D01*
Y156950D01*
X139150Y156500D01*
X139400Y156150D01*
X139700Y155900D01*
X140200Y155700D01*
X140650Y155650D01*
X141100Y155750D01*
X141400Y155900D01*
X141700Y156200D01*
X141900Y156550D01*
X142000Y156900D01*
Y157250D01*
X141900Y157600D01*
X141750Y157900D01*
X141550Y158150D01*
G01X141400Y158900D02*
X141750Y159200D01*
X141950Y159600D01*
X142000Y160050D01*
X141950Y160450D01*
X141700Y160850D01*
X141400Y161100D01*
X141100Y161150D01*
X140750Y161050D01*
X140500Y160700D01*
X140400Y160350D01*
Y159900D01*
G01Y160350D02*
X140250Y160650D01*
X140000Y160900D01*
X139700Y161000D01*
X139400Y160900D01*
X139150Y160650D01*
X139000Y160200D01*
X139050Y159750D01*
X139250Y159300D01*
G01X142000Y163100D02*
X139000D01*
X139600Y162500D01*
G01X142000D02*
Y163700D01*
G01X117250Y143000D02*
X117100Y142700D01*
X117000Y142350D01*
Y141950D01*
X117150Y141500D01*
X117400Y141150D01*
X117700Y140900D01*
X118200Y140700D01*
X118650Y140650D01*
X119100Y140750D01*
X119400Y140900D01*
X119700Y141200D01*
X119900Y141550D01*
X120000Y141900D01*
Y142250D01*
X119900Y142600D01*
X119750Y142900D01*
X119550Y143150D01*
G01X120000Y145000D02*
X117000D01*
X117600Y144400D01*
G01X120000D02*
Y145600D01*
G01Y148100D02*
X119950Y148450D01*
X119800Y148850D01*
X119550Y149100D01*
X119200Y149200D01*
X118850Y149100D01*
X118550Y148800D01*
X118400Y148350D01*
Y147850D01*
X118300Y147550D01*
X118050Y147300D01*
X117700Y147200D01*
X117350Y147350D01*
X117100Y147700D01*
X117000Y148100D01*
X117100Y148500D01*
X117350Y148850D01*
X117700Y149000D01*
X118050Y148900D01*
X118300Y148650D01*
X118400Y148350D01*
Y147850D01*
X118550Y147400D01*
X118850Y147100D01*
X119200Y147000D01*
X119550Y147100D01*
X119800Y147350D01*
X119950Y147750D01*
X120000Y148100D01*
G01X96800Y135050D02*
X93800D01*
Y136300D01*
X93950Y136700D01*
X94150Y136950D01*
X94550Y137050D01*
X94950Y136950D01*
X95200Y136650D01*
X95350Y136300D01*
Y135050D01*
G01Y136300D02*
X96800Y137050D01*
G01X94300Y138200D02*
X94000Y138500D01*
X93850Y138850D01*
X93800Y139250D01*
X93900Y139750D01*
X94150Y140100D01*
X94450Y140200D01*
X94750Y140150D01*
X95000Y139950D01*
X95500Y138950D01*
X95850Y138500D01*
X96350Y138200D01*
X96800Y138100D01*
Y140200D01*
G01X125450Y109500D02*
Y112500D01*
X126700D01*
X127100Y112350D01*
X127350Y112150D01*
X127450Y111750D01*
X127350Y111350D01*
X127050Y111100D01*
X126700Y110950D01*
X125450D01*
G01X126700D02*
X127450Y109500D01*
G01X129550D02*
Y112500D01*
X128950Y111900D01*
G01Y109500D02*
X130150D01*
G01X88750Y112000D02*
X88600Y111700D01*
X88500Y111350D01*
Y110950D01*
X88650Y110500D01*
X88900Y110150D01*
X89200Y109900D01*
X89700Y109700D01*
X90150Y109650D01*
X90600Y109750D01*
X90900Y109900D01*
X91200Y110200D01*
X91400Y110550D01*
X91500Y110900D01*
Y111250D01*
X91400Y111600D01*
X91250Y111900D01*
X91050Y112150D01*
G01X89000Y113050D02*
X88700Y113350D01*
X88550Y113700D01*
X88500Y114100D01*
X88600Y114600D01*
X88850Y114950D01*
X89150Y115050D01*
X89450Y115000D01*
X89700Y114800D01*
X90200Y113800D01*
X90550Y113350D01*
X91050Y113050D01*
X91500Y112950D01*
Y115050D01*
G01Y117700D02*
X88500D01*
X90650Y115850D01*
Y118350D01*
G01X88750Y100000D02*
X88600Y99700D01*
X88500Y99350D01*
Y98950D01*
X88650Y98500D01*
X88900Y98150D01*
X89200Y97900D01*
X89700Y97700D01*
X90150Y97650D01*
X90600Y97750D01*
X90900Y97900D01*
X91200Y98200D01*
X91400Y98550D01*
X91500Y98900D01*
Y99250D01*
X91400Y99600D01*
X91250Y99900D01*
X91050Y100150D01*
G01X90900Y100900D02*
X91250Y101200D01*
X91450Y101600D01*
X91500Y102050D01*
X91450Y102450D01*
X91200Y102850D01*
X90900Y103100D01*
X90600Y103150D01*
X90250Y103050D01*
X90000Y102700D01*
X89900Y102350D01*
Y101900D01*
G01Y102350D02*
X89750Y102650D01*
X89500Y102900D01*
X89200Y103000D01*
X88900Y102900D01*
X88650Y102650D01*
X88500Y102200D01*
X88550Y101750D01*
X88750Y101300D01*
G01X89000Y104150D02*
X88700Y104450D01*
X88550Y104800D01*
X88500Y105200D01*
X88600Y105700D01*
X88850Y106050D01*
X89150Y106150D01*
X89450Y106100D01*
X89700Y105900D01*
X90200Y104900D01*
X90550Y104450D01*
X91050Y104150D01*
X91500Y104050D01*
Y106150D01*
G01X97900Y82500D02*
Y85500D01*
X99150D01*
X99550Y85350D01*
X99800Y85150D01*
X99900Y84750D01*
X99800Y84350D01*
X99500Y84100D01*
X99150Y83950D01*
X97900D01*
G01X99150D02*
X99900Y82500D01*
G01X101050Y85000D02*
X101350Y85300D01*
X101700Y85450D01*
X102100Y85500D01*
X102600Y85400D01*
X102950Y85150D01*
X103050Y84850D01*
X103000Y84550D01*
X102800Y84300D01*
X101800Y83800D01*
X101350Y83450D01*
X101050Y82950D01*
X100950Y82500D01*
X103050D01*
G01X105100D02*
Y85500D01*
X104500Y84900D01*
G01Y82500D02*
X105700D01*
G01X137650Y117000D02*
Y120000D01*
X138950Y117500D01*
X140250Y120000D01*
Y117000D01*
G01X141100Y119500D02*
X141400Y119800D01*
X141750Y119950D01*
X142150Y120000D01*
X142650Y119900D01*
X143000Y119650D01*
X143100Y119350D01*
X143050Y119050D01*
X142850Y118800D01*
X141850Y118300D01*
X141400Y117950D01*
X141100Y117450D01*
X141000Y117000D01*
X143100D01*
G01X161500Y184450D02*
X160150D01*
X158500Y183450D01*
G01Y185450D02*
X160150Y184450D01*
G01X159000Y186600D02*
X158700Y186900D01*
X158550Y187250D01*
X158500Y187650D01*
X158600Y188150D01*
X158850Y188500D01*
X159150Y188600D01*
X159450Y188550D01*
X159700Y188350D01*
X160200Y187350D01*
X160550Y186900D01*
X161050Y186600D01*
X161500Y186500D01*
Y188600D01*
G01X113500Y77000D02*
X113800Y77300D01*
X114150Y77450D01*
X114550Y77500D01*
X115050Y77400D01*
X115400Y77150D01*
X115500Y76850D01*
X115450Y76550D01*
X115250Y76300D01*
X114250Y75800D01*
X113800Y75450D01*
X113500Y74950D01*
X113400Y74500D01*
X115500D01*
G01X116450Y74950D02*
X116750Y74700D01*
X117100Y74550D01*
X117550Y74500D01*
X118000Y74600D01*
X118350Y74800D01*
X118600Y75150D01*
X118650Y75550D01*
X118550Y75950D01*
X118300Y76200D01*
X117950Y76400D01*
X117600Y76450D01*
X117250Y76400D01*
X116800Y76200D01*
X116950Y77500D01*
X118300D01*
G01X98850Y75100D02*
X99150Y74750D01*
X99550Y74550D01*
X100000Y74500D01*
X100400Y74550D01*
X100800Y74800D01*
X101050Y75100D01*
X101100Y75400D01*
X101000Y75750D01*
X100650Y76000D01*
X100300Y76100D01*
X99850D01*
G01X100300D02*
X100600Y76250D01*
X100850Y76500D01*
X100950Y76800D01*
X100850Y77100D01*
X100600Y77350D01*
X100150Y77500D01*
X99700Y77450D01*
X99250Y77250D01*
G01X102100Y77000D02*
X102400Y77300D01*
X102750Y77450D01*
X103150Y77500D01*
X103650Y77400D01*
X104000Y77150D01*
X104100Y76850D01*
X104050Y76550D01*
X103850Y76300D01*
X102850Y75800D01*
X102400Y75450D01*
X102100Y74950D01*
X102000Y74500D01*
X104100D01*
G01X107500Y75850D02*
X109650D01*
X110100Y76050D01*
X110400Y76450D01*
X110500Y76950D01*
X110400Y77450D01*
X110100Y77850D01*
X109650Y78050D01*
X107500D01*
G01X110500Y80650D02*
X107500D01*
X109650Y78800D01*
Y81300D01*
G01X116350Y106000D02*
Y103850D01*
X116550Y103400D01*
X116950Y103100D01*
X117450Y103000D01*
X117950Y103100D01*
X118350Y103400D01*
X118550Y103850D01*
Y106000D01*
G01X119450Y103600D02*
X119750Y103250D01*
X120150Y103050D01*
X120600Y103000D01*
X121000Y103050D01*
X121400Y103300D01*
X121650Y103600D01*
X121700Y103900D01*
X121600Y104250D01*
X121250Y104500D01*
X120900Y104600D01*
X120450D01*
G01X120900D02*
X121200Y104750D01*
X121450Y105000D01*
X121550Y105300D01*
X121450Y105600D01*
X121200Y105850D01*
X120750Y106000D01*
X120300Y105950D01*
X119850Y105750D01*
G01X112350Y112500D02*
Y109500D01*
X114350D01*
G01X117450D02*
X115450D01*
Y112500D01*
X117450D01*
G01X116650Y111050D02*
X115450D01*
G01X118450Y109500D02*
Y112500D01*
X119450D01*
X119850Y112350D01*
X120150Y112150D01*
X120400Y111850D01*
X120600Y111500D01*
X120650Y111000D01*
X120600Y110500D01*
X120400Y110150D01*
X120150Y109850D01*
X119850Y109650D01*
X119450Y109500D01*
X118450D01*
G01X122650D02*
Y112500D01*
X122050Y111900D01*
G01Y109500D02*
X123250D01*
G01X122400Y114500D02*
Y118500D01*
X121900D01*
Y114500D01*
G01X120900Y118500D02*
X113900D01*
Y114500D01*
X120900D01*
Y118500D01*
G01X173000Y186500D02*
X170000D01*
X170600Y185900D01*
G01X173000D02*
Y187100D01*
G01X162900Y85950D02*
X163200Y86200D01*
X163400Y86500D01*
X163500Y86850D01*
X163400Y87250D01*
X163200Y87550D01*
X162900Y87850D01*
X162500Y87950D01*
X160500D01*
G01X161000Y89100D02*
X160700Y89400D01*
X160550Y89750D01*
X160500Y90150D01*
X160600Y90650D01*
X160850Y91000D01*
X161150Y91100D01*
X161450Y91050D01*
X161700Y90850D01*
X162200Y89850D01*
X162550Y89400D01*
X163050Y89100D01*
X163500Y89000D01*
Y91100D01*
G01X142033Y106350D02*
X139033D01*
X139633Y105750D01*
G01X142033D02*
Y106950D01*
G01X139033Y109450D02*
X139133Y109050D01*
X139383Y108750D01*
X139683Y108550D01*
X140083Y108400D01*
X140533Y108350D01*
X140983Y108400D01*
X141383Y108550D01*
X141683Y108750D01*
X141933Y109050D01*
X142033Y109450D01*
X141933Y109850D01*
X141683Y110150D01*
X141383Y110350D01*
X140983Y110500D01*
X140533Y110550D01*
X140083Y110500D01*
X139683Y110350D01*
X139383Y110150D01*
X139133Y109850D01*
X139033Y109450D01*
G01X152683Y105500D02*
X152933Y105850D01*
X153033Y106250D01*
X152933Y106650D01*
X152633Y107000D01*
X152183Y107250D01*
X151733Y107350D01*
X151183D01*
X150733Y107250D01*
X150333Y107000D01*
X150133Y106700D01*
X150033Y106350D01*
X150133Y105950D01*
X150333Y105650D01*
X150633Y105450D01*
X151033Y105350D01*
X151383Y105450D01*
X151733Y105700D01*
X151933Y106000D01*
X151983Y106350D01*
X151883Y106750D01*
X151633Y107050D01*
X151183Y107350D01*
G01X133400Y86950D02*
X133700Y87200D01*
X133900Y87500D01*
X134000Y87850D01*
X133900Y88250D01*
X133700Y88550D01*
X133400Y88850D01*
X133000Y88950D01*
X131000D01*
G01X134000Y90950D02*
X133350Y91050D01*
X132800Y91200D01*
X132300Y91400D01*
X131750Y91650D01*
X131000Y92050D01*
Y90050D01*
G01X161500Y172350D02*
X164500D01*
G01X161500Y171200D02*
Y173500D01*
G01X164500Y174450D02*
X161500D01*
Y175650D01*
X161650Y176050D01*
X162000Y176350D01*
X162400Y176450D01*
X162800Y176350D01*
X163100Y176100D01*
X163250Y175650D01*
Y174450D01*
G01X164500Y178550D02*
X161500D01*
X162100Y177950D01*
G01X164500D02*
Y179150D01*
G01X164050Y180550D02*
X164300Y180850D01*
X164450Y181200D01*
X164500Y181650D01*
X164400Y182100D01*
X164200Y182450D01*
X163850Y182700D01*
X163450Y182750D01*
X163050Y182650D01*
X162800Y182400D01*
X162600Y182050D01*
X162550Y181700D01*
X162600Y181350D01*
X162800Y180900D01*
X161500Y181050D01*
Y182400D01*
G01X92500Y166900D02*
X95500D01*
G01X92500Y165750D02*
Y168050D01*
G01X95500Y169000D02*
X92500D01*
Y170200D01*
X92650Y170600D01*
X93000Y170900D01*
X93400Y171000D01*
X93800Y170900D01*
X94100Y170650D01*
X94250Y170200D01*
Y169000D01*
G01X93000Y172150D02*
X92700Y172450D01*
X92550Y172800D01*
X92500Y173200D01*
X92600Y173700D01*
X92850Y174050D01*
X93150Y174150D01*
X93450Y174100D01*
X93700Y173900D01*
X94200Y172900D01*
X94550Y172450D01*
X95050Y172150D01*
X95500Y172050D01*
Y174150D01*
G01X154900Y142500D02*
Y139500D01*
G01X153750Y142500D02*
X156050D01*
G01X157000Y139500D02*
Y142500D01*
X158200D01*
X158600Y142350D01*
X158900Y142000D01*
X159000Y141600D01*
X158900Y141200D01*
X158650Y140900D01*
X158200Y140750D01*
X157000D01*
G01X160000Y140100D02*
X160300Y139750D01*
X160700Y139550D01*
X161150Y139500D01*
X161550Y139550D01*
X161950Y139800D01*
X162200Y140100D01*
X162250Y140400D01*
X162150Y140750D01*
X161800Y141000D01*
X161450Y141100D01*
X161000D01*
G01X161450D02*
X161750Y141250D01*
X162000Y141500D01*
X162100Y141800D01*
X162000Y142100D01*
X161750Y142350D01*
X161300Y142500D01*
X160850Y142450D01*
X160400Y142250D01*
G01X140000Y127800D02*
Y124800D01*
G01X138850Y127800D02*
X141150D01*
G01X142100Y124800D02*
Y127800D01*
X143300D01*
X143700Y127650D01*
X144000Y127300D01*
X144100Y126900D01*
X144000Y126500D01*
X143750Y126200D01*
X143300Y126050D01*
X142100D01*
G01X146800Y124800D02*
Y127800D01*
X144950Y125650D01*
X147450D01*
G01X117900Y183500D02*
Y180500D01*
G01X116750Y183500D02*
X119050D01*
G01X120000Y180500D02*
Y183500D01*
X121200D01*
X121600Y183350D01*
X121900Y183000D01*
X122000Y182600D01*
X121900Y182200D01*
X121650Y181900D01*
X121200Y181750D01*
X120000D01*
G01X123000Y180950D02*
X123300Y180700D01*
X123650Y180550D01*
X124100Y180500D01*
X124550Y180600D01*
X124900Y180800D01*
X125150Y181150D01*
X125200Y181550D01*
X125100Y181950D01*
X124850Y182200D01*
X124500Y182400D01*
X124150Y182450D01*
X123800Y182400D01*
X123350Y182200D01*
X123500Y183500D01*
X124850D01*
G01X127400Y180500D02*
Y177500D01*
G01X126250Y180500D02*
X128550D01*
G01X129500Y177500D02*
Y180500D01*
X130700D01*
X131100Y180350D01*
X131400Y180000D01*
X131500Y179600D01*
X131400Y179200D01*
X131150Y178900D01*
X130700Y178750D01*
X129500D01*
G01X132650D02*
X133000Y179100D01*
X133300Y179300D01*
X133700Y179400D01*
X134050Y179300D01*
X134300Y179100D01*
X134500Y178800D01*
X134550Y178450D01*
X134500Y178150D01*
X134300Y177850D01*
X134000Y177600D01*
X133650Y177500D01*
X133250Y177600D01*
X132900Y177900D01*
X132700Y178350D01*
X132650Y178850D01*
X132750Y179500D01*
X132900Y179850D01*
X133150Y180200D01*
X133500Y180450D01*
X133850Y180500D01*
X134200Y180400D01*
X134450Y180150D01*
G01X155400Y135500D02*
Y132500D01*
G01X154250Y135500D02*
X156550D01*
G01X157500Y132500D02*
Y135500D01*
X158700D01*
X159100Y135350D01*
X159400Y135000D01*
X159500Y134600D01*
X159400Y134200D01*
X159150Y133900D01*
X158700Y133750D01*
X157500D01*
G01X161500Y132500D02*
X161600Y133150D01*
X161750Y133700D01*
X161950Y134200D01*
X162200Y134750D01*
X162600Y135500D01*
X160600D01*
G01X123850Y120000D02*
Y117000D01*
G01X122700Y120000D02*
X125000D01*
G01X125950Y117000D02*
Y120000D01*
X127150D01*
X127550Y119850D01*
X127850Y119500D01*
X127950Y119100D01*
X127850Y118700D01*
X127600Y118400D01*
X127150Y118250D01*
X125950D01*
G01X130050Y117000D02*
Y120000D01*
X129450Y119400D01*
G01Y117000D02*
X130650D01*
G01X133750D02*
Y120000D01*
X131900Y117850D01*
X134400D01*
G01X107500Y109850D02*
X110500D01*
G01X107500Y108700D02*
Y111000D01*
G01X110500Y111950D02*
X107500D01*
Y113150D01*
X107650Y113550D01*
X108000Y113850D01*
X108400Y113950D01*
X108800Y113850D01*
X109100Y113600D01*
X109250Y113150D01*
Y111950D01*
G01X110500Y116050D02*
X107500D01*
X108100Y115450D01*
G01X110500D02*
Y116650D01*
G01X109900Y118050D02*
X110250Y118350D01*
X110450Y118750D01*
X110500Y119200D01*
X110450Y119600D01*
X110200Y120000D01*
X109900Y120250D01*
X109600Y120300D01*
X109250Y120200D01*
X109000Y119850D01*
X108900Y119500D01*
Y119050D01*
G01Y119500D02*
X108750Y119800D01*
X108500Y120050D01*
X108200Y120150D01*
X107900Y120050D01*
X107650Y119800D01*
X107500Y119350D01*
X107550Y118900D01*
X107750Y118450D01*
G01X86350Y179500D02*
Y176500D01*
G01X85200Y179500D02*
X87500D01*
G01X88450Y176500D02*
Y179500D01*
X89650D01*
X90050Y179350D01*
X90350Y179000D01*
X90450Y178600D01*
X90350Y178200D01*
X90100Y177900D01*
X89650Y177750D01*
X88450D01*
G01X92550Y176500D02*
Y179500D01*
X91950Y178900D01*
G01Y176500D02*
X93150D01*
G01X94700Y179000D02*
X95000Y179300D01*
X95350Y179450D01*
X95750Y179500D01*
X96250Y179400D01*
X96600Y179150D01*
X96700Y178850D01*
X96650Y178550D01*
X96450Y178300D01*
X95450Y177800D01*
X95000Y177450D01*
X94700Y176950D01*
X94600Y176500D01*
X96700D01*
G01X103000Y108850D02*
X106000D01*
G01X103000Y107700D02*
Y110000D01*
G01X106000Y110950D02*
X103000D01*
Y112150D01*
X103150Y112550D01*
X103500Y112850D01*
X103900Y112950D01*
X104300Y112850D01*
X104600Y112600D01*
X104750Y112150D01*
Y110950D01*
G01X106000Y115050D02*
X103000D01*
X103600Y114450D01*
G01X106000D02*
Y115650D01*
G01X103000Y118150D02*
X103100Y117750D01*
X103350Y117450D01*
X103650Y117250D01*
X104050Y117100D01*
X104500Y117050D01*
X104950Y117100D01*
X105350Y117250D01*
X105650Y117450D01*
X105900Y117750D01*
X106000Y118150D01*
X105900Y118550D01*
X105650Y118850D01*
X105350Y119050D01*
X104950Y119200D01*
X104500Y119250D01*
X104050Y119200D01*
X103650Y119050D01*
X103350Y118850D01*
X103100Y118550D01*
X103000Y118150D01*
G01X98000Y112400D02*
X101000D01*
G01X98000Y111250D02*
Y113550D01*
G01X101000Y114500D02*
X98000D01*
Y115700D01*
X98150Y116100D01*
X98500Y116400D01*
X98900Y116500D01*
X99300Y116400D01*
X99600Y116150D01*
X99750Y115700D01*
Y114500D01*
G01X101000Y118600D02*
X98000D01*
X98600Y118000D01*
G01X101000D02*
Y119200D01*
G01X121836Y198758D02*
X123958Y196637D01*
X125372Y198051D01*
G01X127281Y199960D02*
X125160Y202081D01*
X125372Y199253D01*
X127140Y201021D01*
G01X115702Y198170D02*
X115384Y198064D01*
X115066Y197887D01*
X114783Y197604D01*
X114571Y197180D01*
X114500Y196756D01*
X114535Y196367D01*
X114747Y195872D01*
X115030Y195518D01*
X115419Y195271D01*
X115737Y195165D01*
X116162D01*
X116550Y195271D01*
X116869Y195448D01*
X117116Y195695D01*
X117293Y196013D01*
X117399Y196332D01*
X117434Y196650D01*
G01X116621Y198736D02*
Y199160D01*
X116763Y199514D01*
X117010Y199832D01*
X117434Y200115D01*
X117859Y200185D01*
X118141Y200044D01*
X118318Y199796D01*
X118354Y199478D01*
X118000Y198417D01*
X117929Y197852D01*
X118071Y197286D01*
X118318Y196897D01*
X119803Y198382D01*
G01X119131Y201953D02*
X118919Y201599D01*
X118884Y201211D01*
X118955Y200857D01*
X119131Y200468D01*
X119414Y200114D01*
X119768Y199832D01*
X120157Y199655D01*
X120510Y199584D01*
X120899Y199619D01*
X121253Y199832D01*
X121465Y200185D01*
X121500Y200574D01*
X121429Y200928D01*
X121253Y201317D01*
X120970Y201670D01*
X120616Y201953D01*
X120227Y202130D01*
X119874Y202200D01*
X119485Y202165D01*
X119131Y201953D01*
G01X123401Y205270D02*
X123083Y205164D01*
X122765Y204987D01*
X122482Y204704D01*
X122270Y204280D01*
X122199Y203856D01*
X122234Y203467D01*
X122446Y202972D01*
X122729Y202618D01*
X123118Y202371D01*
X123436Y202265D01*
X123861D01*
X124249Y202371D01*
X124568Y202548D01*
X124815Y202795D01*
X124992Y203113D01*
X125098Y203432D01*
X125133Y203750D01*
G01X124320Y205836D02*
Y206260D01*
X124462Y206614D01*
X124709Y206932D01*
X125133Y207215D01*
X125558Y207285D01*
X125840Y207144D01*
X126017Y206896D01*
X126053Y206578D01*
X125699Y205517D01*
X125628Y204952D01*
X125770Y204386D01*
X126017Y203997D01*
X127502Y205482D01*
G01X128952Y206932D02*
X126830Y209053D01*
Y208204D01*
G01X128527Y206507D02*
X129376Y207356D01*
G01X112450Y202500D02*
X112300Y202200D01*
X112200Y201850D01*
Y201450D01*
X112350Y201000D01*
X112600Y200650D01*
X112900Y200400D01*
X113400Y200200D01*
X113850Y200150D01*
X114300Y200250D01*
X114600Y200400D01*
X114900Y200700D01*
X115100Y201050D01*
X115200Y201400D01*
Y201750D01*
X115100Y202100D01*
X114950Y202400D01*
X114750Y202650D01*
G01X115200Y204500D02*
X112200D01*
X112800Y203900D01*
G01X115200D02*
Y205100D01*
G01Y208200D02*
X112200D01*
X114350Y206350D01*
Y208850D01*
G01X107400Y197200D02*
X110400D01*
G01X107400Y196050D02*
Y198350D01*
G01X110400Y199300D02*
X107400D01*
Y200500D01*
X107550Y200900D01*
X107900Y201200D01*
X108300Y201300D01*
X108700Y201200D01*
X109000Y200950D01*
X109150Y200500D01*
Y199300D01*
G01X110400Y203400D02*
X110350Y203750D01*
X110200Y204150D01*
X109950Y204400D01*
X109600Y204500D01*
X109250Y204400D01*
X108950Y204100D01*
X108800Y203650D01*
Y203150D01*
X108700Y202850D01*
X108450Y202600D01*
X108100Y202500D01*
X107750Y202650D01*
X107500Y203000D01*
X107400Y203400D01*
X107500Y203800D01*
X107750Y204150D01*
X108100Y204300D01*
X108450Y204200D01*
X108700Y203950D01*
X108800Y203650D01*
Y203150D01*
X108950Y202700D01*
X109250Y202400D01*
X109600Y202300D01*
X109950Y202400D01*
X110200Y202650D01*
X110350Y203050D01*
X110400Y203400D01*
G01X103000Y204200D02*
X106000D01*
G01X103000Y203050D02*
Y205350D01*
G01X106000Y206300D02*
X103000D01*
Y207500D01*
X103150Y207900D01*
X103500Y208200D01*
X103900Y208300D01*
X104300Y208200D01*
X104600Y207950D01*
X104750Y207500D01*
Y206300D01*
G01X105650Y209550D02*
X105900Y209900D01*
X106000Y210300D01*
X105900Y210700D01*
X105600Y211050D01*
X105150Y211300D01*
X104700Y211400D01*
X104150D01*
X103700Y211300D01*
X103300Y211050D01*
X103100Y210750D01*
X103000Y210400D01*
X103100Y210000D01*
X103300Y209700D01*
X103600Y209500D01*
X104000Y209400D01*
X104350Y209500D01*
X104700Y209750D01*
X104900Y210050D01*
X104950Y210400D01*
X104850Y210800D01*
X104600Y211100D01*
X104150Y211400D01*
G01X97600Y202050D02*
X100600D01*
G01X97600Y200900D02*
Y203200D01*
G01X100600Y204150D02*
X97600D01*
Y205350D01*
X97750Y205750D01*
X98100Y206050D01*
X98500Y206150D01*
X98900Y206050D01*
X99200Y205800D01*
X99350Y205350D01*
Y204150D01*
G01X100600Y208250D02*
X97600D01*
X98200Y207650D01*
G01X100600D02*
Y208850D01*
G01Y211350D02*
X97600D01*
X98200Y210750D01*
G01X100600D02*
Y211950D01*
G01X161950Y202600D02*
X163150D01*
G01X162500Y203250D02*
Y201950D01*
G01X141300Y200270D02*
X141000Y200420D01*
X140650Y200520D01*
X140250D01*
X139800Y200370D01*
X139450Y200120D01*
X139200Y199820D01*
X139000Y199320D01*
X138950Y198870D01*
X139050Y198420D01*
X139200Y198120D01*
X139500Y197820D01*
X139850Y197620D01*
X140200Y197520D01*
X140550D01*
X140900Y197620D01*
X141200Y197770D01*
X141450Y197970D01*
G01X142250Y197520D02*
Y200520D01*
G01X144350D02*
Y197520D01*
G01Y199020D02*
X142250D01*
G01X145800Y200520D02*
X147000D01*
G01X146400D02*
Y197520D01*
G01X145800D02*
X147000D01*
G01X148500D02*
Y200520D01*
X149700D01*
X150100Y200370D01*
X150400Y200020D01*
X150500Y199620D01*
X150400Y199220D01*
X150150Y198920D01*
X149700Y198770D01*
X148500D01*
G01X151100Y196520D02*
X154100D01*
G01X154450Y197520D02*
X155700Y200520D01*
X156950Y197520D01*
G01X156500Y198570D02*
X154900D01*
G01X157650Y197520D02*
Y200520D01*
X159950Y197520D01*
Y200520D01*
G01X161900D02*
Y197520D01*
G01X160750Y200520D02*
X163050D01*
G01X166000Y197520D02*
X164000D01*
Y200520D01*
X166000D01*
G01X165200Y199070D02*
X164000D01*
G01X166950Y197520D02*
Y200520D01*
X169250Y197520D01*
Y200520D01*
G01X170050Y197520D02*
Y200520D01*
X172350Y197520D01*
Y200520D01*
G01X173050Y197520D02*
X174300Y200520D01*
X175550Y197520D01*
G01X175100Y198570D02*
X173500D01*
G01X177400Y197520D02*
Y200520D01*
X176800Y199920D01*
G01Y197520D02*
X178000D01*
G54D16*
G01X80180Y87606D02*
Y115165D01*
X52620D01*
Y89574D01*
X54589Y87606D01*
X80180D01*
G54D17*
G01X-37753Y413500D02*
Y421000D01*
X-35887D01*
X-35140Y420625D01*
X-34580Y420125D01*
X-34113Y419375D01*
X-33740Y418500D01*
X-33647Y417250D01*
X-33740Y416000D01*
X-34113Y415125D01*
X-34580Y414375D01*
X-35140Y413875D01*
X-35887Y413500D01*
X-37753D01*
G01X-30533D02*
X-28200Y421000D01*
X-25867Y413500D01*
G01X-26707Y416125D02*
X-29693D01*
G01X-20700Y421000D02*
Y413500D01*
G01X-22847Y421000D02*
X-18553D01*
G01X-11333Y413500D02*
X-15067D01*
Y421000D01*
X-11333D01*
G01X-12827Y417375D02*
X-15067D01*
G01X-5700Y413250D02*
X-5887Y413375D01*
Y413625D01*
X-5700Y413750D01*
X-5513Y413625D01*
Y413375D01*
X-5700Y413250D01*
G01Y416625D02*
X-5887Y416750D01*
Y417000D01*
X-5700Y417125D01*
X-5513Y417000D01*
Y416750D01*
X-5700Y416625D01*
G01X1800Y413500D02*
Y421000D01*
X680Y419500D01*
G01Y413500D02*
X2920D01*
G01X7527Y419750D02*
X8087Y420500D01*
X8740Y420875D01*
X9487Y421000D01*
X10420Y420750D01*
X11073Y420125D01*
X11260Y419375D01*
X11167Y418625D01*
X10793Y418000D01*
X8927Y416750D01*
X8087Y415875D01*
X7527Y414625D01*
X7340Y413500D01*
X11260D01*
G01X15120Y413250D02*
X18480Y421000D01*
G01X24300D02*
X23553Y420750D01*
X22993Y420125D01*
X22620Y419375D01*
X22340Y418375D01*
X22247Y417250D01*
X22340Y416125D01*
X22620Y415125D01*
X22993Y414375D01*
X23553Y413750D01*
X24300Y413500D01*
X25047Y413750D01*
X25607Y414375D01*
X25980Y415125D01*
X26260Y416125D01*
X26353Y417250D01*
X26260Y418375D01*
X25980Y419375D01*
X25607Y420125D01*
X25047Y420750D01*
X24300Y421000D01*
G01X30213Y414375D02*
X30867Y413750D01*
X31613Y413500D01*
X32360Y413750D01*
X33013Y414500D01*
X33480Y415625D01*
X33667Y416750D01*
Y418125D01*
X33480Y419250D01*
X33013Y420250D01*
X32453Y420750D01*
X31800Y421000D01*
X31053Y420750D01*
X30493Y420250D01*
X30120Y419500D01*
X29933Y418500D01*
X30120Y417625D01*
X30587Y416750D01*
X31147Y416250D01*
X31800Y416125D01*
X32547Y416375D01*
X33107Y417000D01*
X33667Y418125D01*
G01X37620Y413250D02*
X40980Y421000D01*
G01X45027Y419750D02*
X45587Y420500D01*
X46240Y420875D01*
X46987Y421000D01*
X47920Y420750D01*
X48573Y420125D01*
X48760Y419375D01*
X48667Y418625D01*
X48293Y418000D01*
X46427Y416750D01*
X45587Y415875D01*
X45027Y414625D01*
X44840Y413500D01*
X48760D01*
G01X54300Y421000D02*
X53553Y420750D01*
X52993Y420125D01*
X52620Y419375D01*
X52340Y418375D01*
X52247Y417250D01*
X52340Y416125D01*
X52620Y415125D01*
X52993Y414375D01*
X53553Y413750D01*
X54300Y413500D01*
X55047Y413750D01*
X55607Y414375D01*
X55980Y415125D01*
X56260Y416125D01*
X56353Y417250D01*
X56260Y418375D01*
X55980Y419375D01*
X55607Y420125D01*
X55047Y420750D01*
X54300Y421000D01*
G01X61800Y413500D02*
Y421000D01*
X60680Y419500D01*
G01Y413500D02*
X62920D01*
G01X67713Y414375D02*
X68367Y413750D01*
X69113Y413500D01*
X69860Y413750D01*
X70513Y414500D01*
X70980Y415625D01*
X71167Y416750D01*
Y418125D01*
X70980Y419250D01*
X70513Y420250D01*
X69953Y420750D01*
X69300Y421000D01*
X68553Y420750D01*
X67993Y420250D01*
X67620Y419500D01*
X67433Y418500D01*
X67620Y417625D01*
X68087Y416750D01*
X68647Y416250D01*
X69300Y416125D01*
X70047Y416375D01*
X70607Y417000D01*
X71167Y418125D01*
G01X-41660Y438500D02*
Y446000D01*
G01X-37740D02*
Y438500D01*
G01Y442250D02*
X-41660D01*
G01X-34533Y438500D02*
X-32200Y446000D01*
X-29867Y438500D01*
G01X-30707Y441125D02*
X-33693D01*
G01X-26567Y438500D02*
Y446000D01*
X-24233D01*
X-23487Y445625D01*
X-23020Y445125D01*
X-22833Y444125D01*
X-23020Y443125D01*
X-23580Y442500D01*
X-24233Y442125D01*
X-26567D01*
G01X-24233D02*
X-22833Y438500D01*
G01X-19253D02*
Y446000D01*
X-17387D01*
X-16640Y445625D01*
X-16080Y445125D01*
X-15613Y444375D01*
X-15240Y443500D01*
X-15147Y442250D01*
X-15240Y441000D01*
X-15613Y440125D01*
X-16080Y439375D01*
X-16640Y438875D01*
X-17387Y438500D01*
X-19253D01*
G01X-12500Y446000D02*
X-11193Y438500D01*
X-9700Y446000D01*
X-8207Y438500D01*
X-6900Y446000D01*
G01X-4533Y438500D02*
X-2200Y446000D01*
X133Y438500D01*
G01X-707Y441125D02*
X-3693D01*
G01X3433Y438500D02*
Y446000D01*
X5767D01*
X6513Y445625D01*
X6980Y445125D01*
X7167Y444125D01*
X6980Y443125D01*
X6420Y442500D01*
X5767Y442125D01*
X3433D01*
G01X5767D02*
X7167Y438500D01*
G01X14667D02*
X10933D01*
Y446000D01*
X14667D01*
G01X13173Y442375D02*
X10933D01*
G01X25653Y438500D02*
Y446000D01*
X29947Y438500D01*
Y446000D01*
G01X32967Y438500D02*
X35300Y446000D01*
X37633Y438500D01*
G01X36793Y441125D02*
X33807D01*
G01X40373Y438500D02*
Y446000D01*
X42800Y439750D01*
X45227Y446000D01*
Y438500D01*
G01X52167D02*
X48433D01*
Y446000D01*
X52167D01*
G01X50673Y442375D02*
X48433D01*
G01X57800Y438250D02*
X57613Y438375D01*
Y438625D01*
X57800Y438750D01*
X57987Y438625D01*
Y438375D01*
X57800Y438250D01*
G01Y441625D02*
X57613Y441750D01*
Y442000D01*
X57800Y442125D01*
X57987Y442000D01*
Y441750D01*
X57800Y441625D01*
G01X63527Y446000D02*
X67073D01*
X63527Y438500D01*
X67073D01*
G01X70747Y446000D02*
Y440625D01*
X71120Y439500D01*
X71867Y438750D01*
X72800Y438500D01*
X73733Y438750D01*
X74480Y439500D01*
X74853Y440625D01*
Y446000D01*
G01X82167Y438500D02*
X78433D01*
Y446000D01*
X82167D01*
G01X80673Y442375D02*
X78433D01*
G01X85840Y439500D02*
X86587Y438875D01*
X87427Y438500D01*
X88173D01*
X88920Y438875D01*
X89480Y439500D01*
X89760Y440375D01*
X89573Y441250D01*
X89107Y442000D01*
X88267Y442500D01*
X87147Y442750D01*
X86493Y443250D01*
X86213Y444125D01*
X86400Y445000D01*
X86867Y445625D01*
X87520Y446000D01*
X88173D01*
X88827Y445750D01*
X89387Y445125D01*
G01X93527Y444750D02*
X94087Y445500D01*
X94740Y445875D01*
X95487Y446000D01*
X96420Y445750D01*
X97073Y445125D01*
X97260Y444375D01*
X97167Y443625D01*
X96793Y443000D01*
X94927Y441750D01*
X94087Y440875D01*
X93527Y439625D01*
X93340Y438500D01*
X97260D01*
G01X100000Y436000D02*
X105600D01*
G01X109180Y446000D02*
X111420D01*
G01X110300D02*
Y438500D01*
G01X109180D02*
X111420D01*
G01X115840Y439500D02*
X116587Y438875D01*
X117427Y438500D01*
X118173D01*
X118920Y438875D01*
X119480Y439500D01*
X119760Y440375D01*
X119573Y441250D01*
X119107Y442000D01*
X118267Y442500D01*
X117147Y442750D01*
X116493Y443250D01*
X116213Y444125D01*
X116400Y445000D01*
X116867Y445625D01*
X117520Y446000D01*
X118173D01*
X118827Y445750D01*
X119387Y445125D01*
G01X125300Y446000D02*
Y438500D01*
G01X123153Y446000D02*
X127447D01*
G01X130467Y438500D02*
X132800Y446000D01*
X135133Y438500D01*
G01X134293Y441125D02*
X131307D01*
G01X138153Y438500D02*
Y446000D01*
X142447Y438500D01*
Y446000D01*
G01X148547Y442500D02*
X148920Y442875D01*
X149200Y443500D01*
X149387Y444375D01*
X149200Y445125D01*
X148827Y445625D01*
X148173Y446000D01*
X145653D01*
Y438500D01*
X148733D01*
X149387Y439000D01*
X149760Y439750D01*
X149947Y440625D01*
X149760Y441500D01*
X149200Y442250D01*
X148547Y442500D01*
X145653D01*
G01X153247Y446000D02*
Y440625D01*
X153620Y439500D01*
X154367Y438750D01*
X155300Y438500D01*
X156233Y438750D01*
X156980Y439500D01*
X157353Y440625D01*
Y446000D01*
G01X160933D02*
Y438500D01*
X164667D01*
G01X167500Y436000D02*
X173100D01*
G01X175933Y446000D02*
Y438500D01*
X179667D01*
G01X185860Y442250D02*
X187727D01*
Y440000D01*
X187167Y439250D01*
X186513Y438750D01*
X185580Y438500D01*
X184647Y438750D01*
X183993Y439250D01*
X183433Y440000D01*
X183060Y440875D01*
X182873Y441875D01*
Y442750D01*
X183060Y443500D01*
X183433Y444375D01*
X183993Y445125D01*
X184553Y445625D01*
X185300Y446000D01*
X185953D01*
X186700Y445750D01*
X187260Y445250D01*
G01X190467Y438500D02*
X192800Y446000D01*
X195133Y438500D01*
G01X194293Y441125D02*
X191307D01*
G01X197500Y436000D02*
X203100D01*
G01X205747Y438500D02*
Y446000D01*
X207613D01*
X208360Y445625D01*
X208920Y445125D01*
X209387Y444375D01*
X209760Y443500D01*
X209853Y442250D01*
X209760Y441000D01*
X209387Y440125D01*
X208920Y439375D01*
X208360Y438875D01*
X207613Y438500D01*
X205747D01*
G01X217167D02*
X213433D01*
Y446000D01*
X217167D01*
G01X215673Y442375D02*
X213433D01*
G01X220467Y446000D02*
X222800Y438500D01*
X225133Y446000D01*
G01X228247Y438500D02*
Y446000D01*
G01X231793D02*
X228247Y441375D01*
G01X232353Y438500D02*
X229833Y443500D01*
G01X236680Y446000D02*
X238920D01*
G01X237800D02*
Y438500D01*
G01X236680D02*
X238920D01*
G01X245300Y446000D02*
Y438500D01*
G01X243153Y446000D02*
X247447D01*
G01X250000Y436000D02*
X255600D01*
G01X258433Y438500D02*
Y446000D01*
X260673D01*
X261420Y445625D01*
X261980Y444750D01*
X262167Y443750D01*
X261980Y442750D01*
X261513Y442000D01*
X260673Y441625D01*
X258433D01*
G01X267800Y438500D02*
Y446000D01*
X266680Y444500D01*
G01Y438500D02*
X268920D01*
G01X86750Y30487D02*
X82913D01*
Y25813D01*
X86750D01*
G01X86970Y73337D02*
X83133D01*
Y68663D01*
X86970D01*
G01X61548Y34115D02*
X56548D01*
X59048Y31615D01*
X61548Y34115D01*
G01X74811Y-850D02*
X51189D01*
Y30449D01*
X74811D01*
Y-850D01*
G01X90500Y165750D02*
X84500D01*
G01D02*
Y161250D01*
G01X90500Y154250D02*
X84500D01*
G01D02*
Y158750D01*
G01X83500Y161250D02*
Y165750D01*
G01D02*
X77500D01*
G01D02*
Y161250D01*
G01X83500Y158750D02*
Y154250D01*
G01D02*
X77500D01*
G01D02*
Y158750D01*
G01X73250Y148000D02*
X77750D01*
G01D02*
Y154000D01*
G01D02*
X73250D01*
G01X70750Y148000D02*
X66250D01*
G01D02*
Y154000D01*
G01D02*
X70750D01*
G01X86970Y79000D02*
X82470D01*
G01D02*
Y85000D01*
G01D02*
X86970D01*
G01X84750Y148337D02*
X80913D01*
Y143663D01*
X84750D01*
G01X88450Y184937D02*
X84613D01*
Y180263D01*
X88450D01*
G01X84750Y143337D02*
X80913D01*
Y138663D01*
X84750D01*
G01X66663Y168750D02*
Y164913D01*
X71337D01*
Y168750D01*
G01Y171250D02*
Y175087D01*
X66663D01*
Y171250D01*
G01X49337Y92435D02*
Y96272D01*
X44663D01*
Y92435D01*
G01Y89935D02*
Y86098D01*
X49337D01*
Y89935D01*
G01X45750Y80548D02*
X49587D01*
Y85222D01*
X45750D01*
G01X43250D02*
X39413D01*
Y80548D01*
X43250D01*
G01X74750Y84522D02*
X70913D01*
Y79848D01*
X74750D01*
G01X77250D02*
X81087D01*
Y84522D01*
X77250D01*
G01X86970Y78337D02*
X83133D01*
Y73663D01*
X86970D01*
G01X82250Y171963D02*
X86087D01*
Y176637D01*
X82250D01*
G01X79750D02*
X75913D01*
Y171963D01*
X79750D01*
G01X84750Y153337D02*
X80913D01*
Y148663D01*
X84750D01*
G01X72750Y138337D02*
X68913D01*
Y133663D01*
X72750D01*
G01X75250D02*
X79087D01*
Y138337D01*
X75250D01*
G01X84750D02*
X80913D01*
Y133663D01*
X84750D01*
G01X82250Y166663D02*
X86087D01*
Y171337D01*
X82250D01*
G01X79750D02*
X75913D01*
Y166663D01*
X79750D01*
G01X57300Y135435D02*
X56300Y136435D01*
X45300D01*
Y125935D01*
X57300D01*
Y135435D01*
G01X81719Y204518D02*
X84081D01*
G01X76601D02*
X78569D01*
G01X81719Y194282D02*
X84081D01*
G01X76601D02*
X78569D01*
G01X73451Y204518D02*
Y194282D01*
G01X104250Y25813D02*
X108087D01*
Y30487D01*
X104250D01*
G01X101750D02*
X97913D01*
Y25813D01*
X101750D01*
G01X118750Y45337D02*
X114913D01*
Y40663D01*
X118750D01*
G01X121250D02*
X125087D01*
Y45337D01*
X121250D01*
G01X89250Y25813D02*
X93087D01*
Y30487D01*
X89250D01*
G01X129557Y65250D02*
Y69087D01*
X124883D01*
Y65250D01*
G01Y62750D02*
Y58913D01*
X129557D01*
Y62750D01*
G01X89470Y68663D02*
X93307D01*
Y73337D01*
X89470D01*
G01X90500Y161250D02*
Y165750D01*
G01Y158750D02*
Y154250D01*
G01X150350Y155800D02*
X154850D01*
G01D02*
Y161800D01*
G01D02*
X150350D01*
G01X147850Y155800D02*
X143350D01*
G01D02*
Y161800D01*
G01D02*
X147850D01*
G01X137800Y135350D02*
Y139850D01*
G01D02*
X131800D01*
G01D02*
Y135350D01*
G01X137800Y132850D02*
Y128350D01*
G01D02*
X131800D01*
G01D02*
Y132850D01*
G01X118400Y132750D02*
Y128250D01*
G01D02*
X124400D01*
G01D02*
Y132750D01*
G01X118400Y135250D02*
Y139750D01*
G01D02*
X124400D01*
G01D02*
Y135250D01*
G01X89470Y79000D02*
X93970D01*
G01D02*
Y85000D01*
G01D02*
X89470D01*
G01X87250Y143663D02*
X91087D01*
Y148337D01*
X87250D01*
G01X90950Y180263D02*
X94787D01*
Y184937D01*
X90950D01*
G01X147850Y155037D02*
X144013D01*
Y150363D01*
X147850D01*
G01X150350D02*
X154187D01*
Y155037D01*
X150350D01*
G01X147350Y166937D02*
X143513D01*
Y162263D01*
X147350D01*
G01X149850D02*
X153687D01*
Y166937D01*
X149850D01*
G01X127064Y195569D02*
X124350Y192855D01*
X127655Y189550D01*
X130369Y192264D01*
G01X121231Y188164D02*
X123945Y185450D01*
X127250Y188755D01*
X124536Y191469D01*
G01X122769Y193236D02*
X120055Y195950D01*
X116750Y192645D01*
X119464Y189931D01*
G01X147950Y149937D02*
X144113D01*
Y145263D01*
X147950D01*
G01X150450D02*
X154287D01*
Y149937D01*
X150450D01*
G01X147350Y172237D02*
X143513D01*
Y167563D01*
X147350D01*
G01X149850D02*
X153687D01*
Y172237D01*
X149850D01*
G01X105637Y136550D02*
Y140387D01*
X100963D01*
Y136550D01*
G01Y134050D02*
Y130213D01*
X105637D01*
Y134050D01*
G01X129737Y136150D02*
Y139987D01*
X125063D01*
Y136150D01*
G01Y133650D02*
Y129813D01*
X129737D01*
Y133650D01*
G01X87250Y138663D02*
X91087D01*
Y143337D01*
X87250D01*
G01X106163Y134050D02*
Y130213D01*
X110837D01*
Y134050D01*
G01Y136550D02*
Y140387D01*
X106163D01*
Y136550D01*
G01X89470Y73663D02*
X93307D01*
Y78337D01*
X89470D01*
G01X87250Y148663D02*
X91087D01*
Y153337D01*
X87250D01*
G01Y133663D02*
X91087D01*
Y138337D01*
X87250D01*
G01X126250Y81663D02*
X130087D01*
Y86337D01*
X126250D01*
G01X123750D02*
X119913D01*
Y81663D01*
X123750D01*
G01X92850Y131237D02*
X89013D01*
Y126563D01*
X92850D01*
G01X95350D02*
X99187D01*
Y131237D01*
X95350D01*
G01X134701Y149614D02*
Y176386D01*
X97299D01*
Y149614D01*
X134701D01*
G01X154250Y177000D02*
X155250Y178000D01*
Y189000D01*
X144750D01*
Y177000D01*
X154250D01*
G01X132136Y194031D02*
X134850Y196745D01*
X131545Y200050D01*
X128831Y197336D01*
G01X133031Y200264D02*
X135745Y197550D01*
X139050Y200855D01*
X136336Y203569D01*
G01X134569Y205336D02*
X131855Y208050D01*
X128550Y204745D01*
X131264Y202031D01*
G01X87231Y204518D02*
X89199D01*
G01X87231Y194282D02*
X89199D01*
G01X92349Y204518D02*
Y194282D01*
G01X97433Y421000D02*
Y413500D01*
X101167D01*
G01X104467D02*
X106800Y421000D01*
X109133Y413500D01*
G01X108293Y416125D02*
X105307D01*
G01X114300Y413500D02*
Y416875D01*
X112433Y421000D01*
G01X116167D02*
X114300Y416875D01*
G01X123667Y413500D02*
X119933D01*
Y421000D01*
X123667D01*
G01X122173Y417375D02*
X119933D01*
G01X127433Y413500D02*
Y421000D01*
X129767D01*
X130513Y420625D01*
X130980Y420125D01*
X131167Y419125D01*
X130980Y418125D01*
X130420Y417500D01*
X129767Y417125D01*
X127433D01*
G01X129767D02*
X131167Y413500D01*
G01X136800Y413250D02*
X136613Y413375D01*
Y413625D01*
X136800Y413750D01*
X136987Y413625D01*
Y413375D01*
X136800Y413250D01*
G01Y416625D02*
X136613Y416750D01*
Y417000D01*
X136800Y417125D01*
X136987Y417000D01*
Y416750D01*
X136800Y416625D01*
G01X142340Y414500D02*
X143087Y413875D01*
X143927Y413500D01*
X144673D01*
X145420Y413875D01*
X145980Y414500D01*
X146260Y415375D01*
X146073Y416250D01*
X145607Y417000D01*
X144767Y417500D01*
X143647Y417750D01*
X142993Y418250D01*
X142713Y419125D01*
X142900Y420000D01*
X143367Y420625D01*
X144020Y421000D01*
X144673D01*
X145327Y420750D01*
X145887Y420125D01*
G01X150680Y421000D02*
X152920D01*
G01X151800D02*
Y413500D01*
G01X150680D02*
X152920D01*
G01X157433Y421000D02*
Y413500D01*
X161167D01*
G01X164747D02*
Y421000D01*
G01X168293D02*
X164747Y416375D01*
G01X168853Y413500D02*
X166333Y418500D01*
G01X172340Y414500D02*
X173087Y413875D01*
X173927Y413500D01*
X174673D01*
X175420Y413875D01*
X175980Y414500D01*
X176260Y415375D01*
X176073Y416250D01*
X175607Y417000D01*
X174767Y417500D01*
X173647Y417750D01*
X172993Y418250D01*
X172713Y419125D01*
X172900Y420000D01*
X173367Y420625D01*
X174020Y421000D01*
X174673D01*
X175327Y420750D01*
X175887Y420125D01*
G01X183853Y420375D02*
X183293Y420750D01*
X182640Y421000D01*
X181893D01*
X181053Y420625D01*
X180400Y420000D01*
X179933Y419250D01*
X179560Y418000D01*
X179467Y416875D01*
X179653Y415750D01*
X179933Y415000D01*
X180493Y414250D01*
X181147Y413750D01*
X181800Y413500D01*
X182453D01*
X183107Y413750D01*
X183667Y414125D01*
X184133Y414625D01*
G01X187433Y413500D02*
Y421000D01*
X189767D01*
X190513Y420625D01*
X190980Y420125D01*
X191167Y419125D01*
X190980Y418125D01*
X190420Y417500D01*
X189767Y417125D01*
X187433D01*
G01X189767D02*
X191167Y413500D01*
G01X198667D02*
X194933D01*
Y421000D01*
X198667D01*
G01X197173Y417375D02*
X194933D01*
G01X206167Y413500D02*
X202433D01*
Y421000D01*
X206167D01*
G01X204673Y417375D02*
X202433D01*
G01X209653Y413500D02*
Y421000D01*
X213947Y413500D01*
Y421000D01*
G01X226800D02*
Y413500D01*
G01X224653Y421000D02*
X228947D01*
G01X234300Y413500D02*
X233553Y413625D01*
X232900Y414125D01*
X232340Y414875D01*
X231967Y415750D01*
X231780Y416750D01*
Y417750D01*
X231967Y418750D01*
X232340Y419625D01*
X232900Y420375D01*
X233553Y420875D01*
X234300Y421000D01*
X235047Y420875D01*
X235700Y420375D01*
X236260Y419625D01*
X236633Y418750D01*
X236820Y417750D01*
Y416750D01*
X236633Y415750D01*
X236260Y414875D01*
X235700Y414125D01*
X235047Y413625D01*
X234300Y413500D01*
G01X239933D02*
Y421000D01*
X242173D01*
X242920Y420625D01*
X243480Y419750D01*
X243667Y418750D01*
X243480Y417750D01*
X243013Y417000D01*
X242173Y416625D01*
X239933D01*
G54D18*
G01X8225Y469766D02*
X11675D01*
X8225Y463500D01*
X11675D01*
G01X19840Y468200D02*
X22140D01*
Y465380D01*
X21450Y464440D01*
X20645Y463813D01*
X19495Y463500D01*
X18345Y463813D01*
X17540Y464440D01*
X16850Y465380D01*
X16390Y466477D01*
X16160Y467730D01*
Y468827D01*
X16390Y469766D01*
X16850Y470863D01*
X17540Y471803D01*
X18230Y472430D01*
X19150Y472900D01*
X19955D01*
X20875Y472587D01*
X21565Y471960D01*
G01X28350Y463500D02*
Y472900D01*
G01X35595Y469766D02*
Y465380D01*
X36055Y464283D01*
X36745Y463657D01*
X37550Y463500D01*
X38355Y463657D01*
X39045Y464283D01*
X39505Y465380D01*
G01Y463500D02*
Y469766D01*
G01X45025Y467730D02*
X48705D01*
X48360Y468827D01*
X47785Y469453D01*
X46980Y469766D01*
X46175Y469610D01*
X45485Y469140D01*
X45025Y468043D01*
X44795Y467103D01*
Y466163D01*
X45025Y465223D01*
X45600Y464283D01*
X46290Y463657D01*
X47095Y463500D01*
X47900Y463813D01*
X48705Y464753D01*
G54D19*
G01X78176Y46496D02*
G03I-1066J0D01*
G01X55176D02*
G03I-1066J0D01*
G01X60539Y152098D02*
Y201902D01*
X40461D01*
Y152098D01*
X60539D01*
G01X131831Y126643D02*
G03I-556J0D01*
M02*
